<svg width="695" height="396" viewBox="0 0 695 396" fill="none" xmlns="http://www.w3.org/2000/svg">
<g style="mix-blend-mode:overlay">
<path d="M207.509 394.822L205.598 395.663H136.775V339.973V340.141L146.334 347.544L148.246 348.89L151.548 351.582L153.112 352.592L154.85 354.106L156.588 355.452L160.411 358.48L161.802 359.322L207.509 394.822Z" fill="#B9B9B9"/>
<path d="M624.091 227.415V395.664H553.184V256.69L624.091 227.415Z" fill="black"/>
<path d="M350.02 395.663H0L136.775 340.141L346.718 254.839L348.63 337.113V337.281L348.803 345.357L348.977 351.077V355.957L349.151 359.153V359.658L350.02 395.663Z" fill="#B9B9B9"/>
<path d="M419.365 308.005V395.663H348.457V337.281L348.631 337.113L419.365 308.005Z" fill="white"/>
<path d="M624.092 143.29L695 114.015V198.139L624.092 227.415V143.29Z" fill="#B9B9B9"/>
<path d="M570.217 184.175L610.363 215.132L570.217 231.621V184.175Z" fill="white"/>
<path d="M583.945 0.951416L624.092 31.9092L583.945 48.3976V0.951416Z" fill="white"/>
<path d="M386.691 238.519L426.664 269.476L386.691 285.965V238.519Z" fill="white"/>
<path d="M346.719 207.561L386.691 238.351L346.719 255.007V207.561Z" fill="white"/>
<path d="M624.092 227.583L695 198.307V282.264L624.092 311.539V227.583Z" fill="white"/>
<path d="M482.277 202.009L553.185 172.734V256.69L482.277 285.965V202.009Z" fill="#696969"/>
<path d="M348.802 337.281V395.663H277.895V366.556L288.844 362.014L293.884 359.826L307.961 354.106L311.263 352.76L313.696 351.75L315.26 351.077L316.477 350.573L319.779 349.227L348.455 337.449L348.628 337.281H348.802Z" fill="#B9B9B9"/>
<path d="M277.896 366.556V395.663H207.336L277.896 366.556Z" fill="#B9B9B9"/>
<path d="M628.61 311.875V396H415.887L416.582 395.663L419.363 394.654L553.184 341.656L624.091 313.726L628.61 311.875Z" fill="#696969"/>
<path d="M553.184 88.4407L624.091 59.1654V143.29L553.184 88.4407Z" fill="#B9B9B9"/>
<path d="M624.092 227.583L695 198.307V282.264L624.092 227.583Z" fill="#B9B9B9"/>
<path d="M624.092 59.1654L695 30.0583V114.015L624.092 59.1654Z" fill="white"/>
<path d="M695 282.263V395.663H624.092V311.539L651.725 300.266L695 282.263Z" fill="white"/>
<path d="M651.551 300.266L694.999 282.263V333.579L651.551 300.266Z" fill="#696969"/>
<path d="M628.61 395.663V396H415.887L416.582 395.663H628.61Z" fill="black"/>
</g>
</svg>
