<svg width="37" height="42" viewBox="0 0 37 42" fill="none" xmlns="http://www.w3.org/2000/svg">
<path fill-rule="evenodd" clip-rule="evenodd" d="M17.0052 0.371184C17.6781 -0.123728 18.5946 -0.123728 19.2675 0.371184L24.3218 4.08865C27.3585 6.32214 29.4301 9.57328 30.2057 13.1877L35.7136 18.6955C36.0716 19.0535 36.2727 19.5391 36.2727 20.0455V27.6818C36.2727 28.3435 35.9301 28.9579 35.3673 29.3058C34.8045 29.6536 34.1017 29.6853 33.5099 29.3894L30.5455 27.9072V33.4091C30.5455 34.4635 29.6907 35.3182 28.6364 35.3182H25.7727V38.1818C25.7727 39.2362 24.918 40.0909 23.8636 40.0909C22.8093 40.0909 21.9545 39.2362 21.9545 38.1818V35.3182H20.0455V40.0909C20.0455 41.1453 19.1907 42 18.1364 42C17.082 42 16.2273 41.1453 16.2273 40.0909V35.3182H14.3182V38.1818C14.3182 39.2362 13.4635 40.0909 12.4091 40.0909C11.3547 40.0909 10.5 39.2362 10.5 38.1818V35.3182H7.63636C6.582 35.3182 5.72727 34.4635 5.72727 33.4091V27.9072L2.76286 29.3894C2.17107 29.6853 1.46825 29.6536 0.905423 29.3058C0.342591 28.9579 0 28.3435 0 27.6818V20.0455C0 19.5391 0.201136 19.0535 0.55916 18.6955L6.06699 13.1877C6.84259 9.57328 8.91423 6.32214 11.9509 4.08865L17.0052 0.371184ZM9.54545 16.3919V31.5H26.7273V16.3919C26.7273 12.7488 24.9943 9.32299 22.0595 7.16447L18.1364 4.27895L14.2132 7.16447C11.2784 9.32299 9.54545 12.7488 9.54545 16.3919ZM5.72727 18.9271V23.6383L3.81818 24.5928V20.8362L5.72727 18.9271ZM30.5455 23.6383L32.4545 24.5928V20.8362L30.5455 18.9271V23.6383Z" fill="#0652DD"/>
</svg>
