<svg width="42" height="42" viewBox="0 0 42 42" fill="none" xmlns="http://www.w3.org/2000/svg">
<path fill-rule="evenodd" clip-rule="evenodd" d="M5.55377 6.77296C9.38967 2.61061 14.8893 0 21 0C32.598 0 42 9.40202 42 21C42 32.598 32.598 42 21 42C9.40202 42 0 32.598 0 21C0 19.9456 0.854729 19.0909 1.90909 19.0909C2.96345 19.0909 3.81818 19.9456 3.81818 21C3.81818 30.4893 11.5107 38.1818 21 38.1818C30.4893 38.1818 38.1818 30.4893 38.1818 21C38.1818 11.5107 30.4893 3.81818 21 3.81818C15.9129 3.81818 11.3406 6.02832 8.1929 9.54545H10.5869C11.6412 9.54545 12.496 10.4002 12.496 11.4545C12.496 12.5089 11.6412 13.3636 10.5869 13.3636H3.64468C2.59032 13.3636 1.73559 12.5089 1.73559 11.4545V4.51241C1.73559 3.45805 2.59032 2.60332 3.64468 2.60332C4.69905 2.60332 5.55377 3.45805 5.55377 4.51241V6.77296ZM21.005 7.63636C22.0593 7.63647 22.914 8.49128 22.9139 9.54565L22.9128 20.2177L30.4475 27.7524C31.1931 28.498 31.1931 29.7068 30.4475 30.4523C29.702 31.1979 28.4932 31.1979 27.7477 30.4523L19.6537 22.3583C19.2956 22.0003 19.0945 21.5146 19.0945 21.0082L19.0957 9.54526C19.0958 8.4909 19.9506 7.63626 21.005 7.63636Z" fill="#0652DD"/>
</svg>
