<svg width="25" height="29" viewBox="0 0 25 29" fill="none" xmlns="http://www.w3.org/2000/svg">
<path fill-rule="evenodd" clip-rule="evenodd" d="M0.314718 27.2L5.16294 22.4093H12.7247C13.3615 22.4093 13.9723 22.1593 14.4226 21.7143L20.3894 15.8184H23.9306C24.8814 15.8184 25.3576 16.9543 24.6853 17.6186L13.4796 28.6913C13.2794 28.8891 13.008 29.0002 12.725 29.0002H1.06935C0.118566 29.0002 -0.357586 27.8643 0.314718 27.2Z" fill="#D6DEF8"/>
<path fill-rule="evenodd" clip-rule="evenodd" d="M20.3894 7.90918H23.9307C24.8814 7.90918 25.3576 9.04507 24.6853 9.7094L13.4796 20.7821C13.2794 20.9799 13.008 21.091 12.725 21.091H1.06935C0.118566 21.091 -0.357586 19.9551 0.314718 19.2908L5.16294 14.5001H12.7247C13.3615 14.5001 13.9723 14.2501 14.4226 13.8051L20.3894 7.90918Z" fill="#D6DEF8"/>
<path d="M11.5204 0.308869C11.7206 0.111104 11.992 0 12.275 0H23.9307C24.8814 0 25.3576 1.1359 24.6853 1.80022L13.4796 12.8729C13.2794 13.0707 13.008 13.1818 12.725 13.1818H1.06935C0.118566 13.1818 -0.357586 12.0459 0.314718 11.3816L11.5204 0.308869Z" fill="#3F87F5"/>
</svg>
