<svg width="42" height="37" viewBox="0 0 42 37" fill="none" xmlns="http://www.w3.org/2000/svg">
<path fill-rule="evenodd" clip-rule="evenodd" d="M0 3.81818C0 1.70946 1.70946 0 3.81818 0H16.2273C16.7939 0 17.3312 0.251662 17.6939 0.686921L21.8942 5.72727H38.1818C40.2906 5.72727 42 7.4367 42 9.54545V32.4545C42 34.5633 40.2906 36.2727 38.1818 36.2727H3.81818C1.70948 36.2727 0 34.5633 0 32.4545V3.81818ZM15.3331 3.81818H3.81818V14.3182H38.1818V9.54545H21C20.4334 9.54545 19.8961 9.29379 19.5334 8.85853L15.3331 3.81818ZM38.1818 18.1364H3.81818V32.4545H38.1818V18.1364Z" fill="#0652DD"/>
</svg>
