<svg width="35" height="42" viewBox="0 0 35 42" fill="none" xmlns="http://www.w3.org/2000/svg">
<path d="M19.0909 23.8636C19.0909 23.202 18.7483 22.5875 18.1854 22.2397C17.6226 21.8918 16.9198 21.8602 16.328 22.1561L14.4189 23.1106C13.4759 23.5822 13.0936 24.7289 13.5651 25.672C13.8994 26.3405 14.5729 26.7271 15.2727 26.7277V31.5C14.2183 31.5 13.3636 32.3547 13.3636 33.4091C13.3636 34.4635 14.2183 35.3182 15.2727 35.3182H19.0909C20.1452 35.3182 21 34.4635 21 33.4091C21 32.3547 20.1452 31.5 19.0909 31.5V23.8636Z" fill="#0652DD"/>
<path fill-rule="evenodd" clip-rule="evenodd" d="M0 1.90909C0 0.854729 0.854729 0 1.90909 0H32.4547C33.509 0 34.3638 0.854729 34.3638 1.90909V11.4545C34.3638 12.0554 34.0808 12.6213 33.6001 12.9818L26.7273 18.1364V19.2838C29.087 21.6923 30.5455 24.995 30.5455 28.6364C30.5455 36.0169 24.5623 42 17.1818 42C9.8013 42 3.81818 36.0169 3.81818 28.6364C3.81818 24.9951 5.27659 21.6923 7.63636 19.2838V18.1364L0.763636 12.9818C0.282916 12.6213 0 12.0554 0 11.4545V1.90909ZM3.81818 3.81818H7.63636V13.3636L3.81818 10.5V3.81818ZM17.1818 15.2727C15.1332 15.2727 13.1907 15.7346 11.4545 16.5593V3.81818H22.9091V16.5593C22.7184 16.4687 22.5252 16.3825 22.3296 16.3008C20.7449 15.6387 19.0054 15.2727 17.1818 15.2727ZM30.5456 10.5L26.7273 13.3637V3.81818H30.5456V10.5ZM17.1818 19.0909C19.3221 19.0909 21.2948 19.7934 22.8867 20.9823C23.1141 21.1522 23.3337 21.332 23.545 21.5211C25.5009 23.2716 26.7273 25.8095 26.7273 28.6364C26.7273 33.9082 22.4536 38.1818 17.1818 38.1818C11.91 38.1818 7.63636 33.9082 7.63636 28.6364C7.63636 25.8095 8.86278 23.2716 10.8187 21.521C12.5087 20.0084 14.7358 19.0909 17.1818 19.0909Z" fill="#0652DD"/>
</svg>
