<svg width="41" height="42" viewBox="0 0 41 42" fill="none" xmlns="http://www.w3.org/2000/svg">
<path fill-rule="evenodd" clip-rule="evenodd" d="M4.77273 3.81818C4.24555 3.81818 3.81818 4.24555 3.81818 4.77273V37.2273C3.81818 37.7545 4.24553 38.1818 4.77273 38.1818H28.6364V4.77273C28.6364 4.24553 28.209 3.81818 27.6818 3.81818H4.77273ZM32.4545 17.1818V4.77273C32.4545 2.13685 30.3178 0 27.6818 0H4.77273C2.13683 0 0 2.13683 0 4.77273V37.2273C0 39.8632 2.13685 42 4.77273 42H35.3182C37.9541 42 40.0909 39.8632 40.0909 37.2273V21C40.0909 18.8912 38.3815 17.1818 36.2727 17.1818H32.4545ZM32.4545 21V38.1818H35.3182C35.8454 38.1818 36.2727 37.7545 36.2727 37.2273V21H32.4545ZM5.72727 9.54545C5.72727 8.49109 6.582 7.63636 7.63636 7.63636H15.2727C16.3271 7.63636 17.1818 8.49109 17.1818 9.54545C17.1818 10.5998 16.3271 11.4545 15.2727 11.4545H7.63636C6.582 11.4545 5.72727 10.5998 5.72727 9.54545ZM5.72727 16.2273C5.72727 15.1729 6.582 14.3182 7.63636 14.3182H19.0909C20.1453 14.3182 21 15.1729 21 16.2273C21 17.2816 20.1453 18.1364 19.0909 18.1364H7.63636C6.582 18.1364 5.72727 17.2816 5.72727 16.2273Z" fill="#0652DD"/>
</svg>
