<svg width="42" height="42" viewBox="0 0 42 42" fill="none" xmlns="http://www.w3.org/2000/svg">
<path fill-rule="evenodd" clip-rule="evenodd" d="M28.0295 3.79712e-08C28.5867 -0.000105856 29.1212 0.221278 29.5151 0.615401L37.1852 8.28891C38.0049 9.10893 38.0049 10.4381 37.1852 11.2581L15.4683 32.9846C15.0745 33.3786 14.5402 33.6 13.9831 33.6H6.3C5.1402 33.6 4.2 32.6598 4.2 31.5V23.8559C4.2 23.2994 4.4209 22.7656 4.81419 22.3719L26.544 0.615965C26.9378 0.221693 27.4722 0.000105932 28.0295 3.79712e-08ZM28.0304 5.07106L8.4 24.725V29.4H13.1129L32.7308 9.77351L28.0304 5.07106ZM0 39.9C0 38.7402 0.940202 37.8 2.1 37.8H39.9C41.0598 37.8 42 38.7402 42 39.9C42 41.0598 41.0598 42 39.9 42H2.1C0.940202 42 0 41.0598 0 39.9Z" fill="#0652DD"/>
</svg>
