<svg width="512" height="211" viewBox="0 0 512 211" fill="none" xmlns="http://www.w3.org/2000/svg">
<g clip-path="url(#clip0)">
<g style="mix-blend-mode:multiply">
<path d="M283.818 -153.589C292.653 -160.512 305.277 -158.979 312.199 -150.144L471.168 52.8464C478.091 61.6813 476.559 74.305 467.724 81.2275C458.889 88.1499 446.265 86.6178 439.343 77.7829L280.284 -125.219C273.451 -134.043 274.983 -146.667 283.818 -153.589Z" fill="url(#paint0_linear)"/>
</g>
<g style="mix-blend-mode:multiply">
<path d="M-68.1813 -153.009C-59.3464 -159.932 -46.7226 -158.4 -39.8002 -149.565L119.169 53.4262C126.091 62.2611 124.559 74.8849 115.724 81.8073C106.89 88.7297 94.2658 87.1976 87.3433 78.3627L-71.7154 -124.639C-78.5483 -133.463 -77.0162 -146.087 -68.1813 -153.009Z" fill="url(#paint1_linear)"/>
</g>
<g style="mix-blend-mode:multiply">
<path d="M169.54 21.0555C170.945 19.9542 173.004 20.2042 174.106 21.6097L274.785 150.207C275.886 151.612 275.636 153.672 274.231 154.773C272.825 155.874 270.766 155.624 269.665 154.219L168.896 25.6107C167.884 24.216 168.134 22.1568 169.54 21.0555Z" fill="url(#paint2_linear)"/>
</g>
<g style="mix-blend-mode:multiply">
<path d="M462.683 -10.0856C464.089 -11.187 466.148 -10.937 467.249 -9.53147L568.018 119.076C569.119 120.482 568.869 122.541 567.464 123.642C566.058 124.744 563.999 124.494 562.898 123.088L462.129 -5.51961C461.028 -6.92516 461.278 -8.98436 462.683 -10.0856Z" fill="url(#paint3_linear)"/>
</g>
<g style="mix-blend-mode:multiply">
<path d="M365.528 74.0542C366.934 72.9529 368.993 73.2029 370.094 74.6084L470.863 203.216C471.964 204.622 471.714 206.681 470.309 207.782C468.903 208.884 466.844 208.634 465.743 207.228L364.974 78.6203C363.873 77.2147 364.123 75.1555 365.528 74.0542Z" fill="url(#paint4_linear)"/>
</g>
<path d="M140.516 -109.094C151.058 -117.354 166.368 -115.495 174.717 -104.943L366.264 139.523C374.524 150.064 372.666 165.374 362.113 173.723C351.571 181.983 336.262 180.125 327.913 169.572L136.366 -74.8932C128.117 -85.5244 129.975 -100.834 140.516 -109.094Z" stroke="#FBC61E" stroke-miterlimit="10"/>
<mask id="mask0" mask-type="alpha" maskUnits="userSpaceOnUse" x="-35" y="-399" width="396" height="483">
<path d="M-19.2094 -389.894C-1.87923 -403.473 23.2895 -400.418 37.0154 -383.07L351.914 18.825C365.492 36.1551 362.438 61.3238 345.09 75.0498C327.76 88.6286 302.591 85.5739 288.865 68.2258L-26.0334 -333.669C-39.5943 -351.146 -36.5396 -376.315 -19.2094 -389.894Z" fill="#33BDFF"/>
</mask>
<g mask="url(#mask0)">
<path d="M301.686 82.0952C302.49 81.5193 303.596 81.6901 304.176 82.4795C304.848 83.2832 304.749 84.3179 303.954 84.8076C303.15 85.3836 302.044 85.2127 301.464 84.4233C300.876 83.7201 300.975 82.6853 301.686 82.0952Z" fill="#FFCB59"/>
<path d="M295.169 73.675C295.973 73.0995 297.079 73.2702 297.658 74.0591C298.33 74.8623 298.231 75.8963 297.436 76.3857C296.633 76.9613 295.527 76.7906 294.947 76.0016C294.268 75.2846 294.366 74.2506 295.169 73.675Z" fill="#FFCB59"/>
<path d="M289.891 65.0099C288.923 64.8606 288.069 65.4726 287.983 66.3769C287.897 67.2811 288.611 68.1351 289.578 68.2844C290.545 68.4337 291.399 67.8217 291.486 66.9174C291.572 66.0132 290.858 65.1592 289.891 65.0099Z" fill="#FFCB59"/>
<path d="M282.033 56.9087C282.836 56.3332 283.942 56.5039 284.521 57.2928C285.193 58.096 285.094 59.13 284.299 59.6194C283.496 60.195 282.39 60.0243 281.81 59.2353C281.131 58.5183 281.229 57.4843 282.033 56.9087Z" fill="#FFCB59"/>
<path d="M276.754 48.2436C275.786 48.0944 274.932 48.7063 274.846 49.6106C274.76 50.5148 275.474 51.3688 276.441 51.5181C277.408 51.6674 278.262 51.0554 278.349 50.1512C278.435 49.2469 277.721 48.3929 276.754 48.2436Z" fill="#FFCB59"/>
<path d="M268.804 40.1294C269.608 39.5535 270.715 39.7243 271.294 40.5138C271.966 41.3175 271.868 42.3522 271.072 42.8419C270.269 43.4178 269.162 43.247 268.582 42.4575C267.994 41.7543 268.101 40.6334 268.804 40.1294Z" fill="#FFCB59"/>
<path d="M262.288 31.7092C263.091 31.1337 264.197 31.3044 264.776 32.0933C265.448 32.8965 265.349 33.9306 264.554 34.42C263.751 34.9955 262.645 34.8248 262.066 34.0359C261.386 33.3189 261.485 32.2848 262.288 31.7092Z" fill="#FFCB59"/>
<path d="M255.668 23.3634C256.471 22.7874 257.578 22.9583 258.158 23.7477C258.829 24.5514 258.731 25.5861 257.935 26.0758C257.132 26.6517 256.025 26.4809 255.445 25.6915C254.866 24.902 254.964 23.8673 255.668 23.3634Z" fill="#FFCB59"/>
<path d="M250.39 14.7004C249.423 14.5511 248.569 15.1631 248.483 16.0674C248.396 16.9716 249.111 17.8256 250.078 17.9749C251.045 18.1242 251.899 17.5122 251.985 16.6079C252.072 15.7037 251.357 14.8497 250.39 14.7004Z" fill="#FFCB59"/>
<path d="M242.543 6.50979C243.346 5.93424 244.452 6.10495 245.032 6.8939C245.703 7.69707 245.605 8.73111 244.81 9.2205C244.007 9.79605 242.9 9.62534 242.321 8.83639C241.641 8.11939 241.74 7.08535 242.543 6.50979Z" fill="#FFCB59"/>
<path d="M235.923 -1.83609C236.727 -2.41202 237.833 -2.2412 238.413 -1.45174C239.085 -0.648051 238.986 0.386659 238.191 0.876358C237.387 1.45228 236.28 1.28146 235.701 0.492007C235.121 -0.297448 235.22 -1.33216 235.923 -1.83609Z" fill="#FFCB59"/>
<path d="M312.255 81.3517C311.287 81.2024 310.433 81.8144 310.347 82.7187C310.261 83.6229 310.975 84.4769 311.942 84.6262C312.909 84.7755 313.763 84.1635 313.85 83.2592C313.936 82.355 313.222 81.501 312.255 81.3517Z" fill="#FFCB59"/>
<path d="M304.406 73.1587C305.21 72.5828 306.316 72.7536 306.896 73.5431C307.568 74.3467 307.469 75.3815 306.674 75.8712C305.87 76.4471 304.763 76.2763 304.184 75.4868C303.596 74.7836 303.695 73.7489 304.406 73.1587Z" fill="#FFCB59"/>
<path d="M297.787 64.815C298.591 64.239 299.698 64.4099 300.277 65.1993C300.949 66.003 300.85 67.0377 300.055 67.5274C299.251 68.1033 298.145 67.9325 297.565 67.1431C296.985 66.3536 297.084 65.3189 297.787 64.815Z" fill="#FFCB59"/>
<path d="M292.51 56.152C291.543 56.0027 290.689 56.6147 290.602 57.519C290.516 58.4232 291.23 59.2772 292.197 59.4265C293.165 59.5758 294.019 58.9638 294.105 58.0595C294.191 57.1553 293.477 56.3013 292.51 56.152Z" fill="#FFCB59"/>
<path d="M284.662 47.9591C285.465 47.3833 286.572 47.5541 287.151 48.3433C287.823 49.1467 287.724 50.1811 286.929 50.6707C286.134 51.1602 285.02 51.0756 284.44 50.2864C283.852 49.5834 283.951 48.549 284.662 47.9591Z" fill="#FFCB59"/>
<path d="M279.384 39.2963C278.417 39.147 277.563 39.759 277.476 40.6632C277.39 41.5675 278.104 42.4215 279.071 42.5708C280.039 42.7201 280.893 42.1081 280.979 41.2038C281.065 40.2996 280.351 39.4456 279.384 39.2963Z" fill="#FFCB59"/>
<path d="M272.765 30.9526C271.798 30.8033 270.944 31.4153 270.858 32.3195C270.771 33.2237 271.486 34.0777 272.453 34.227C273.42 34.3763 274.274 33.7643 274.36 32.8601C274.447 31.9559 273.733 31.1018 272.765 30.9526Z" fill="#FFCB59"/>
<path d="M266.247 22.5302C265.28 22.381 264.426 22.993 264.34 23.8972C264.253 24.8014 264.967 25.6554 265.935 25.8047C266.902 25.954 267.756 25.342 267.842 24.4378C267.928 23.5336 267.214 22.6795 266.247 22.5302Z" fill="#FFCB59"/>
<path d="M258.389 14.429C259.192 13.8535 260.298 14.0242 260.878 14.8131C261.549 15.6163 261.451 16.6504 260.656 17.1397C259.853 17.7153 258.746 17.5446 258.167 16.7556C257.487 16.0386 257.594 14.9184 258.389 14.429Z" fill="#FFCB59"/>
<path d="M253.11 5.76394C252.143 5.61466 251.289 6.22666 251.203 7.13088C251.116 8.0351 251.83 8.88914 252.798 9.03842C253.765 9.1877 254.619 8.57569 254.705 7.67147C254.792 6.76725 254.077 5.91322 253.11 5.76394Z" fill="#FFCB59"/>
<path d="M245.161 -2.35025C245.965 -2.92618 247.071 -2.75536 247.651 -1.9659C248.323 -1.16221 248.224 -0.127501 247.429 0.362198C246.625 0.938123 245.519 0.7673 244.939 -0.0221552C244.359 -0.81161 244.458 -1.84632 245.161 -2.35025Z" fill="#FFCB59"/>
<path d="M322.185 80.3764C321.218 80.2271 320.364 80.8392 320.277 81.7434C320.191 82.6476 320.905 83.5016 321.872 83.6509C322.839 83.8002 323.693 83.1882 323.78 82.284C323.866 81.3797 323.152 80.5257 322.185 80.3764Z" fill="#FFCB59"/>
<path d="M314.327 72.2752C315.13 71.6997 316.236 71.8704 316.815 72.6593C317.487 73.4625 317.388 74.4966 316.593 74.9859C315.79 75.5615 314.684 75.3908 314.105 74.6018C313.425 73.8848 313.532 72.7646 314.327 72.2752Z" fill="#FFCB59"/>
<path d="M309.048 63.6101C308.081 63.4609 307.227 64.0729 307.14 64.9771C307.054 65.8813 307.768 66.7353 308.735 66.8846C309.703 67.0339 310.557 66.4219 310.643 65.5177C310.729 64.6135 310.015 63.7594 309.048 63.6101Z" fill="#FFCB59"/>
<path d="M302.44 55.177C301.473 55.0277 300.619 55.6397 300.533 56.5439C300.446 57.4481 301.16 58.3022 302.128 58.4514C303.095 58.6007 303.949 57.9887 304.035 57.0845C304.121 56.1803 303.407 55.3262 302.44 55.177Z" fill="#FFCB59"/>
<path d="M294.582 47.0758C295.385 46.5002 296.491 46.6709 297.071 47.4599C297.742 48.263 297.644 49.2971 296.849 49.7865C296.045 50.362 294.939 50.1913 294.36 49.4024C293.68 48.6854 293.787 47.5652 294.582 47.0758Z" fill="#FFCB59"/>
<path d="M287.973 38.6402C288.776 38.0643 289.883 38.2351 290.463 39.0246C291.135 39.8283 291.036 40.863 290.24 41.3527C289.437 41.9286 288.33 41.7578 287.75 40.9683C287.163 40.2651 287.261 39.2304 287.973 38.6402Z" fill="#FFCB59"/>
<path d="M282.695 29.9775C281.728 29.8282 280.874 30.4402 280.788 31.3445C280.702 32.2487 281.416 33.1027 282.383 33.252C283.35 33.4013 284.204 32.7893 284.29 31.885C284.377 30.9808 283.663 30.1268 282.695 29.9775Z" fill="#FFCB59"/>
<path d="M274.838 21.8763C275.641 21.3006 276.747 21.4714 277.327 22.2606C277.906 23.0498 277.9 24.0984 277.105 24.5879C276.301 25.1637 275.195 24.9929 274.615 24.2037C273.935 23.4865 274.034 22.4521 274.838 21.8763Z" fill="#FFCB59"/>
<path d="M269.558 13.2112C268.591 13.0619 267.737 13.6739 267.651 14.5781C267.565 15.4824 268.279 16.3364 269.246 16.4857C270.213 16.635 271.067 16.023 271.153 15.1187C271.24 14.2145 270.526 13.3605 269.558 13.2112Z" fill="#FFCB59"/>
<path d="M261.701 5.11001C262.504 4.53446 263.61 4.70517 264.189 5.49412C264.861 6.29729 264.762 7.33133 263.967 7.82072C263.164 8.39627 262.058 8.22556 261.478 7.43661C260.807 6.63344 260.906 5.5994 261.701 5.11001Z" fill="#FFCB59"/>
<path d="M255.093 -3.3234C255.896 -3.89895 257.002 -3.72824 257.581 -2.93929C258.253 -2.13612 258.154 -1.10208 257.359 -0.612694C256.556 -0.037139 255.45 -0.207851 254.871 -0.996797C254.191 -1.7138 254.29 -2.74784 255.093 -3.3234Z" fill="#FFCB59"/>
<path d="M330.092 80.0921C330.896 79.5161 332.003 79.687 332.582 80.4764C333.254 81.2801 333.156 82.3148 332.36 82.8045C331.557 83.3804 330.45 83.2096 329.87 82.4202C329.282 81.7169 329.381 80.6822 330.092 80.0921Z" fill="#FFCB59"/>
<path d="M323.565 71.7611C324.368 71.1855 325.474 71.3562 326.054 72.1452C326.725 72.9484 326.626 73.9824 325.831 74.4718C325.028 75.0473 323.922 74.8766 323.343 74.0877C322.671 73.2845 322.77 72.2505 323.565 71.7611Z" fill="#FFCB59"/>
<path d="M316.956 63.3258C317.759 62.7498 318.866 62.9207 319.445 63.7101C320.117 64.5138 320.019 65.5485 319.223 66.0382C318.42 66.6141 317.313 66.4433 316.733 65.6539C316.145 64.9506 316.244 63.9159 316.956 63.3258Z" fill="#FFCB59"/>
<path d="M310.438 54.9043C311.241 54.3286 312.348 54.4993 312.927 55.2885C313.599 56.092 313.5 57.1263 312.705 57.6159C311.902 58.1916 310.796 58.0208 310.216 57.2316C309.636 56.4425 309.635 55.4801 310.438 54.9043Z" fill="#FFCB59"/>
<path d="M303.819 46.5606C304.623 45.9848 305.729 46.1556 306.309 46.9448C306.98 47.7482 306.882 48.7826 306.087 49.2721C305.283 49.8479 304.177 49.6771 303.597 48.8879C303.018 48.0987 303.024 47.0501 303.819 46.5606Z" fill="#FFCB59"/>
<path d="M298.541 37.8968C297.574 37.7475 296.72 38.3595 296.634 39.2637C296.547 40.1679 297.262 41.022 298.229 41.1712C299.196 41.3205 300.05 40.7085 300.136 39.8043C300.223 38.9001 299.509 38.046 298.541 37.8968Z" fill="#FFCB59"/>
<path d="M290.683 29.7956C291.486 29.22 292.593 29.3907 293.172 30.1797C293.844 30.9828 293.745 32.0169 292.95 32.5063C292.147 33.0818 291.041 32.9111 290.461 32.1222C289.79 31.319 289.888 30.2849 290.683 29.7956Z" fill="#FFCB59"/>
<path d="M285.404 21.1305C284.437 20.9812 283.583 21.5932 283.497 22.4974C283.411 23.4016 284.125 24.2557 285.092 24.4049C286.059 24.5542 286.913 23.9422 286.999 23.038C287.086 22.1338 286.372 21.2797 285.404 21.1305Z" fill="#FFCB59"/>
<path d="M278.797 12.697C277.829 12.5478 276.975 13.1598 276.889 14.064C276.803 14.9682 277.517 15.8222 278.484 15.9715C279.451 16.1208 280.305 15.5088 280.392 14.6046C280.478 13.7004 279.764 12.8463 278.797 12.697Z" fill="#FFCB59"/>
<path d="M272.189 4.26388C271.222 4.1146 270.368 4.7266 270.281 5.63082C270.195 6.53504 270.909 7.38908 271.876 7.53836C272.844 7.68764 273.698 7.07563 273.784 6.17141C273.87 5.26719 273.156 4.41316 272.189 4.26388Z" fill="#FFCB59"/>
<path d="M340.013 79.2063C340.816 78.6304 341.923 78.8012 342.503 79.5907C343.082 80.3801 343.076 81.4291 342.28 81.9188C341.485 82.4085 340.37 82.3239 339.79 81.5344C339.202 80.8312 339.309 79.7102 340.013 79.2063Z" fill="#FFCB59"/>
<path d="M333.405 70.7728C334.208 70.1971 335.314 70.3679 335.894 71.1571C336.566 71.9605 336.467 72.9949 335.672 73.4844C334.877 73.974 333.762 73.8894 333.183 73.1002C332.595 72.3972 332.693 71.3628 333.405 70.7728Z" fill="#FFCB59"/>
<path d="M326.876 62.4423C327.679 61.8667 328.786 62.0375 329.365 62.8264C330.037 63.6296 329.938 64.6636 329.143 65.153C328.34 65.7285 327.234 65.5578 326.654 64.7689C325.983 63.9657 326.081 62.9317 326.876 62.4423Z" fill="#FFCB59"/>
<path d="M321.597 53.7772C320.63 53.6279 319.776 54.2399 319.69 55.1441C319.604 56.0484 320.318 56.9024 321.285 57.0517C322.252 57.2009 323.106 56.5889 323.192 55.6847C323.279 54.7805 322.565 53.9265 321.597 53.7772Z" fill="#FFCB59"/>
<path d="M314.99 45.344C314.022 45.1947 313.168 45.8067 313.082 46.711C312.996 47.6152 313.71 48.4692 314.677 48.6185C315.644 48.7678 316.498 48.1558 316.585 47.2515C316.671 46.3473 315.957 45.4933 314.99 45.344Z" fill="#FFCB59"/>
<path d="M308.382 36.9106C307.415 36.7613 306.561 37.3733 306.474 38.2776C306.388 39.1818 307.102 40.0358 308.069 40.1851C309.037 40.3344 309.891 39.7224 309.977 38.8182C310.063 37.9139 309.349 37.0599 308.382 36.9106Z" fill="#FFCB59"/>
<path d="M300.522 28.8073C301.326 28.2314 302.432 28.4022 303.012 29.1916C303.684 29.9953 303.585 31.03 302.79 31.5197C301.986 32.0957 300.88 31.9248 300.3 31.1354C299.712 30.4321 299.811 29.3974 300.522 28.8073Z" fill="#FFCB59"/>
<path d="M293.995 20.4765C294.798 19.901 295.904 20.0717 296.483 20.8606C297.155 21.6638 297.056 22.6978 296.261 23.1872C295.458 23.7628 294.352 23.5921 293.773 22.8031C293.101 22 293.2 20.9659 293.995 20.4765Z" fill="#FFCB59"/>
<path d="M288.727 11.722C287.76 11.5727 286.905 12.1847 286.819 13.0889C286.733 13.9932 287.447 14.8472 288.414 14.9965C289.381 15.1458 290.235 14.5338 290.322 13.6295C290.408 12.7253 289.694 11.8713 288.727 11.722Z" fill="#FFCB59"/>
<path d="M280.779 3.60767C281.582 3.03174 282.689 3.20257 283.268 3.99203C283.848 4.78149 283.842 5.83044 283.046 6.32014C282.251 6.80984 281.136 6.72524 280.556 5.93578C279.968 5.23255 280.067 4.19784 280.779 3.60767Z" fill="#FFCB59"/>
<path d="M343.972 70.0293C343.005 69.8801 342.151 70.4921 342.065 71.3963C341.979 72.3005 342.693 73.1545 343.66 73.3038C344.627 73.4531 345.481 72.8411 345.567 71.9369C345.654 71.0326 344.94 70.1786 343.972 70.0293Z" fill="#FFCB59"/>
<path d="M336.114 61.9281C336.918 61.3526 338.024 61.5233 338.603 62.3122C339.275 63.1154 339.176 64.1494 338.381 64.6388C337.578 65.2144 336.472 65.0437 335.892 64.2547C335.221 63.4516 335.32 62.4175 336.114 61.9281Z" fill="#FFCB59"/>
<path d="M330.836 53.2633C329.868 53.114 329.014 53.726 328.928 54.6302C328.842 55.5344 329.556 56.3885 330.523 56.5377C331.49 56.687 332.344 56.075 332.431 55.1708C332.517 54.2666 331.803 53.4125 330.836 53.2633Z" fill="#FFCB59"/>
<path d="M322.988 45.0724C323.792 44.4969 324.898 44.6676 325.477 45.4565C326.149 46.2597 326.05 47.2937 325.255 47.7831C324.452 48.3587 323.346 48.188 322.766 47.399C322.087 46.682 322.185 45.648 322.988 45.0724Z" fill="#FFCB59"/>
<path d="M316.368 36.7265C317.172 36.1506 318.278 36.3214 318.858 37.1109C319.53 37.9146 319.431 38.9493 318.636 39.439C317.832 40.0149 316.726 39.8441 316.146 39.0546C315.566 38.2652 315.665 37.2305 316.368 36.7265Z" fill="#FFCB59"/>
<path d="M311.091 28.0636C310.124 27.9143 309.27 28.5263 309.183 29.4305C309.097 30.3347 309.811 31.1888 310.778 31.338C311.746 31.4873 312.6 30.8753 312.686 29.9711C312.772 29.0669 312.058 28.2128 311.091 28.0636Z" fill="#FFCB59"/>
<path d="M304.483 19.6304C303.516 19.4811 302.662 20.0931 302.576 20.9973C302.489 21.9016 303.203 22.7556 304.171 22.9049C305.138 23.0542 305.992 22.4422 306.078 21.5379C306.164 20.6337 305.45 19.7797 304.483 19.6304Z" fill="#FFCB59"/>
<path d="M296.623 11.5271C297.427 10.9511 298.534 11.122 299.113 11.9114C299.785 12.7151 299.687 13.7498 298.891 14.2395C298.088 14.8154 296.981 14.6446 296.401 13.8552C295.822 13.0657 295.92 12.031 296.623 11.5271Z" fill="#FFCB59"/>
<path d="M290.107 3.10666C290.91 2.5311 292.016 2.70181 292.595 3.49076C293.267 4.29393 293.168 5.32798 292.373 5.81736C291.57 6.39291 290.464 6.2222 289.885 5.43326C289.205 4.71625 289.304 3.68221 290.107 3.10666Z" fill="#FFCB59"/>
<path d="M352.562 69.3731C353.365 68.7973 354.472 68.9681 355.051 69.7573C355.723 70.5607 355.624 71.5951 354.829 72.0847C354.034 72.5742 352.919 72.4896 352.34 71.7004C351.76 70.9112 351.859 69.8768 352.562 69.3731Z" fill="#FFCB59"/>
<path d="M346.045 60.9529C346.848 60.3775 347.954 60.5482 348.533 61.3369C349.205 62.1398 349.106 63.1735 348.311 63.6627C347.517 64.152 346.403 64.0674 345.823 63.2788C345.144 62.562 345.242 61.5283 346.045 60.9529Z" fill="#FFCB59"/>
<path d="M340.766 52.288C339.798 52.1387 338.944 52.7507 338.858 53.6549C338.772 54.5591 339.486 55.4132 340.453 55.5625C341.42 55.7117 342.274 55.0997 342.361 54.1955C342.447 53.2913 341.733 52.4373 340.766 52.288Z" fill="#FFCB59"/>
<path d="M334.158 43.8547C333.191 43.7054 332.337 44.3174 332.25 45.2216C332.164 46.1258 332.878 46.9798 333.845 47.1291C334.813 47.2784 335.667 46.6664 335.753 45.7622C335.839 44.858 335.125 44.0039 334.158 43.8547Z" fill="#FFCB59"/>
<path d="M327.539 35.5109C326.572 35.3616 325.718 35.9736 325.632 36.8778C325.545 37.7821 326.259 38.6361 327.227 38.7854C328.194 38.9346 329.048 38.3226 329.134 37.4184C329.22 36.5142 328.506 35.6602 327.539 35.5109Z" fill="#FFCB59"/>
<path d="M321.021 27.0885C320.054 26.9392 319.2 27.5513 319.113 28.4555C319.027 29.3597 319.741 30.2137 320.708 30.363C321.676 30.5123 322.53 29.9003 322.616 28.9961C322.702 28.0918 321.988 27.2378 321.021 27.0885Z" fill="#FFCB59"/>
<path d="M313.072 18.9743C313.875 18.3984 314.982 18.5692 315.562 19.3587C316.234 20.1624 316.135 21.1971 315.34 21.6868C314.536 22.2627 313.429 22.0919 312.85 21.3024C312.262 20.5992 312.369 19.4783 313.072 18.9743Z" fill="#FFCB59"/>
<path d="M306.555 10.5539C307.358 9.97837 308.464 10.1491 309.044 10.938C309.715 11.7412 309.617 12.7752 308.822 13.2646C308.019 13.8402 306.912 13.6695 306.333 12.8805C305.653 12.1635 305.752 11.1295 306.555 10.5539Z" fill="#FFCB59"/>
<path d="M301.276 1.88906C300.309 1.73978 299.455 2.35178 299.369 3.256C299.282 4.16022 299.997 5.01426 300.964 5.16354C301.931 5.31282 302.785 4.70081 302.871 3.79659C302.958 2.89237 302.243 2.03834 301.276 1.88906Z" fill="#FFCB59"/>
<path d="M355.283 60.4389C356.086 59.8634 357.192 60.0341 357.771 60.823C358.443 61.6262 358.344 62.6603 357.549 63.1496C356.746 63.7252 355.64 63.5545 355.061 62.7655C354.381 62.0485 354.48 61.0145 355.283 60.4389Z" fill="#FFCB59"/>
<path d="M350.004 51.7739C349.037 51.6246 348.183 52.2366 348.096 53.1408C348.01 54.0451 348.724 54.8991 349.691 55.0484C350.658 55.1976 351.512 54.5857 351.599 53.6814C351.685 52.7772 350.971 51.9232 350.004 51.7739Z" fill="#FFCB59"/>
<path d="M342.146 43.6726C342.949 43.0971 344.055 43.2678 344.634 44.0567C345.306 44.8599 345.207 45.894 344.412 46.3833C343.609 46.9589 342.503 46.7882 341.924 45.9992C341.252 45.1961 341.351 44.162 342.146 43.6726Z" fill="#FFCB59"/>
<path d="M335.538 35.2395C336.341 34.6639 337.447 34.8346 338.027 35.6236C338.698 36.4267 338.6 37.4608 337.805 37.9502C337.001 38.5257 335.895 38.355 335.316 37.5661C334.636 36.8491 334.735 35.815 335.538 35.2395Z" fill="#FFCB59"/>
<path d="M328.918 26.8936C329.721 26.3177 330.828 26.4885 331.408 27.2779C332.08 28.0816 331.981 29.1163 331.185 29.606C330.382 30.182 329.275 30.0111 328.696 29.2217C328.116 28.4322 328.215 27.3975 328.918 26.8936Z" fill="#FFCB59"/>
<path d="M322.401 18.4732C323.204 17.8976 324.31 18.0683 324.89 18.8573C325.561 19.6604 325.463 20.6945 324.668 21.1839C323.865 21.7594 322.758 21.5887 322.179 20.7998C321.499 20.0828 321.606 18.9626 322.401 18.4732Z" fill="#FFCB59"/>
<path d="M317.122 9.80831C316.155 9.65903 315.301 10.271 315.215 11.1753C315.128 12.0795 315.842 12.9335 316.81 13.0828C317.777 13.2321 318.631 12.6201 318.717 11.7159C318.804 10.8116 318.089 9.95759 317.122 9.80831Z" fill="#FFCB59"/>
<path d="M310.514 1.3749C309.547 1.22562 308.693 1.83762 308.607 2.74184C308.521 3.64606 309.235 4.5001 310.202 4.64938C311.169 4.79866 312.023 4.18665 312.109 3.28243C312.196 2.37821 311.482 1.52418 310.514 1.3749Z" fill="#FFCB59"/>
<path d="M359.833 50.8773C358.866 50.7281 358.012 51.3401 357.926 52.2443C357.84 53.1485 358.554 54.0025 359.521 54.1518C360.488 54.3011 361.342 53.6891 361.428 52.7849C361.515 51.8807 360.801 51.0266 359.833 50.8773Z" fill="#FFCB59"/>
<path d="M351.985 42.6846C352.788 42.1087 353.895 42.2795 354.475 43.069C355.147 43.8726 355.048 44.9073 354.252 45.397C353.449 45.973 352.342 45.8022 351.763 45.0127C351.175 44.3095 351.273 43.2748 351.985 42.6846Z" fill="#FFCB59"/>
<path d="M346.707 34.0216C345.74 33.8724 344.886 34.4844 344.8 35.3886C344.714 36.2928 345.428 37.1468 346.395 37.2961C347.362 37.4454 348.216 36.8334 348.302 35.9292C348.389 35.025 347.675 34.1709 346.707 34.0216Z" fill="#FFCB59"/>
<path d="M340.089 25.6779C339.122 25.5286 338.268 26.1406 338.181 27.0448C338.095 27.949 338.809 28.8031 339.776 28.9524C340.743 29.1016 341.597 28.4896 341.684 27.5854C341.77 26.6812 341.056 25.8272 340.089 25.6779Z" fill="#FFCB59"/>
<path d="M332.24 17.4851C333.044 16.9092 334.15 17.08 334.73 17.8695C335.402 18.6732 335.303 19.7079 334.508 20.1976C333.704 20.7735 332.598 20.6027 332.018 19.8132C331.43 19.11 331.529 18.0753 332.24 17.4851Z" fill="#FFCB59"/>
<path d="M325.713 9.15439C326.516 8.57883 327.622 8.74954 328.201 9.53849C328.873 10.3417 328.774 11.3757 327.979 11.8651C327.176 12.4406 326.07 12.2699 325.49 11.481C324.819 10.6778 324.918 9.64377 325.713 9.15439Z" fill="#FFCB59"/>
<path d="M320.434 0.489283C319.466 0.340004 318.612 0.952014 318.526 1.85624C318.44 2.76046 319.154 3.61448 320.121 3.76376C321.088 3.91304 321.942 3.30105 322.029 2.39682C322.115 1.4926 321.401 0.638563 320.434 0.489283Z" fill="#FFCB59"/>
<path d="M354.695 33.8397C355.499 33.2641 356.605 33.4348 357.184 34.2238C357.856 35.027 357.757 36.061 356.962 36.5504C356.159 37.1259 355.053 36.9552 354.473 36.1663C353.802 35.3631 353.9 34.3291 354.695 33.8397Z" fill="#FFCB59"/>
<path d="M349.416 25.1748C348.449 25.0255 347.595 25.6375 347.509 26.5418C347.423 27.446 348.137 28.3 349.104 28.4493C350.071 28.5986 350.925 27.9866 351.011 27.0824C351.098 26.1781 350.384 25.3241 349.416 25.1748Z" fill="#FFCB59"/>
<path d="M342.809 16.7414C341.841 16.5922 340.987 17.2041 340.901 18.1084C340.815 19.0126 341.529 19.8666 342.496 20.0159C343.463 20.1652 344.317 19.5532 344.404 18.649C344.49 17.7447 343.776 16.8907 342.809 16.7414Z" fill="#FFCB59"/>
<path d="M336.201 8.30807C335.234 8.15879 334.38 8.7708 334.293 9.67502C334.207 10.5792 334.921 11.4333 335.888 11.5825C336.856 11.7318 337.71 11.1198 337.796 10.2156C337.882 9.31139 337.168 8.45735 336.201 8.30807Z" fill="#FFCB59"/>
<path d="M328.341 0.204664C329.145 -0.371261 330.251 -0.200437 330.831 0.589018C331.503 1.39271 331.404 2.42743 330.609 2.91713C329.805 3.49305 328.699 3.32223 328.119 2.53278C327.531 1.82955 327.63 0.794825 328.341 0.204664Z" fill="#FFCB59"/>
</g>
<path d="M383.547 -222.098C394.089 -230.357 409.399 -228.499 417.748 -217.947L609.295 26.5188C617.555 37.0605 615.697 52.3701 605.144 60.7194C594.602 68.9791 579.293 67.121 570.943 56.5685L379.397 -187.897C371.148 -198.528 373.006 -213.838 383.547 -222.098Z" stroke="#FBC61E" stroke-miterlimit="10"/>
<path d="M-12.4835 -128.094C-1.94191 -136.354 13.3678 -134.495 21.717 -123.943L213.264 120.523C221.524 131.064 219.666 146.374 209.113 154.723C198.571 162.983 183.262 161.125 174.913 150.572L-16.6344 -93.8933C-24.8833 -104.524 -23.0252 -119.834 -12.4835 -128.094Z" stroke="#FBC61E" stroke-miterlimit="10"/>
<path d="M440.54 75.0557C441.945 73.9544 444.005 74.2043 445.106 75.6098L545.785 204.207C546.886 205.612 546.636 207.672 545.231 208.773C543.825 209.874 541.766 209.624 540.665 208.219L439.896 79.6108C438.884 78.2161 439.134 76.1569 440.54 75.0557Z" fill="url(#paint5_linear)"/>
</g>
<defs>
<linearGradient id="paint0_linear" x1="284.269" y1="-151.622" x2="468.087" y2="80.09" gradientUnits="userSpaceOnUse">
<stop stop-color="white" stop-opacity="0"/>
<stop offset="0.124" stop-color="white" stop-opacity="0.1"/>
<stop offset="0.3615" stop-color="#FFCB59" stop-opacity="0.35"/>
<stop offset="0.6849" stop-color="#FFCB59" stop-opacity="0.66"/>
<stop offset="1" stop-color="#FFCB59"/>
</linearGradient>
<linearGradient id="paint1_linear" x1="-67.7302" y1="-151.042" x2="116.088" y2="80.6698" gradientUnits="userSpaceOnUse">
<stop stop-color="white" stop-opacity="0"/>
<stop offset="0.124" stop-color="white" stop-opacity="0.1"/>
<stop offset="0.3615" stop-color="#FFCB59" stop-opacity="0.35"/>
<stop offset="0.6849" stop-color="#FFCB59" stop-opacity="0.66"/>
<stop offset="1" stop-color="#FFCB59"/>
</linearGradient>
<linearGradient id="paint2_linear" x1="171.797" y1="24.7058" x2="272.451" y2="151.547" gradientUnits="userSpaceOnUse">
<stop stop-color="white" stop-opacity="0"/>
<stop offset="0.124" stop-color="white" stop-opacity="0.1"/>
<stop offset="0.3615" stop-color="#FFCB59" stop-opacity="0.35"/>
<stop offset="0.6849" stop-color="#FFCB59" stop-opacity="0.66"/>
<stop offset="1" stop-color="#FFCB59"/>
</linearGradient>
<linearGradient id="paint3_linear" x1="464.955" y1="-6.43367" x2="565.6" y2="120.481" gradientUnits="userSpaceOnUse">
<stop stop-color="white" stop-opacity="0"/>
<stop offset="0.124" stop-color="white" stop-opacity="0.1"/>
<stop offset="0.3615" stop-color="#FFCB59" stop-opacity="0.35"/>
<stop offset="0.6849" stop-color="#FFCB59" stop-opacity="0.66"/>
<stop offset="1" stop-color="#FFCB59"/>
</linearGradient>
<linearGradient id="paint4_linear" x1="367.799" y1="77.7062" x2="468.445" y2="204.621" gradientUnits="userSpaceOnUse">
<stop stop-color="white" stop-opacity="0"/>
<stop offset="0.124" stop-color="white" stop-opacity="0.1"/>
<stop offset="0.3615" stop-color="#FFCB59" stop-opacity="0.35"/>
<stop offset="0.6849" stop-color="#FFCB59" stop-opacity="0.66"/>
<stop offset="1" stop-color="#FFCB59"/>
</linearGradient>
<linearGradient id="paint5_linear" x1="442.797" y1="78.706" x2="543.451" y2="205.547" gradientUnits="userSpaceOnUse">
<stop stop-color="white" stop-opacity="0"/>
<stop offset="0.124" stop-color="white" stop-opacity="0.1"/>
<stop offset="0.3615" stop-color="#FFDE7E" stop-opacity="0.35"/>
<stop offset="0.6849" stop-color="#FFCB59" stop-opacity="0.66"/>
<stop offset="1" stop-color="#FFCB59"/>
</linearGradient>
<clipPath id="clip0">
<rect width="511.872" height="211" fill="white"/>
</clipPath>
</defs>
</svg>
