<svg width="36" height="36" viewBox="0 0 36 36" fill="none" xmlns="http://www.w3.org/2000/svg">
<path d="M22.9091 16.3636H26.1818V24.5455H22.9091V16.3636Z" fill="white" fill-opacity="0.8"/>
<path fill-rule="evenodd" clip-rule="evenodd" d="M13.9091 1.63636C13.9091 0.732625 13.1765 0 12.2727 0C11.369 0 10.6364 0.732625 10.6364 1.63636V3.27273H1.63636C0.732625 3.27273 0 4.00535 0 4.90909V34.3636C0 35.2674 0.732625 36 1.63636 36H34.3636C35.2674 36 36 35.2674 36 34.3636V4.90909C36 4.00535 35.2674 3.27273 34.3636 3.27273H25.3636V1.63636C25.3636 0.732625 24.631 0 23.7273 0C22.8235 0 22.0909 0.732625 22.0909 1.63636V3.27273H13.9091V1.63636ZM8.18182 13.0909C7.27808 13.0909 6.54545 13.8235 6.54545 14.7273C6.54545 15.631 7.27808 16.3636 8.18182 16.3636H13.0909V18.8182H9.81818C8.91444 18.8182 8.18182 19.5508 8.18182 20.4545C8.18182 21.3583 8.91444 22.0909 9.81818 22.0909H13.0909V24.5455H8.18182C7.27808 24.5455 6.54545 25.2781 6.54545 26.1818C6.54545 27.0856 7.27808 27.8182 8.18182 27.8182H14.7273C15.631 27.8182 16.3636 27.0856 16.3636 26.1818V14.7273C16.3636 13.8235 15.631 13.0909 14.7273 13.0909H8.18182ZM21.2727 13.0909C20.369 13.0909 19.6364 13.8235 19.6364 14.7273V26.1818C19.6364 27.0856 20.369 27.8182 21.2727 27.8182H27.8182C28.7219 27.8182 29.4545 27.0856 29.4545 26.1818V14.7273C29.4545 13.8235 28.7219 13.0909 27.8182 13.0909H21.2727Z" fill="white" fill-opacity="0.8"/>
</svg>
