<svg width="36" height="36" viewBox="0 0 36 36" fill="none" xmlns="http://www.w3.org/2000/svg">
<path d="M19.6364 13.0909C19.6364 12.1872 18.9037 11.4545 18 11.4545C17.0963 11.4545 16.3636 12.1872 16.3636 13.0909V18C16.3636 18.434 16.536 18.8502 16.8429 19.1571L20.1156 22.4298C20.7547 23.0689 21.7908 23.0689 22.4298 22.4298C23.0689 21.7908 23.0689 20.7547 22.4298 20.1156L19.6364 17.3222V13.0909Z" fill="white" fill-opacity="0.8"/>
<path fill-rule="evenodd" clip-rule="evenodd" d="M18 0C8.07441 0 0 7.97018 0 17.8364V34.3636C0 35.2674 0.732625 36 1.63636 36H34.3636C35.2674 36 36 35.2674 36 34.3636V17.8364C36 7.97018 27.9256 0 18 0ZM18 6.54545C11.6738 6.54545 6.54545 11.6738 6.54545 18C6.54545 24.3262 11.6738 29.4545 18 29.4545C24.3262 29.4545 29.4545 24.3262 29.4545 18C29.4545 11.6738 24.3262 6.54545 18 6.54545Z" fill="white" fill-opacity="0.8"/>
</svg>
