<svg width="102" height="88" viewBox="0 0 102 88" fill="none" xmlns="http://www.w3.org/2000/svg">
<path d="M64.6551 76.3127C44.03 76.3127 27.3102 59.2295 27.3102 38.1563C27.3102 17.0832 44.03 0 64.6551 0C85.2801 0 102 17.0832 102 38.1563C102 59.2295 85.2801 76.3127 64.6551 76.3127Z" fill="#FFCB59"/>
<path d="M0.4627 64.8926C0.635323 64.7162 0.923035 64.5986 1.32583 64.5398C1.44092 64.5398 1.61356 64.481 1.78618 64.481C1.95881 64.481 2.07388 64.481 2.24651 64.4222H2.41915C2.47669 64.4222 2.53423 64.4222 2.59177 64.4222C2.70686 64.4222 2.76439 64.4222 2.82193 64.3634C2.93702 64.3047 3.05211 64.0695 3.16719 63.8343C3.33981 63.4228 3.56998 62.8348 3.8577 61.8942C4.14541 61.0123 4.49066 59.8364 4.951 58.1902C5.29626 56.8968 5.75659 55.3094 6.21693 53.6044C6.73481 51.6643 7.31023 49.5477 7.88566 47.3724C8.57616 44.8443 9.26667 42.2575 9.89964 39.847C10.6477 37.1425 11.3382 34.4968 11.9136 32.3215C12.3164 30.6753 12.7192 29.2643 13.0069 28.0885C13.2946 26.9126 13.4673 26.1483 13.5248 25.5604C13.5823 25.0312 13.5823 24.7373 13.5248 24.5021C13.4673 24.3845 13.4097 24.2669 13.2946 24.2081C12.5466 23.7966 10.6477 23.9142 9.49684 23.973C9.32422 23.973 9.15159 23.973 8.97897 23.973C8.346 23.973 7.9432 23.973 7.65549 23.7966C7.31024 23.5614 7.31024 23.2675 7.2527 22.8559V22.7383C6.90745 22.7383 6.67727 22.6795 6.38956 22.6795C6.0443 22.6207 5.75659 22.6207 5.52643 22.562C5.00854 22.4444 4.60575 22.3268 4.37558 22.0916C4.08787 21.8564 4.03033 21.5037 4.08787 21.1509L4.37558 21.2097L4.14541 21.0333C4.20295 20.857 4.37557 20.6218 4.5482 20.4454C4.72083 20.269 4.951 20.1515 5.23872 20.0339C5.46889 19.9163 5.75659 19.8575 6.0443 19.7987C6.33202 19.7399 6.56219 19.7987 6.79236 19.8575L6.96499 19.9163C7.19515 19.9751 7.36778 20.1515 7.54041 20.3278C7.71304 20.5042 7.82811 20.6806 8.00074 20.9158C8.05828 21.0333 8.11583 21.1509 8.17337 21.3273C8.17337 21.3861 8.23091 21.4449 8.23091 21.5037C8.80634 21.5037 9.4393 21.5037 10.1873 21.5037C11.4533 21.5037 13.0645 21.4449 15.2511 21.3273C17.15 21.2097 19.2215 21.1509 21.293 21.0333C22.674 20.9746 24.1126 20.857 25.4936 20.7982C26.8746 20.7394 28.1405 20.6806 29.3489 20.6218L31.8808 20.5042C33.4344 20.4454 34.7003 20.3866 35.8512 20.3278C36.7143 20.269 37.4624 20.2103 38.0378 20.0927C37.9803 20.0339 37.9803 19.9163 37.9227 19.8575C37.8076 19.6223 37.7501 19.3284 37.6925 18.9168C37.635 18.5641 37.635 18.1525 37.6925 17.741C37.7501 17.3294 37.8076 16.9179 37.8652 16.5651C37.9803 16.1536 38.0953 15.8008 38.268 15.5068C38.4406 15.1541 38.6132 14.9189 38.8434 14.625C38.9585 14.4486 39.1311 14.331 39.3037 14.2134C39.4764 14.0958 39.649 13.9782 39.8216 13.9195C40.0518 13.8019 40.2244 13.7431 40.4546 13.6843C40.6847 13.6255 40.8574 13.6255 41.0875 13.6255C41.3177 13.6255 41.5479 13.6843 41.778 13.7431C42.0082 13.8019 42.1808 13.9782 42.3535 14.0958C42.4686 14.1546 42.5261 14.2722 42.5836 14.3898C42.6412 14.5074 42.6987 14.625 42.7563 14.7425C42.9289 15.1541 43.044 15.6832 43.044 16.2712C43.044 16.8003 42.9289 17.3882 42.7563 17.9173C42.5836 18.4465 42.2959 18.9168 42.0082 19.3284C41.7205 19.7399 41.3752 20.0339 40.9725 20.3278C41.2026 20.3866 41.4328 20.3866 41.7205 20.4454C42.5261 20.563 43.6194 20.6218 45.173 20.6806C46.4965 20.7394 47.9926 20.7982 49.5462 20.7982L51.4451 20.857C52.0781 20.857 52.7111 20.9158 53.344 20.9158C54.5524 20.9746 55.7033 21.0333 56.739 21.0921C57.7748 21.1509 58.753 21.2097 59.5586 21.3273C60.4217 21.3861 61.1698 21.5037 61.8027 21.6213C62.4357 21.7389 62.9536 21.8564 63.4139 21.974C63.7592 22.0916 63.9893 22.1504 64.162 22.268C64.3346 22.3856 64.5072 22.5032 64.6223 22.6207C66.0609 22.6207 67.557 22.6207 68.8804 22.6207C70.2039 22.6207 71.2972 22.562 72.1603 22.5032C72.1603 22.5032 72.1603 22.5032 72.1603 22.4444C72.1603 22.268 72.1603 22.0916 72.1603 21.974C72.1603 21.7389 72.2179 21.5037 72.2754 21.3273C72.333 21.0921 72.4481 20.9158 72.5631 20.7394C72.6782 20.563 72.8509 20.4454 73.081 20.3278C73.2536 20.2103 73.4838 20.1515 73.714 20.0927C73.9442 20.0339 74.1743 20.0339 74.462 20.0339C74.7497 20.0339 74.9799 20.0927 75.2101 20.1515C75.4403 20.2103 75.728 20.3278 75.9006 20.3866C76.1308 20.5042 76.3034 20.6218 76.476 20.7982C76.5911 20.9158 76.6486 21.0333 76.7062 21.1509C76.7637 21.2685 76.8213 21.4449 76.8213 21.5625C76.8213 21.6801 76.8213 21.7976 76.8213 21.8564C76.8213 21.974 76.7637 22.0916 76.7637 22.1504C76.7062 22.268 76.7062 22.3268 76.5911 22.4444C76.5336 22.5032 76.476 22.562 76.4185 22.6795C76.4185 22.6795 76.4185 22.7383 76.3609 22.7383C76.1308 22.9735 75.8431 23.1499 75.4403 23.2675C75.095 23.385 74.6347 23.5026 74.1743 23.6202C74.0017 23.6202 73.8291 23.679 73.6564 23.679C73.5989 23.679 73.5414 23.679 73.4263 23.679C73.4263 23.7378 73.4263 23.7378 73.4263 23.7966C73.4263 23.973 73.3687 24.1494 73.3112 24.3257C73.1961 24.5609 73.081 24.7373 72.9084 24.9137C72.7358 25.0312 72.5056 25.1488 72.2179 25.2076C71.9877 25.2664 71.7575 25.3252 71.4698 25.3252C71.067 25.384 70.6067 25.384 69.9162 25.3252H69.1681C68.1899 25.3252 67.2117 25.2664 66.6938 25.3252H66.6363C66.6363 25.384 66.6363 25.5016 66.6363 25.7367C66.6938 26.1483 66.8089 26.795 67.0966 27.7945C67.3268 28.6764 67.6145 29.7934 68.1899 31.6748C68.8229 33.8501 69.6285 36.6722 70.5492 39.7882C71.4123 42.7278 72.333 45.9026 73.1961 48.901L73.4263 49.6065C74.347 52.6637 75.1525 55.4858 75.7855 57.6023C76.3034 59.2485 76.6486 60.5419 76.8788 61.4826C77.109 62.5409 77.2241 63.2464 77.1665 63.7167C77.109 64.2459 76.9364 64.5986 76.6486 64.8338C77.2816 64.8338 77.7995 64.8338 78.2023 64.8338C79.123 64.8338 79.5833 64.9514 79.871 65.1865C80.1587 65.4805 80.2163 65.7745 80.1587 65.9508C80.1012 66.186 79.9861 66.4212 79.7559 66.6564C79.4682 67.0091 79.0079 67.4207 78.4325 67.8322C77.9146 68.2438 77.2816 68.6553 76.6486 69.0081C76.0157 69.3608 75.3827 69.6548 74.6922 69.9487C74.0592 70.2427 73.3687 70.4779 72.6782 70.6542C71.8726 70.8894 71.0095 71.0658 70.0888 71.1834C69.1682 71.301 68.1899 71.3598 67.2117 71.3598C66.2335 71.3598 65.1977 71.301 64.162 71.2422C63.1262 71.1246 62.0905 71.007 61.1122 70.7718C60.3066 70.5955 59.5011 70.4191 58.6955 70.1839C57.8899 69.9487 57.0267 69.6548 56.2211 69.3608C55.4156 69.0668 54.61 68.7141 53.8619 68.3613C53.1139 68.0086 52.4234 67.6558 51.9055 67.3619C51.3876 67.0679 51.0423 66.7739 50.7546 66.5388C50.4094 66.2448 50.2943 65.892 50.2368 65.5981C50.2368 65.3041 50.2943 64.9514 50.7546 64.6574C51.0423 64.481 51.4451 64.3046 52.0206 64.2459C52.1932 64.1871 52.4234 64.1871 52.6535 64.1283C52.7686 64.1283 52.9412 64.0695 53.0563 64.0695V64.0107C53.1139 63.4228 53.2289 62.6585 53.4591 61.7178C53.6893 60.6007 54.0345 59.3073 54.4373 57.6023C54.7826 56.1913 55.2429 54.5451 55.7033 52.7225C56.2211 50.6648 56.8541 48.4895 57.4871 46.2553C58.2351 43.6685 58.9832 40.9052 59.6737 38.3771C60.5368 35.3787 61.3424 32.6155 61.9178 30.4402L62.148 29.5583C62.7234 27.5593 63.1262 26.0895 63.3564 25.09C63.529 24.3845 63.5866 23.9142 63.5866 23.6202H63.0111C61.9178 23.6202 60.8245 23.6202 59.7888 23.6202C58.6955 23.6202 57.6597 23.6202 56.6815 23.6202C55.6457 23.6202 54.6675 23.6202 53.7468 23.679C52.8261 23.679 51.963 23.7378 51.0999 23.7378C50.1792 23.7966 49.4887 23.7966 48.8557 23.8554C48.1652 23.9142 47.5323 24.0318 47.0144 24.0906C46.4965 24.2081 46.0362 24.3257 45.6334 24.5021C45.2306 24.6785 44.8853 24.9137 44.5976 25.1488C44.3099 25.4428 44.0222 25.8543 43.7345 26.3247C43.5043 26.795 43.2741 27.3241 43.044 27.7945C42.8713 28.1472 42.6987 28.5588 42.5261 28.9115C42.3535 29.3231 42.1233 29.6171 41.9507 29.911C41.8931 29.9698 41.8356 30.0286 41.778 30.0874C41.778 30.0874 41.778 30.1462 41.7205 30.1462C42.1808 34.4968 42.0658 41.6695 42.0082 49.3126L41.9507 51.7818C41.9507 52.6049 41.9507 53.428 41.9507 54.2511C41.9507 56.3677 41.8931 58.8369 41.9507 61.2474C42.0082 63.7167 42.0658 65.892 42.1808 67.7734C42.3535 69.9487 42.5836 71.8301 42.8713 73.4763C43.2166 75.2401 43.6194 76.8275 44.1373 78.0621C44.9429 80.0023 46.1512 81.6485 47.7624 83.0007C49.0859 84.1177 50.4669 84.8232 51.3301 85.2936L51.7328 85.5288C51.8479 85.5875 51.963 85.6463 52.0781 85.7051C52.8262 86.1167 53.2865 86.5282 53.2289 86.9398C53.1714 87.3513 52.7111 87.4689 52.2507 87.5865C51.3301 87.7629 49.4887 87.7629 46.6691 87.7629H31.6506C31.5355 87.7629 31.4204 87.7629 30.845 86.9398C30.7875 86.8222 30.7875 86.7046 30.845 86.6458C30.9026 86.5282 31.0176 86.4694 31.0752 86.4694H46.6116C48.568 86.4694 49.8915 86.4694 50.6971 86.4106C48.8557 85.47 45.0004 83.471 42.9864 78.5912C42.411 77.239 41.9507 75.6516 41.6054 73.7702C41.2602 72.0653 41.03 70.1251 40.9149 67.891C40.7998 66.0096 40.6847 63.8343 40.6847 61.3062C40.6272 58.8957 40.6847 56.4265 40.6847 54.3099C40.6847 53.4868 40.6847 52.6637 40.6847 51.8406L40.7423 49.3713C40.7998 45.6086 40.8574 42.0223 40.7998 38.7299C40.7998 35.4963 40.6847 33.027 40.5121 31.1457C40.397 31.2045 40.2819 31.2632 40.2244 31.2632C39.9942 31.322 39.7641 31.3808 39.5339 31.3808C39.3037 31.3808 39.0736 31.3808 38.8434 31.322C38.6132 31.2632 38.4406 31.1457 38.2104 31.0281C38.0953 30.9693 38.0378 30.8517 37.9227 30.7341C37.8076 30.6165 37.7501 30.5577 37.6925 30.4402C37.4624 30.0874 37.3473 29.6758 37.2322 29.2055C37.1171 28.7352 37.0596 28.206 37.0596 27.6181C37.0596 27.089 37.1171 26.5598 37.2322 26.0895C37.3473 25.6192 37.5199 25.2076 37.7501 24.9137C37.8652 24.7961 37.9227 24.6785 38.0378 24.5609C38.1529 24.4433 38.268 24.3845 38.4406 24.3257C38.6132 24.2669 38.8434 24.2081 39.016 24.2081C39.1886 24.2081 39.4188 24.2669 39.5914 24.3845C39.7641 24.5021 39.9367 24.6197 40.0518 24.7961C40.1669 24.9724 40.3395 25.1488 40.4546 25.3252C40.6847 25.7367 40.9149 26.3247 41.1451 27.0302C41.2602 27.3829 41.3177 27.8533 41.4328 28.2648C41.5479 27.9709 41.7205 27.6769 41.8356 27.3829C42.0658 26.8538 42.2959 26.2659 42.5836 25.7367C42.9289 25.1488 43.2741 24.6197 43.6769 24.2669C44.0797 23.9142 44.4825 23.6202 45.0004 23.385C45.4607 23.1499 46.0362 22.9735 46.6691 22.8559C47.2446 22.7383 47.8775 22.6207 48.6256 22.562C49.2585 22.5032 50.0066 22.4444 50.9273 22.4444C51.7328 22.3856 52.6535 22.3856 53.5742 22.3856C54.4949 22.3856 55.4731 22.3268 56.5089 22.3268C57.3144 22.3268 58.12 22.3268 58.9832 22.3268C58.2351 22.268 57.372 22.2092 56.3938 22.1504C55.358 22.0916 54.2072 22.0328 52.9988 21.974C51.7329 21.9152 50.4669 21.9152 49.201 21.8564C47.6474 21.7976 46.1513 21.7977 44.7702 21.7389C43.2166 21.6801 42.1233 21.5625 41.2602 21.4449C40.6847 21.3861 40.2244 21.2685 39.8216 21.1509C39.4763 21.0333 39.1886 20.9746 38.9009 20.7982C38.1529 21.0333 37.1747 21.1509 35.9663 21.2685C34.7579 21.3861 33.3193 21.4449 31.6506 21.4449L29.1763 21.5625C27.9679 21.6213 26.702 21.6801 25.321 21.7389C23.9975 21.7977 22.5589 21.8564 21.1204 21.974C19.0489 22.0916 16.9773 22.2092 15.0784 22.268C13.9851 22.3268 13.0069 22.3856 12.1438 22.3856C12.7192 22.4444 13.2371 22.562 13.6399 22.7383C14.1002 22.9735 14.3304 23.2675 14.503 23.679C14.6181 24.0906 14.6756 24.6197 14.5606 25.384C14.503 26.0307 14.3304 26.795 14.0427 28.0297C13.755 29.0879 13.4673 30.3814 12.9494 32.2627C12.4315 34.2617 11.741 36.9073 10.9354 39.7294C10.3024 42.1987 9.55438 44.7855 8.92142 47.3136C8.34599 49.4889 7.77058 51.6055 7.2527 53.4868C6.79236 55.1918 6.33201 56.7792 5.98676 58.1314C5.52642 59.7776 5.18117 61.0123 4.89346 61.8942C4.60574 62.8348 4.37557 63.4816 4.14541 63.9519C3.91524 64.481 3.68507 64.8338 3.4549 65.0102C3.16719 65.2453 2.93703 65.3041 2.64931 65.3041C2.47668 65.3041 2.3616 65.3041 2.18896 65.3629C1.95879 65.3629 1.67109 65.4217 1.44093 65.4217C1.38338 65.4217 1.38338 65.4217 1.38338 65.4217C1.44092 65.4805 1.49847 65.5393 1.55602 65.6569C1.78619 65.892 2.13142 66.1272 2.53423 66.3624C2.93702 66.5976 3.4549 66.8915 3.97278 67.1267C4.49066 67.3619 5.12363 67.597 5.75659 67.7734C6.67727 68.0674 7.77057 68.3613 8.86388 68.5965C9.95718 68.8317 11.108 69.0081 12.2589 69.1256C13.3522 69.2432 14.503 69.302 15.5388 69.302C16.5745 69.302 17.6103 69.2432 18.5885 69.1256C19.4517 69.0081 20.3148 68.8905 21.2355 68.6553C22.0986 68.4201 23.0193 68.185 23.9399 67.891C24.8606 67.597 25.7813 67.1855 26.6444 66.8327C27.5076 66.4212 28.3707 65.9508 29.1188 65.5393C29.6366 65.2453 29.9819 65.0102 30.1545 64.8338C30.1545 64.8338 30.2121 64.8338 30.2121 64.775C30.1545 64.7162 30.0394 64.7162 29.8668 64.6574C29.4065 64.5398 28.7735 64.481 27.8528 64.3634L27.2774 64.3047C27.0472 64.5986 26.7595 64.8338 26.3567 64.9514C25.9539 65.1277 25.436 65.1865 24.688 65.2453C23.8824 65.3629 22.9042 65.4217 21.7533 65.5393C20.66 65.5981 19.4516 65.7157 18.2433 65.7745C17.0924 65.8333 15.9991 65.892 14.9058 65.892C13.87 65.892 12.8918 65.9508 12.0862 65.892C11.2231 65.892 10.4751 65.8333 9.72701 65.8333C8.97896 65.7745 8.34599 65.7157 7.77058 65.6569C7.13761 65.5981 6.61973 65.4805 6.21693 65.3629C5.75659 65.2453 5.41134 65.069 5.23872 64.8926C5.18118 64.8338 5.12363 64.775 5.12363 64.7162C5.06608 64.6574 5.06609 64.5986 5.00854 64.5398C4.951 64.3634 4.951 64.1871 5.00854 64.0107C5.06609 63.8343 5.18117 63.7167 5.3538 63.5991C5.46888 63.5403 5.52642 63.4816 5.69904 63.4228C5.81413 63.364 5.92922 63.364 6.10184 63.3052C6.56219 63.1876 7.19515 63.07 8.05829 63.0112C8.92142 62.9524 9.95718 62.8936 11.2231 62.8348C12.4315 62.776 13.9276 62.776 15.5388 62.776C17.15 62.776 18.8187 62.776 20.3723 62.8348C21.5807 62.8348 22.7891 62.8936 23.8824 62.9524C24.8031 63.0112 25.6662 63.0112 26.3567 63.07C26.3567 62.6585 26.2992 62.1293 26.1265 61.4238C25.9539 60.4831 25.6087 59.2485 25.1483 57.5435C24.2277 54.2511 22.9617 49.7241 21.5807 44.8443V44.7855C20.1422 39.6706 18.5885 34.3793 17.6678 30.9105C17.265 29.4407 16.8622 27.9709 16.6321 26.8538C16.4019 25.7955 16.3444 25.0312 16.4019 24.5021C16.4595 23.7966 16.7472 23.385 17.265 23.1499C17.6678 22.9735 18.2433 22.9147 19.0489 22.9147C19.6818 22.9147 20.4299 22.9147 21.3505 22.9735C22.2712 23.0323 23.2494 23.0911 24.3427 23.1499C25.436 23.2087 26.5869 23.2675 27.7953 23.385C29.0037 23.4438 30.2121 23.5614 31.4204 23.6202C31.5931 23.6202 31.7657 23.679 31.8232 23.8554C31.9383 23.973 31.9959 24.1494 31.9959 24.3257C31.9959 24.5021 31.9383 24.6785 31.7657 24.7373C31.6506 24.8549 31.478 24.9137 31.3054 24.9137C28.8886 24.7373 26.3567 24.5609 24.2277 24.4433C23.1344 24.3845 22.1561 24.3257 21.293 24.2669C20.3723 24.2081 19.6243 24.2081 18.9913 24.2081C18.4734 24.2081 18.0706 24.2081 17.8405 24.3257C17.6678 24.3845 17.6103 24.4433 17.5528 24.7373C17.4952 25.1488 17.5528 25.7367 17.7829 26.6774C18.0131 27.7357 18.4159 29.2055 18.7611 30.6165C19.2215 32.3803 19.8544 34.6144 20.545 36.9661C21.2355 39.3178 21.926 41.8459 22.674 44.374L22.7316 44.6092C24.1126 49.4889 25.436 54.1335 26.2992 57.2495C26.7595 59.0133 27.1048 60.248 27.3349 61.2474C27.5076 62.0705 27.5651 62.7173 27.5651 63.1876L27.9104 63.2464C28.9461 63.364 29.7517 63.4816 30.2696 63.6579C30.9026 63.8343 31.3054 64.1283 31.4204 64.4222C31.5931 64.8338 31.478 65.2453 31.0752 65.7157C30.7875 66.0096 30.3271 66.3624 29.6942 66.7739C28.9461 67.2443 28.0254 67.7146 27.1048 68.1262C26.1841 68.5377 25.2059 68.9493 24.2852 69.2432C23.3645 69.5372 22.3863 69.8312 21.4656 70.0663C20.545 70.3015 19.6243 70.4191 18.7036 70.5367C17.7254 70.6542 16.6321 70.713 15.5388 70.713C14.4455 70.713 13.2946 70.6542 12.1438 70.5367C10.9929 70.4191 9.78455 70.2427 8.63371 70.0075C7.48286 69.7724 6.38955 69.4784 5.41133 69.1844C4.72083 68.9493 4.08787 68.7141 3.51244 68.4789C2.93703 68.2438 2.3616 67.9498 1.90125 67.6558C1.38338 67.3619 0.980591 67.0091 0.635338 66.7151C0.290085 66.3624 0.059906 66.0096 0.00236511 65.6569C0.059906 65.4217 0.174988 65.1278 0.4627 64.8926ZM6.84989 21.5037C6.79235 21.4449 6.79235 21.3861 6.73481 21.3273C6.67727 21.2685 6.61973 21.2097 6.50464 21.2097C6.4471 21.2097 6.38956 21.2097 6.33202 21.2097C6.27448 21.2097 6.21693 21.2097 6.21693 21.2097C6.10184 21.2097 5.92921 21.2685 5.75659 21.3273C5.69905 21.3273 5.69905 21.3273 5.64151 21.3861C5.69905 21.3861 5.69905 21.3861 5.75659 21.3861C5.92921 21.4449 6.15939 21.4449 6.4471 21.5037C6.61972 21.4449 6.73481 21.5037 6.84989 21.5037ZM41.03 14.9189C40.9725 14.9189 40.8574 14.9189 40.7423 14.9777C40.6272 14.9777 40.5121 15.0365 40.397 15.0953C40.2819 15.1541 40.1669 15.2129 40.1093 15.2717C39.9942 15.3305 39.9367 15.4481 39.8216 15.5068C39.649 15.6832 39.5339 15.8596 39.4188 16.0948C39.3037 16.3299 39.1886 16.6239 39.1311 16.9179C39.0736 17.2118 39.016 17.5646 38.9585 17.8586C38.9585 18.2113 38.9585 18.5053 38.9585 18.7992C38.9585 19.0344 39.016 19.2696 39.0736 19.3872C39.1311 19.5047 39.2462 19.6223 39.3613 19.7399C39.4763 19.6811 39.5914 19.6223 39.7065 19.6223C39.8791 19.5635 39.9942 19.4459 40.1669 19.3872C40.5121 19.152 40.7423 18.9168 41.03 18.6229C41.2602 18.3289 41.4903 17.9173 41.6054 17.5646C41.7205 17.153 41.8356 16.7415 41.8356 16.3299C41.8356 15.9772 41.778 15.6244 41.663 15.3893C41.663 15.3305 41.6054 15.2717 41.6054 15.2717C41.6054 15.2129 41.5479 15.2129 41.4903 15.1541C41.4328 15.0953 41.3752 15.0365 41.3177 15.0365C41.2602 14.9189 41.1451 14.9189 41.03 14.9189ZM61.8603 65.4805C60.767 65.4805 59.6737 65.4805 58.6955 65.4805C57.7172 65.4805 56.7966 65.4805 55.991 65.4805C55.6457 65.4805 55.3005 65.4805 54.9552 65.4805C55.2429 65.5393 55.7033 65.5393 56.2211 65.5393C56.7966 65.5393 57.6022 65.5393 58.5804 65.5393C59.5586 65.5393 60.6519 65.4805 61.8603 65.4805ZM71.0095 66.48C69.6285 66.5388 68.0748 66.5976 66.5787 66.5976C65.0826 66.6563 63.5866 66.7151 62.2055 66.7151C60.8245 66.7739 59.6161 66.7739 58.5804 66.7739C57.5446 66.7739 56.7966 66.7739 56.1636 66.7739C55.5306 66.7739 55.1278 66.7739 54.7826 66.7151C54.4373 66.6564 54.1496 66.5976 53.9195 66.5388C53.6893 66.4212 53.5742 66.3036 53.4591 66.186C53.344 66.0684 53.2865 65.9508 53.2289 65.8333C53.1714 65.7745 53.1714 65.7157 53.1714 65.5981C53.0563 65.5981 52.9412 65.5981 52.8837 65.6569C52.6535 65.6569 52.4809 65.7157 52.3083 65.7157C52.0206 65.7745 51.8479 65.8333 51.6753 65.892L51.7328 65.9508C51.9055 66.1272 52.1932 66.3036 52.596 66.5388C53.1139 66.8327 53.7468 67.1855 54.4949 67.4794C55.2429 67.8322 55.991 68.1262 56.7966 68.4201C57.6022 68.7141 58.3502 68.9493 59.1558 69.1844C59.9614 69.4196 60.767 69.596 61.515 69.7724C62.4932 69.9487 63.4715 70.1251 64.4497 70.1839C65.4279 70.3015 66.4061 70.3015 67.3843 70.3015C68.305 70.3015 69.2257 70.2427 70.0888 70.1251C70.952 70.0075 71.7576 69.8312 72.5631 69.6548C73.1961 69.4784 73.8291 69.2432 74.4045 69.0081C75.0375 68.7729 75.6129 68.4789 76.1883 68.1262C76.7637 67.7734 77.3392 67.4207 77.857 67.0679C78.2023 66.7739 78.5475 66.5388 78.7777 66.2448C78.6626 66.2448 78.4325 66.2448 78.2598 66.2448C77.5693 66.2448 76.476 66.3036 75.0375 66.3036L71.0095 66.48ZM54.8977 64.2459C55.2429 64.2459 55.5882 64.2459 55.991 64.1871C56.7966 64.1871 57.7172 64.1871 58.6955 64.1871C59.6737 64.1871 60.767 64.1871 61.8603 64.1871H64.162C66.1184 64.1871 68.1324 64.2459 69.9737 64.2459C72.0453 64.2459 73.5414 64.2459 74.5196 64.1871C75.1525 64.1871 75.5553 64.1283 75.7855 64.0107C75.9581 63.9519 76.0157 63.8343 76.0732 63.6579C76.1308 63.3052 76.0157 62.7173 75.7855 61.7766C75.5553 60.8359 75.2101 59.6012 74.7497 58.0139C74.1168 55.8385 73.2536 52.9577 72.333 49.8417L72.1603 49.195C71.2972 46.2553 70.3765 43.1393 69.5134 40.1997C68.5927 37.1425 67.7871 34.2617 67.1542 32.0276C66.6363 30.1462 66.291 29.0291 66.0609 28.1472C65.7732 27.1478 65.6581 26.4423 65.6005 25.9719C65.4854 25.3252 65.543 24.9137 65.7732 24.6197C66.0033 24.2669 66.3486 24.2081 66.6938 24.1494C67.0391 24.0906 67.4419 24.0906 67.9598 24.0906C68.4201 24.0906 68.938 24.0906 69.4559 24.1494C70.2039 24.1494 71.0095 24.2081 71.5274 24.1494C71.7576 24.1494 71.9302 24.0906 72.0453 24.0906C72.1603 24.0318 72.2179 24.0318 72.2754 23.973V23.9142C71.4123 23.973 70.319 23.973 68.9955 24.0318C67.7296 24.0318 66.4061 24.0318 65.0251 24.0318C65.0251 24.5021 64.91 25.09 64.7374 25.9131C64.5072 26.9714 64.1044 28.3824 63.529 30.3226L63.2988 31.2045C62.6659 33.3798 61.8603 36.143 61.0547 39.1414C60.3642 41.6695 59.5586 44.374 58.8681 47.0196C58.2351 49.3126 57.6597 51.4879 57.0843 53.4868C56.6239 55.3094 56.1636 56.9556 55.8183 58.3078C55.4156 59.954 55.0703 61.2474 54.8401 62.3645C54.6675 63.1876 54.5524 63.8931 54.4949 64.3634C54.5524 64.2459 54.725 64.2459 54.8977 64.2459ZM75.728 22.0328L75.5553 21.7977L75.4978 21.7389C75.4403 21.6801 75.3827 21.6213 75.2676 21.5625C75.1525 21.5037 75.0375 21.4449 74.8648 21.4449C74.6922 21.3861 74.5196 21.3861 74.3469 21.3861C74.1743 21.3861 74.0017 21.3861 73.8866 21.4449C73.7715 21.4449 73.714 21.5037 73.5989 21.5625C73.5414 21.6213 73.4838 21.6213 73.4263 21.6801C73.3687 21.7389 73.3687 21.7976 73.3112 21.8564C73.3112 21.9152 73.2537 22.0328 73.2537 22.1504C73.2537 22.268 73.2537 22.3856 73.2537 22.5032C73.2537 22.5032 73.2537 22.5032 73.2537 22.562C73.3112 22.562 73.3687 22.562 73.4263 22.562C73.5989 22.562 73.7715 22.5032 73.8866 22.5032C74.2894 22.4444 74.6347 22.3268 74.8648 22.268C75.1525 22.1504 75.3252 22.0328 75.3827 21.974L75.728 22.0328ZM39.3613 25.5604L39.1311 25.7955C39.1311 25.7955 39.0736 25.7955 39.0736 25.8543C39.016 25.9131 39.016 25.9131 38.9585 25.9719C38.8434 26.1483 38.7283 26.4423 38.6708 26.795C38.6132 27.1478 38.5557 27.5593 38.5557 28.0297C38.5557 28.5 38.6132 28.9115 38.6708 29.2643C38.7283 29.6171 38.8434 29.911 39.016 30.1462C39.0736 30.205 39.0736 30.2638 39.1311 30.3226C39.1886 30.3814 39.1886 30.3814 39.2462 30.4402C39.3037 30.4989 39.4188 30.5577 39.4764 30.5577C39.5339 30.5577 39.649 30.6165 39.7641 30.5577C39.8792 30.5577 39.9942 30.4989 40.1093 30.4989C40.2244 30.4402 40.3395 30.3814 40.4546 30.3226C40.5121 30.2638 40.5697 30.2638 40.6272 30.205C40.6272 30.205 40.6272 30.205 40.6847 30.205C40.5697 29.3231 40.4546 28.6176 40.2819 27.9709C40.1093 27.3241 39.9367 26.795 39.7065 26.3835C39.649 26.2659 39.5339 26.1483 39.4764 26.0895C39.4188 26.0307 39.3613 25.9719 39.3037 25.9719L39.3613 25.5604ZM20.3723 64.4222C18.7611 64.4222 17.0924 64.3634 15.5388 64.3634C13.9851 64.3634 12.489 64.4222 11.2807 64.4222C10.0723 64.481 9.03651 64.5398 8.23091 64.5986C7.9432 64.5986 7.71303 64.6574 7.42532 64.6574C7.59795 64.6574 7.77058 64.7162 7.9432 64.7162C8.51862 64.775 9.15159 64.8338 9.8421 64.8926C10.5326 64.9514 11.3382 64.9514 12.1438 64.9514C12.9494 64.9514 13.9276 64.9514 14.9634 64.9514C15.9991 64.9514 17.0924 64.8926 18.2433 64.8338C19.3941 64.775 20.6025 64.7162 21.6958 64.5986C22.4438 64.5398 23.0768 64.481 23.7098 64.4222C22.6165 64.481 21.5232 64.481 20.3723 64.4222Z" fill="black"/>
<path d="M38.2103 30.148C38.2679 30.2068 38.3254 30.2656 38.3829 30.3244C38.3829 30.3244 38.383 30.3832 38.4405 30.3832C37.9802 34.7338 38.0952 41.9065 38.1528 49.5495L38.2103 52.0188C38.2103 52.8419 38.2103 53.665 38.2103 54.4881C38.2103 56.6047 38.2679 59.0739 38.2103 61.4844C38.1528 63.9537 38.0952 66.129 37.9802 68.0104C37.8075 70.1857 37.5774 72.0671 37.2896 73.7133C36.9444 75.4771 36.5416 77.0644 36.0237 78.2991C35.2181 80.2392 34.0097 81.8854 32.3986 83.2377C31.0751 84.3547 29.6941 85.0602 28.8309 85.5306L28.4281 85.7658C28.3131 85.8245 28.198 85.8833 28.0829 85.9421C27.3348 86.3537 26.8745 86.7652 26.932 87.1768C26.9896 87.5883 27.4499 87.7059 27.9103 87.8235C28.8309 87.9999 30.6723 87.9999 33.4919 87.9999H48.5104C48.6255 87.9999 48.7406 87.9999 49.316 87.1768C49.3735 87.0592 49.3735 86.9416 49.316 86.8828C49.2584 86.7652 49.1434 86.7064 49.0858 86.7064H33.5494C31.593 86.7064 30.2695 86.7064 29.4639 86.6476C31.3053 85.707 35.1606 83.708 37.1746 78.8282C37.75 77.476 38.2103 75.8886 38.5556 74.0072C38.9008 72.3023 39.131 70.3621 39.2461 68.128C39.3612 66.2466 39.4763 64.0713 39.4763 61.5432C39.5338 59.1327 39.4763 56.6634 39.4763 54.5469C39.4763 53.7238 39.4763 52.9007 39.4763 52.0776L39.4187 49.6083C39.3612 45.8456 39.3036 42.2593 39.3612 38.9669C39.3612 35.7333 39.4762 33.264 39.6489 31.3827C39.764 31.4414 39.879 31.5002 39.9366 31.5002C40.1668 31.559 40.3969 31.6178 40.6271 31.6178C40.8573 31.6178 41.0874 31.6178 41.3176 31.559C41.5478 31.5002 41.7204 31.3827 41.9506 31.2651C42.0657 31.2063 42.1232 31.0887 42.2383 30.9711C42.3534 30.8535 42.4109 30.7947 42.4685 30.6771L38.2103 30.148ZM41.3751 29.9128C41.3176 29.9716 41.3176 30.0304 41.2601 30.0892C41.2025 30.148 41.2025 30.148 41.145 30.2068C41.0874 30.2656 40.9724 30.3244 40.9148 30.3244C40.8573 30.3244 40.7422 30.3832 40.6271 30.3244C40.512 30.3244 40.3969 30.2656 40.2818 30.2656C40.1668 30.2068 40.0517 30.148 39.9366 30.0892C39.879 30.0304 39.8215 30.0304 39.764 29.9716C39.764 29.9716 39.764 29.9716 39.7064 29.9716" fill="black"/>
</svg>
