<svg width="473" height="246" viewBox="0 0 473 246" fill="none" xmlns="http://www.w3.org/2000/svg">
<g clip-path="url(#clip0)">
<path d="M40.0505 368.081L56.8586 373.859L58.8283 362.303H63.9496L74.192 296.91V293.496L94.6769 223.901L95.3334 221.8V230.598L95.4648 291.001L97.5658 295.86L90.0809 362.435L93.7577 366.374L93.6264 372.677L110.828 370.97L116.212 362.172L113.192 359.546L112.142 358.626L112.01 358.495L113.849 356.132L114.768 354.818V354.556L125.404 288.9L125.667 287.456L126.717 281.153L126.98 279.577L127.111 278.658L141.424 209.063L129.081 186.608L128.424 179.255L128.293 177.023L125.929 150.104L128.687 144.983L127.374 140.518L133.677 74.2059C133.677 74.2059 115.818 68.4282 108.071 62.9131C107.677 62.6505 107.414 62.3878 107.02 62.1252C105.576 60.9434 104.657 59.7616 104.657 58.5798C104.525 57.7919 104.525 56.8728 104.525 55.9536C104.263 48.8628 104.657 37.9639 104.657 37.9639L78.5253 45.4487C78.5253 45.4487 78.2627 57.6606 78.2627 59.1051C78.2627 59.499 78.1314 59.8929 77.7375 60.4182C76.9496 61.7313 75.2425 63.4383 73.4041 64.7515C73.0102 65.0141 72.6162 65.2767 72.3536 65.5393C72.3536 65.5393 72.3536 65.5393 72.2223 65.5393C71.9597 65.6706 71.5657 65.9333 71.0405 66.1959C65.2627 69.0847 44.5152 77.226 44.5152 77.226L57.3839 141.437L60.0102 143.67L56.2021 179.518L55.8081 182.8L49.7677 198.952L46.6162 286.536L42.5455 351.536L42.4142 352.849L42.2829 355.869L42.1516 357.182L41.8889 361.384L44.5152 362.435V362.566L43.4647 364.01L40.0505 368.081Z" fill="white"/>
<path d="M107.546 150.629C107.546 150.629 108.727 162.578 111.222 170.588C113.586 178.598 118.839 183.72 118.839 183.72L126.192 181.75L107.546 150.629Z" fill="black"/>
<path d="M72.4849 154.831C72.4849 154.831 72.8789 156.407 69.7273 164.548C66.5758 172.689 61.5859 182.407 61.5859 182.407L57.1213 179.518L72.4849 154.831Z" fill="black"/>
<path d="M40.0505 368.081L56.8586 373.859L58.8283 362.303H63.9496L74.192 296.91V293.627L94.8082 224.032L95.3334 221.931V230.86L95.5961 291.132L97.6971 296.122L90.2122 362.566L93.889 366.636L93.7577 372.808L110.96 371.101L116.344 362.303L113.192 359.677L112.142 358.758L112.01 358.626L113.849 356.263L114.768 355.081L114.899 354.818L125.536 289.031L125.798 287.587L126.849 281.415L126.98 279.84L127.243 278.92L141.556 209.325L129.081 186.871L128.424 179.518H56.2021L55.8081 182.8L49.899 198.82L49.6364 205.78L49.5051 207.881L49.3738 210.638V212.608L46.6162 286.536L42.5455 351.536V352.849L42.2829 355.869V357.051L42.0202 361.253L44.5152 362.303V362.435L43.3334 363.748L40.0505 368.081Z" fill="#3885F2"/>
<path d="M77.7375 60.5495L84.3031 67.2464L104.394 55.9536C104.131 48.8628 104.525 37.9639 104.525 37.9639L78.394 45.4487C78.394 45.4487 78.1314 57.6606 78.1314 59.1051C78.1314 59.499 78.0001 60.0242 77.7375 60.5495Z" fill="#B27F8A"/>
<path d="M107.677 30.4791C107.677 30.4791 110.697 28.6408 112.273 30.0852C113.717 31.5296 113.323 36.6508 109.384 39.4083C105.576 42.1659 102.293 40.0649 102.293 40.0649L101.899 50.9637L80.495 57.5293L70.2526 48.2062L73.1415 39.9336L73.6667 21.6813C73.6667 20.7621 73.9294 19.9742 74.3233 19.1864C75.7677 16.6914 79.5758 10.9137 84.4344 9.73193C90.7375 8.1562 96.3839 9.20669 101.243 12.0955C106.232 14.9844 107.808 19.3177 107.808 20.2369C108.071 21.0247 107.677 30.4791 107.677 30.4791Z" fill="#B27F8A"/>
<path d="M54.7576 185.689C54.7576 185.689 59.4849 186.608 65.9193 187.528C67.1011 187.659 68.2829 187.79 69.4647 188.053C73.6668 188.578 78.394 189.103 82.7274 189.366C83.5153 189.366 84.1718 189.497 84.8284 189.497C89.0304 189.629 94.1516 189.497 99.4042 189.235C103.344 188.972 107.414 188.709 111.222 188.316C112.404 188.184 113.455 188.053 114.637 187.922C122.909 187.134 129.081 186.215 129.081 186.215L128.556 179.518H56.2021L54.7576 185.689Z" fill="black"/>
<path d="M137.748 202.628L145.364 197.245L129.869 188.316L137.748 202.628Z" fill="#F0EFE6"/>
<path d="M40.3132 200.265L45.4344 199.477L43.2021 197.376L40.3132 200.265Z" fill="black"/>
<path d="M54.7576 185.689L49.6364 203.679L42.9394 197.245L54.7576 185.689Z" fill="#F0EFE6"/>
<path d="M29.4141 150.367L28.495 152.074L40.4445 200.396L54.7576 185.821L46.2223 152.074L45.8283 150.498V150.235L48.192 148.528L46.6162 147.346L44.6465 145.902L45.5657 145.377L48.9798 143.538L47.9293 138.286L53.7071 122.528L49.2425 100.206V100.074L44.5152 77.226L44.2526 78.2765L38.8687 99.8116L38.4748 101.125L36.7677 108.084L36.5051 109.266L29.6768 135.922L30.0707 136.448L30.3333 136.71L28.3636 138.548L26 140.649L29.4141 150.367Z" fill="#3885F2"/>
<path d="M134.465 157.326L129.869 188.316L145.889 198.82L155.344 148.528L153.637 145.902L155.344 143.67L150.091 134.215C150.091 134.215 147.334 119.246 144.576 104.933C144.445 104.539 144.445 104.145 144.313 103.751C143.919 101.781 143.525 99.6803 143.132 97.7106C143 97.3167 143 96.9227 142.869 96.3975C142.606 94.9531 142.344 93.6399 142.081 92.3268C141.95 91.8016 141.95 91.2763 141.818 90.8824C140.505 84.1855 139.586 79.327 139.323 78.5391C138.667 76.5694 135.778 75.125 134.334 74.4685C133.94 74.2058 133.546 74.2058 133.546 74.2058L130.525 106.377C130.525 106.508 130.525 106.508 130.525 106.64L128.95 123.842L134.202 142.882L133.677 144.195L134.334 144.983L135.253 145.902L135.778 146.558L135.909 146.69L132.495 149.447L131.97 149.973L134.465 157.326Z" fill="#3885F2"/>
<path d="M82.596 179.518V189.366C83.3839 189.366 84.0405 189.497 84.6971 189.497C88.8991 189.629 94.0203 189.497 99.2728 189.235V179.649H82.596V179.518Z" fill="#F5CB99"/>
<path d="M65.9193 179.518V187.528C67.1011 187.659 68.2829 187.79 69.4647 188.053V179.518H65.9193Z" fill="#3885F2"/>
<path d="M114.637 179.518V187.79C113.586 187.922 112.404 188.053 111.222 188.184V179.518H114.637Z" fill="#3885F2"/>
<path d="M84.3031 67.2464L91.6567 74.9937L87.9799 78.1452L94.4142 169.407L84.1718 182.407L74.7173 169.932L84.1718 78.2765L80.1011 75.1251L84.3031 67.2464Z" fill="#19C5FF"/>
<path d="M70.2526 48.0749L70.7778 48.7314L71.1718 49.2567L71.697 49.7819L72.091 50.3072L76.4243 54.7718L76.9496 55.297L77.8688 56.3475L78.394 56.8727L79.0506 57.5293L85.3536 55.6909L86.0102 55.5596L88.7678 54.7718L89.4243 54.6404L90.6062 54.2465L91.2627 54.1152L93.3637 53.4586L93.889 53.3273L96.9092 52.5395L97.5658 52.4082L100.323 51.6203L100.98 51.489L101.768 51.2264L101.899 47.6809V46.6305L102.03 43.479V42.5598L102.162 40.0649L102.293 38.2265V37.4386L102.424 35.9942V35.2064L102.687 31.5296L101.111 34.2872L100.849 34.8124L100.455 35.469L100.061 35.9942L98.485 38.6205L98.2223 39.4083L97.8284 40.1962L97.4345 40.8527L96.7779 41.7719L96.2526 42.0345L95.7274 42.2972L93.3637 43.7416L92.8385 44.0042L91.2627 44.9234L90.7375 45.186L89.5557 45.8426L89.0304 46.2365L87.0607 47.4183L86.5354 47.6809L85.4849 48.2062L84.8284 48.6001L80.889 46.2365L80.7577 46.3678L80.1011 46.8931L79.0506 47.6809L78.2627 48.3375L77.8688 48.6001L75.8991 45.3173L75.6364 44.6608L75.2425 43.7416L74.8486 43.085L74.0607 41.378L73.6667 40.7214L73.2728 39.9336L72.2223 43.085L71.4344 45.186L70.2526 48.0749Z" fill="black"/>
<path d="M92.7072 39.8023L75.8991 40.9841L82.2021 44.0042L92.7072 39.8023Z" fill="white"/>
<path d="M94.1516 40.9841L93.7577 39.0144L83.1213 36.5195V40.4588L94.1516 40.9841Z" fill="black"/>
<path d="M81.1516 40.4588L80.889 37.4387L74.9799 40.9841V42.1659L81.1516 40.4588Z" fill="black"/>
<path d="M87.7173 19.7116C89.9496 19.7116 91.9193 20.4995 93.4951 21.9439C94.6769 22.9944 92.9698 24.8328 91.6567 23.7823C90.6062 22.7318 89.1617 22.2065 87.7173 22.2065C86.0102 22.3378 86.0102 19.7116 87.7173 19.7116Z" fill="black"/>
<path d="M75.1112 22.7318C76.6869 22.0752 78.2627 22.3378 79.7071 23.1257C80.3637 23.3883 80.495 24.3075 80.2324 24.8328C79.8385 25.4893 79.0506 25.6206 78.5253 25.358C78.0001 25.0954 77.0809 24.7014 76.4243 24.9641C75.7678 25.2267 75.1112 25.0954 74.7172 24.4388C74.3233 23.9136 74.4546 22.9944 75.1112 22.7318Z" fill="black"/>
<path d="M79.5758 30.8731C80.2324 30.3478 81.0203 31.267 80.495 31.7923C79.8385 32.4488 79.4445 33.2367 79.5758 34.0246C79.7072 35.075 80.889 35.6003 81.8082 35.2064C82.5961 34.9437 82.99 36.1255 82.2021 36.3882C80.7577 36.9134 79.3132 36.2569 78.6566 34.9437C77.8688 33.6306 78.394 31.7923 79.5758 30.8731Z" fill="black"/>
<path d="M100.849 34.8124C101.374 35.2064 101.899 35.6003 102.556 35.9942V35.2064C102.293 35.075 102.03 34.8124 101.768 34.6811C101.505 34.5498 101.374 34.4185 101.111 34.1559L100.849 34.8124Z" fill="black"/>
<path d="M100.192 35.9942C100.98 36.7821 101.637 37.4387 102.424 38.0952V37.3074C101.768 36.6508 101.111 36.1256 100.455 35.469L100.192 35.9942Z" fill="black"/>
<path d="M98.2224 39.4083C99.5355 40.7214 100.849 42.0346 102.162 43.3477V42.4285C100.98 41.2467 99.7981 40.0649 98.6163 38.8831C98.6163 38.7518 98.6163 38.7518 98.6163 38.6205L98.2224 39.4083Z" fill="black"/>
<path d="M97.4345 40.7214C99.0102 42.9537 100.455 45.186 102.03 47.4183V46.3678C100.586 44.2668 99.1415 42.1659 97.6971 40.0649L97.4345 40.7214Z" fill="black"/>
<path d="M95.7274 42.2972C97.1718 45.4487 98.7476 48.4688 100.455 51.3577L101.111 51.2264C99.2729 48.2062 97.6971 45.186 96.2526 42.0346L95.7274 42.2972Z" fill="black"/>
<path d="M92.7072 44.1355C94.1516 46.8931 95.5961 49.6506 97.0405 52.4082L97.6971 52.2769C96.2526 49.388 94.8082 46.6305 93.3637 43.8729L92.7072 44.1355Z" fill="black"/>
<path d="M90.6062 45.3173C91.394 47.287 92.0506 49.2567 92.7072 51.3577C92.9698 52.0142 93.2324 52.8021 93.4951 53.4587L94.0203 53.3273C93.889 52.6708 93.7577 52.0142 93.6264 51.7516C93.3637 50.9637 93.1011 50.1759 92.8385 49.388C92.3132 47.9436 91.788 46.4991 91.2627 45.0547L90.6062 45.3173Z" fill="black"/>
<path d="M88.8991 46.3678C89.4243 48.9941 90.0809 51.6203 90.8688 54.1152L91.5254 53.9839C90.7375 51.3577 90.0809 48.7315 89.5557 45.9739L88.8991 46.3678Z" fill="black"/>
<path d="M86.2728 47.8123C87.0607 50.0446 87.9799 52.4082 88.8991 54.6405L89.5557 54.5092C88.5051 52.2769 87.7173 49.9132 86.7981 47.5496L86.2728 47.8123Z" fill="black"/>
<path d="M85.6163 55.691L86.2728 55.5597C86.0102 53.196 85.6162 50.8324 85.3536 48.6001L84.6971 48.9941C84.9597 51.0951 85.2223 53.3274 85.6163 55.691Z" fill="black"/>
<path d="M78.0001 56.2162L78.5253 56.7415C79.0506 54.5092 79.5759 52.4082 79.9698 50.1759C80.2324 48.9941 80.3637 47.8123 80.6264 46.6305L79.9698 47.1557C79.8385 47.9436 79.5759 48.9941 79.4445 49.5193C79.3132 50.3072 79.1819 51.0951 78.9193 51.8829C78.6567 53.3274 78.394 54.7718 78.0001 56.2162Z" fill="black"/>
<path d="M76.5556 54.6405L77.0809 55.1657C77.7375 52.8021 78.394 50.3072 78.9193 47.9436L78.1314 48.6001C77.6062 50.5698 77.0809 52.6708 76.5556 54.6405Z" fill="black"/>
<path d="M71.8284 49.6506L72.2223 50.1759C73.4041 48.6001 74.7173 46.8931 75.8991 45.3174L75.6364 44.6608C74.3233 46.3678 73.0102 48.0749 71.8284 49.6506Z" fill="black"/>
<path d="M70.9092 48.7315L71.3031 49.2567C72.6163 47.4183 73.7981 45.58 75.1112 43.7416L74.8486 43.0851C73.5354 44.9234 72.2223 46.8931 70.9092 48.7315Z" fill="black"/>
<path d="M71.3031 45.0547C72.2223 43.8729 73.1415 42.5598 73.9294 41.378L73.5354 40.7215C73.0102 41.5093 72.4849 42.2972 71.9597 42.9537L71.3031 45.0547Z" fill="black"/>
<path d="M80.3637 60.4182L78.0001 56.2162L79.1819 57.5293L101.899 50.9637L80.3637 60.4182Z" fill="black"/>
<path d="M86.5354 28.7721C86.7981 30.0852 87.8486 30.8731 88.7678 30.7418C89.687 30.4792 90.2122 29.2974 89.9496 27.9842C89.687 26.6711 88.6365 25.8833 87.7173 26.0146C86.7981 26.4085 86.2728 27.5903 86.5354 28.7721Z" fill="black"/>
<path d="M75.1112 29.56C75.3738 30.7418 76.293 31.6609 77.0809 31.3983C77.8688 31.267 78.2627 30.0852 78.0001 28.9034C77.7375 27.7216 76.8183 26.8024 76.0304 27.065C75.2425 27.1964 74.8486 28.3782 75.1112 29.56Z" fill="black"/>
<path d="M111.354 34.0246C111.354 34.0246 112.273 32.3175 111.091 31.7923C109.909 31.267 107.152 33.6306 107.152 33.6306L111.354 34.0246Z" fill="black"/>
<path d="M107.414 34.4185C107.414 34.4185 108.333 34.2872 107.677 35.469C107.02 36.6508 105.839 36.2569 105.839 36.2569L107.414 34.4185Z" fill="black"/>
<path d="M71.0405 66.3272C73.4041 69.7413 75.8991 73.1554 78.2627 76.5695C78.5253 76.9634 79.0506 76.9634 79.3132 76.5695C81.1516 73.9433 82.99 71.317 84.8284 68.6908C87.192 71.0544 89.5557 73.418 91.9193 75.7816C92.1819 76.0442 92.5759 76.0442 92.8385 75.7816C95.5961 73.0241 98.6163 70.3978 101.636 67.9029C103.737 66.1959 105.97 64.7515 107.94 62.7818C107.546 62.5192 107.283 62.2565 106.889 61.9939C103.606 65.1454 99.5355 67.7716 96.2526 70.7918C95.0708 71.8423 93.889 72.8928 92.8385 73.9433C92.1819 74.5998 90.7375 72.4988 90.3435 72.2362C88.6365 70.5292 86.9294 68.8221 85.2223 67.1151C84.9597 66.8524 84.4344 66.8524 84.1718 67.2464L78.788 74.9937C76.5556 71.8423 74.3233 68.8221 72.2223 65.6706C71.9597 65.8019 71.5657 66.0646 71.0405 66.3272Z" fill="black"/>
<path d="M105.313 117.801C105.313 118.589 105.313 119.508 105.313 120.296C105.313 121.609 105.313 123.054 105.313 124.236C105.707 147.74 108.727 159.164 112.929 167.962C117.394 177.548 128.95 186.083 128.95 186.083L128.162 177.154L126.061 152.599L125.929 150.892V150.367L128.687 145.245L128.03 143.013L127.637 141.569L127.374 140.781L128.95 123.842L130.525 106.64C130.525 106.508 130.525 106.508 130.525 106.377L133.677 74.2059C133.677 74.2059 133.546 74.2059 133.152 74.0745C130.919 73.2867 122.121 70.3978 114.768 66.8524C113.98 66.4585 113.323 66.1959 112.667 65.8019C110.96 64.8827 109.253 63.9636 107.94 62.9131C107.808 64.7514 107.546 66.9837 107.414 69.4786C107.414 70.0039 107.283 70.5291 107.283 71.1857C106.364 83.135 105.313 101.256 105.313 117.801Z" fill="#3885F2"/>
<path d="M44.5152 77.226L49.1112 100.074V100.206L53.5758 122.529L56.7273 138.417L56.99 139.993L57.2526 141.437L59.8788 143.67L59.7475 144.589L59.6162 146.033L55.1516 183.588C55.1516 183.588 73.4041 162.316 73.2728 149.053C73.2728 143.932 73.1415 133.165 73.1415 120.953V117.933C73.1415 102.7 73.1415 85.7613 73.1415 74.4685V72.8928C73.1415 69.61 73.1415 66.8524 73.1415 65.0141C72.7476 65.2767 72.3536 65.5393 72.091 65.8019C71.3031 66.3272 69.3334 67.1151 66.7071 68.2969C65.9193 68.6908 65.1314 68.9534 64.2122 69.3473C57.2526 72.2362 47.9293 75.9129 45.0404 76.9634C44.7778 77.0947 44.5152 77.226 44.5152 77.226Z" fill="#3885F2"/>
<path d="M36.3737 109.266C40.8384 110.185 45.3031 111.104 49.7677 112.024C49.899 112.024 49.899 112.024 50.0303 112.024C50.5556 114.519 52.9192 119.902 52.7879 119.114C51.4748 112.811 50.293 106.509 49.1111 100.074V99.9429C47.798 92.1956 46.4849 84.5795 45.4344 76.8321C44.9091 77.0947 44.6465 77.0947 44.6465 77.0947L44.3839 78.1452C45.697 87.731 47.2728 97.1854 49.1111 106.64C45.697 104.408 42.2829 102.175 38.8687 99.8116L38.4748 101.125C42.0202 103.62 45.697 106.115 49.3738 108.347C49.5051 109.135 49.6364 109.923 49.7677 110.71L36.7677 107.953L36.3737 109.266Z" fill="black"/>
<path d="M131.97 105.721L132.101 105.589C133.414 105.327 135.253 105.589 136.566 105.589C138.142 105.589 139.717 105.458 141.424 105.327C142.475 105.195 143.657 105.064 144.707 104.933C144.576 104.539 144.576 104.145 144.445 103.751C142.606 104.014 140.768 104.145 138.929 104.276C136.828 104.407 134.202 104.014 132.101 104.407C132.233 103.488 132.232 102.569 132.364 101.65C132.495 101.65 132.626 101.519 132.758 101.387C133.414 100.731 133.94 100.074 134.596 99.4177C134.859 99.4177 135.121 99.2863 135.121 99.0237C137.748 98.6298 140.505 98.2358 143.263 97.8419C143.132 97.448 143.132 97.054 143 96.5288C140.899 96.7914 138.667 97.1854 136.566 97.448C138.404 95.7409 140.374 94.1652 142.212 92.4581C142.081 91.9329 142.081 91.4077 141.95 91.0137C139.455 93.246 136.828 95.347 134.334 97.7106C134.071 97.7106 133.94 97.9732 133.94 98.1045C133.414 98.6298 133.02 99.0237 132.495 99.549C133.152 91.2763 133.808 82.8724 134.465 74.5998C134.071 74.3372 133.677 74.3372 133.677 74.3372C133.677 74.3372 133.546 74.3372 133.152 74.2058C132.364 84.4481 131.576 94.6904 130.788 104.801C130.657 104.933 130.657 105.064 130.657 105.327V105.458C130.657 105.852 130.657 106.115 130.525 106.508C130.525 106.64 130.525 106.64 130.525 106.771C130.263 110.973 129.869 115.306 129.475 119.508C129.606 119.377 131.576 110.579 131.97 105.721Z" fill="black"/>
<path d="M105.313 120.296C105.313 121.609 105.313 123.054 105.313 124.236C109.909 109.923 114.505 95.4783 119.889 81.428C120.02 81.1654 119.889 80.9028 119.758 80.7714C118.576 79.721 117.525 78.8018 116.344 77.7513C116.475 77.62 116.475 77.62 116.475 77.4887C117.394 76.7008 119.101 76.3069 120.152 75.7816C120.414 75.6503 120.546 75.1251 120.414 74.8624C118.97 72.7614 117.394 70.6605 116.081 68.5595C115.95 68.2969 115.424 67.6403 114.768 66.7211C113.98 66.3272 113.323 66.0646 112.667 65.6706C112.929 65.9332 113.061 66.1959 113.192 66.4585C114.899 69.3473 116.869 72.2362 118.839 74.9937C118.182 75.2564 117.525 75.519 116.869 75.7816C116.212 76.0442 115.687 76.4382 115.293 76.8321C112.667 74.3372 110.041 71.8423 107.546 69.3473C107.546 69.8726 107.414 70.3978 107.414 71.0544C110.828 74.4685 114.374 77.7513 118.051 81.0341C119.364 82.0846 116.212 87.8623 115.818 89.1754C115.03 91.539 114.243 93.7713 113.455 96.1349C110.566 104.145 107.94 112.155 105.313 120.296Z" fill="black"/>
<path d="M58.5657 87.2057C58.5657 89.0441 60.0102 91.4077 60.798 93.1147C64.7374 102.438 68.9395 111.63 73.2728 120.69V117.67C69.8587 110.448 66.4445 103.226 63.4243 96.0036C62.3738 93.3774 61.192 90.8824 60.1415 88.1249C59.3536 85.8926 62.899 83.2664 64.3435 81.9533C67.2324 79.327 70.2526 76.7008 73.2728 74.2059V72.6301C70.6465 74.7311 68.1516 76.8321 65.6566 79.0644L61.7172 74.5998C63.4243 72.4988 65.1314 70.2665 66.9698 68.1655C66.1819 68.5595 65.394 68.8221 64.4748 69.216L60.4041 74.2059C60.1415 74.4685 60.1415 74.8624 60.4041 75.1251C61.8485 76.7008 63.293 78.4078 64.7374 79.9836C63.4243 81.1654 62.2425 82.3472 60.9293 83.529C60.0102 84.5795 58.5657 85.63 58.5657 87.2057Z" fill="black"/>
<path d="M121.071 157.326C121.071 157.72 121.596 157.851 121.859 157.72H121.99C122.253 157.589 122.515 157.326 122.384 156.932C122.647 156.669 123.303 155.75 123.303 155.75C123.566 155.488 123.828 155.094 124.091 154.7C124.748 153.912 125.404 153.255 126.061 152.468L125.929 150.76C125.142 151.548 124.354 152.336 123.697 153.255C122.909 154.306 120.94 156.013 121.071 157.326Z" fill="black"/>
<path d="M120.283 149.71C120.677 149.71 120.808 149.447 120.94 149.185C123.303 147.215 125.667 145.114 128.03 142.882L127.637 141.437C125.01 143.932 122.253 146.296 119.495 148.659C118.97 149.185 119.758 150.104 120.283 149.71Z" fill="black"/>
<path d="M56.7273 138.286L56.99 139.862C59.4849 141.043 62.2425 141.963 64.8688 143.013C65.6566 143.276 65.9193 142.094 65.2627 141.831C62.5051 140.649 59.4849 139.73 56.7273 138.286Z" fill="black"/>
<path d="M59.6162 145.902C60.9294 146.821 62.2425 147.74 63.4243 148.659C64.0809 149.185 65.0001 148.266 64.3435 147.74C62.8991 146.558 61.3233 145.508 59.7475 144.458L59.6162 145.902Z" fill="black"/>
<path d="M36.2425 141.963C39.6566 143.67 43.2021 145.508 46.4849 147.346L44.5152 145.902L45.4344 145.377C42.9394 144.064 40.4445 142.75 37.9495 141.437C37.9495 141.175 37.6869 140.912 37.293 140.781C37.0303 140.781 36.7677 140.781 36.5051 140.781C35.9798 140.649 35.7172 141.569 36.2425 141.963Z" fill="black"/>
<path d="M37.9495 148.134C40.5758 149.71 43.3334 151.023 46.0909 152.074L45.697 150.498C43.596 149.579 41.495 148.659 39.5253 147.478C39.5253 147.215 39.394 147.084 39.1313 146.952C38.8687 146.952 38.7374 146.821 38.4748 146.821C37.8182 146.821 37.2929 147.74 37.9495 148.134Z" fill="black"/>
<path d="M28.3636 138.548C30.9899 137.367 33.7475 136.316 36.3738 135.397C37.1616 135.134 36.7677 133.821 35.9798 134.215C34.0101 134.872 31.9091 135.66 29.9394 136.579L30.202 136.841L28.3636 138.548Z" fill="black"/>
<path d="M132.626 149.316H132.758C134.859 148.266 138.273 146.952 139.98 145.114C143 146.165 146.02 146.952 149.041 147.74C149.828 147.872 150.222 146.69 149.435 146.558C146.414 145.771 143.394 144.983 140.374 143.932L140.243 143.801L140.111 143.67C139.717 143.538 139.455 143.67 139.192 143.932C139.192 143.932 139.192 144.064 139.061 144.064C138.929 144.195 138.929 144.326 138.929 144.458C138.142 145.245 137.091 146.033 135.778 146.558L135.909 146.69L132.626 149.316Z" fill="black"/>
<path d="M134.334 144.851L135.253 145.771C136.566 144.195 138.01 142.488 138.536 140.649C140.505 140.649 142.606 140.649 144.576 140.387C145.364 140.256 145.364 139.074 144.576 139.074C142.344 139.336 140.243 139.336 138.01 139.205C137.748 139.205 137.485 139.468 137.354 139.73C136.96 141.7 135.647 143.276 134.334 144.851Z" fill="black"/>
<path d="M121.071 183.851C121.071 183.851 121.202 183.851 121.071 183.851C121.596 183.851 121.859 184.114 121.859 184.507C121.859 184.507 121.859 184.507 121.859 184.639C121.859 184.77 121.727 185.033 121.727 185.033C122.253 185.427 122.647 185.952 122.909 186.608C123.303 187.265 123.697 188.053 124.091 188.709C125.142 190.548 126.061 192.255 127.111 194.093C129.081 197.639 131.051 201.315 133.02 204.861C133.414 205.649 132.364 206.174 131.97 205.517C129.738 201.578 127.637 197.639 125.404 193.699C124.354 191.861 123.435 190.154 122.384 188.316C121.727 187.134 120.677 185.821 120.546 184.507C120.414 184.245 120.808 183.851 121.071 183.851Z" fill="black"/>
<path d="M49.5051 207.881C54.6263 202.103 59.6162 196.194 64.6061 190.285C65.1314 189.629 64.2122 188.709 63.6869 189.366C59.091 195.012 54.3637 200.527 49.6364 205.911L49.5051 207.881Z" fill="black"/>
<path d="M49.3738 212.608C53.4445 208.275 57.5152 204.073 61.8485 200.002C62.5051 199.477 61.5859 198.558 60.9293 199.083C56.9899 202.891 53.1819 206.699 49.5051 210.639L49.3738 212.608Z" fill="black"/>
<path d="M72.4849 204.992C77.7375 205.255 82.99 205.386 88.1112 205.649C88.1112 204.467 88.1112 203.285 88.1112 202.235L85.4849 201.841C83.5152 201.578 80.1011 200.396 78.0001 200.921C78.0001 201.053 77.8688 201.184 77.6061 201.315H77.4748C77.2122 201.447 76.9496 201.315 76.6869 201.053L76.5556 200.921C76.4243 200.659 76.4243 200.134 76.8183 200.002C78.394 199.214 80.3637 199.74 81.9395 200.002C83.9092 200.265 86.0102 200.659 87.9799 200.921C87.9799 197.901 87.9799 194.75 87.9799 191.73C87.9799 190.942 89.293 190.942 89.293 191.73C89.293 194.881 89.293 198.033 89.293 201.184C89.4243 201.184 89.4243 201.184 89.5556 201.184C91.6567 201.447 93.6263 201.841 95.7274 202.103C95.8587 199.346 95.99 196.588 96.1213 193.831C96.1213 193.043 97.4344 193.043 97.4344 193.831C97.3031 196.72 97.1718 199.477 97.0405 202.366C100.323 202.891 103.737 203.416 107.02 203.942C107.808 204.073 107.546 205.255 106.626 205.123C103.344 204.598 100.192 204.073 96.9092 203.679L96.7779 206.174C99.2728 206.437 101.636 206.699 104.131 207.487C104.919 207.75 104.525 208.931 103.737 208.669C101.505 208.012 99.1415 207.618 96.6466 207.356L96.1213 217.729L96.2526 217.861C96.7779 218.255 96.5152 219.042 95.99 219.042C95.8587 222.719 95.5961 226.527 95.4647 230.204C95.4647 230.467 95.3334 230.598 95.0708 230.729V221.931L94.4142 224.032C94.5455 222.194 94.5455 220.224 94.6769 218.386C92.9698 217.204 91.394 216.022 89.8183 214.709C88.1112 213.396 87.8486 212.608 87.8486 210.376C87.8486 209.194 87.8486 208.144 87.8486 206.962C82.596 206.699 77.3435 206.568 72.2223 206.305C71.5657 206.305 71.5657 204.992 72.4849 204.992ZM95.7274 203.285C94.8082 203.154 93.889 203.022 92.9698 202.891C91.788 202.76 90.6061 202.497 89.293 202.366C89.293 203.416 89.293 204.336 89.293 205.386C89.293 205.517 89.293 205.649 89.293 205.78C89.4243 205.78 89.4243 205.78 89.5556 205.78C91.5253 205.911 93.495 205.911 95.4647 206.043C95.5961 205.123 95.7274 204.204 95.7274 203.285ZM90.0809 213.002C91.6566 214.315 93.3637 215.628 95.0708 216.81C95.2021 213.659 95.3334 210.376 95.4647 207.224C93.3637 207.093 91.2627 207.093 89.293 206.962C89.1617 209.063 89.0304 212.083 90.0809 213.002Z" fill="black"/>
<path d="M49.6364 361.515C50.0303 361.515 50.4243 361.778 50.6869 362.041C50.6869 361.909 50.5556 361.647 50.5556 361.515C50.4243 361.253 50.4243 360.99 50.6869 360.727C52 359.414 53.5758 358.495 53.8384 356.919C50.0303 356.788 46.0909 356.788 42.2829 357.051L42.4142 355.738C46.2223 355.606 49.899 355.475 53.7071 355.606C53.4445 354.687 53.3132 353.768 53.3132 352.717C49.7677 352.717 46.2223 352.717 42.5455 352.717L42.6768 351.404C46.2223 351.404 49.7677 351.404 53.3132 351.404C53.3132 350.485 53.4445 349.697 53.4445 348.778L54.3637 330.132C54.6263 324.354 54.8889 318.577 55.2829 312.799C55.6768 306.627 57.3839 300.324 56.3334 294.153C56.0708 292.839 55.5455 291.526 55.0202 290.213C53.9697 289.163 52.7879 288.244 51.7374 287.193C51.0808 286.668 52 285.749 52.6566 286.274L54.3637 287.85C54.3637 287.718 54.3637 287.718 54.3637 287.587C54.2324 286.405 54.2324 285.092 54.2324 283.91C53.1819 282.86 52.2627 281.809 51.2122 280.759C50.6869 280.234 51.4748 279.314 52.1314 279.84C52.9192 280.628 53.7071 281.284 54.3637 282.072C54.495 281.284 54.495 280.496 54.6263 279.84C55.2829 273.537 55.9394 267.102 56.596 260.799C57.9091 248.062 59.3536 235.456 60.798 222.719C60.9293 221.931 62.1112 221.931 62.1112 222.719C60.798 234.143 59.4849 245.567 58.3031 256.991C57.7778 262.507 57.1213 268.022 56.596 273.537C56.3334 276.819 55.6768 280.102 55.6768 283.385C60.2728 288.375 64.4748 293.759 68.1516 299.405C68.4142 299.93 67.7576 300.718 67.2324 300.324C63.8182 297.698 60.4041 294.809 57.2526 291.92C58.4344 295.991 58.3031 300.062 57.7778 304.395C56.9899 310.041 56.596 315.688 56.3334 321.465C56.0708 327.243 55.6768 333.021 55.4142 338.93L55.0202 347.596C55.0202 348.909 54.8889 350.223 54.8889 351.404C56.596 351.404 58.3031 351.404 60.0102 351.404C60.798 351.404 60.798 352.717 60.0102 352.717C58.3031 352.717 56.596 352.717 54.8889 352.717C54.8889 353.768 55.0202 354.687 55.4142 355.738C55.8081 355.738 56.0708 355.738 56.4647 355.738C57.2526 355.738 57.2526 357.051 56.4647 357.051C56.3334 357.051 56.0708 357.051 55.9394 357.051C56.0708 357.313 56.0708 357.576 55.8081 357.839L52.6566 360.859C52.1314 361.384 52.6566 362.566 52.7879 363.354C53.8384 364.01 54.8889 364.667 55.9394 365.323C56.4647 365.586 49.7677 362.828 48.9798 362.828C47.1414 362.96 45.4344 363.616 43.7273 363.748L44.7778 362.303C46.2223 362.172 47.9293 361.647 49.6364 361.515ZM64.6061 296.91C61.8485 292.839 58.8283 289.031 55.5455 285.486C55.6768 286.93 55.8081 288.244 56.2021 289.557C58.9596 292.183 61.7172 294.547 64.6061 296.91Z" fill="black"/>
<path d="M93.4951 362.697C97.5658 360.859 101.768 359.808 105.97 358.627C106.364 358.495 106.758 358.364 107.283 358.233C106.758 359.02 106.232 359.808 105.707 360.465C105.445 360.728 105.445 361.253 105.839 361.515C105.97 361.647 106.101 361.647 106.232 361.778C105.97 361.909 105.576 362.041 105.313 362.172C103.344 363.091 99.6668 365.849 97.3031 365.586C96.9092 365.586 96.5153 365.98 96.6466 366.374V366.505C96.7779 366.768 97.0405 367.03 97.4345 366.899C97.4345 366.899 97.4345 366.899 97.5658 366.899C97.5658 366.899 97.5658 366.899 97.6971 366.899C100.192 366.899 103.737 364.404 105.97 363.354C106.364 363.091 106.889 362.96 107.283 362.697C107.677 363.354 107.414 364.01 107.152 365.455C107.02 366.243 108.202 366.637 108.333 365.849L108.99 362.435C108.99 362.303 108.99 362.041 108.99 361.909C110.434 361.253 111.748 360.465 113.192 359.808L112.142 358.889C110.697 359.677 109.121 360.334 107.677 361.121C107.546 360.99 107.283 360.859 107.152 360.859C107.94 359.94 108.596 358.889 109.121 357.839C110.697 357.313 112.273 356.788 113.849 356.394L114.768 355.081V354.818C113.061 355.212 111.354 355.606 109.778 356.132C112.667 349.172 111.879 341.031 112.535 333.546C113.192 326.718 114.636 319.89 115.556 313.061C116.475 307.021 116.606 301.112 117 295.072C117.131 293.759 117.394 292.577 117.657 291.526C118.707 291.264 119.626 290.87 120.546 290.607C122.121 290.082 123.828 289.425 125.404 288.9L125.667 287.456C123.172 288.244 120.546 289.163 118.051 290.082C118.576 288.506 119.101 287.062 119.495 285.355C119.626 285.092 119.626 284.698 119.758 284.436C120.677 284.042 121.596 283.516 122.515 283.122C123.96 282.466 125.273 281.809 126.717 281.153L126.98 279.577C126.849 279.708 126.586 279.708 126.455 279.84C124.616 280.759 122.647 281.678 120.808 282.466L120.02 282.86C120.283 280.89 120.414 278.92 120.677 276.819C121.333 269.86 122.121 262.9 123.172 256.072C125.01 242.941 127.505 229.941 130.394 216.941C130.525 216.154 129.344 215.76 129.212 216.548C126.323 229.022 123.96 241.628 122.121 254.365C121.202 260.537 120.414 266.84 119.758 273.011C119.364 276.426 119.495 280.102 118.707 283.385L108.333 288.244C107.677 288.506 108.202 289.688 108.859 289.425C109.121 289.294 109.384 289.294 109.647 289.163C109.778 289.163 109.909 289.031 109.909 288.9C112.667 287.587 115.424 286.274 118.182 284.961C117.525 286.799 116.738 288.506 116.344 290.476C113.192 291.658 109.515 292.577 106.889 294.678C106.232 295.203 107.152 296.122 107.808 295.597C110.041 293.89 113.061 292.708 116.081 291.789C115.293 297.435 115.556 303.213 114.899 308.991C114.111 315.425 112.798 321.728 111.879 328.162C111.091 333.677 110.96 339.192 110.697 344.708C110.434 348.778 109.909 352.718 108.202 356.263C107.414 356.526 106.495 356.788 105.707 356.919C101.374 358.101 97.0405 359.283 92.8385 361.121C92.1819 361.909 92.8385 362.96 93.4951 362.697Z" fill="black"/>
<path d="M146.02 198.82L142.212 199.477L129.869 188.316L146.02 198.82Z" fill="black"/>
<path d="M54.7576 185.689L42.4142 198.295L45.4344 199.477L54.7576 185.689Z" fill="black"/>
<path d="M50.0303 112.024L48.7172 135.528L53.5758 122.397L51.2121 111.104L50.0303 112.024Z" fill="black"/>
<path d="M128.95 123.71L130.657 105.458L132.626 137.235L128.95 123.71Z" fill="black"/>
<path d="M100.717 217.992L77.8688 213.79L93.3637 228.497L95.3334 221.931V232.699L100.717 217.992Z" fill="black"/>
<path d="M269.089 66.1959C268.564 66.4585 270.008 72.6301 269.745 75.6503C269.483 78.5392 256.089 84.7108 253.594 86.0239C253.463 86.0239 253.331 86.1552 253.331 86.1552C253.331 86.1552 232.978 74.7311 232.321 74.7311C231.927 74.7311 223.26 68.0342 217.351 63.4383C217.22 63.307 216.957 63.1757 216.826 63.0444C215.25 61.8626 213.937 60.8121 213.149 60.1556C213.018 60.0242 212.755 59.8929 212.624 59.7616C212.361 59.499 212.099 59.3677 211.968 59.2364C210.654 58.3172 212.23 57.1354 213.806 56.8728C214.725 56.6101 213.149 53.7213 211.836 51.3577C211.705 51.2264 211.574 50.9637 211.574 50.8324C211.048 49.7819 210.523 48.9941 210.26 48.6001C209.604 47.1557 216.432 44.9234 219.584 42.9537C222.21 41.378 223.523 38.6205 225.755 36.9134C225.887 36.7821 226.149 36.6508 226.281 36.5195C226.675 36.2569 227.069 36.1256 227.462 35.8629L232.846 37.0447L233.24 37.176L236.786 32.3175L238.755 33.1054L243.614 35.0751L245.715 35.8629C245.715 35.8629 247.553 38.6205 248.079 39.277C248.079 39.4083 248.341 39.4083 248.735 39.5396C250.968 40.1962 257.796 41.2467 258.584 41.2467C258.846 41.2467 260.16 43.0851 261.867 45.7113C261.998 45.9739 262.261 46.2365 262.392 46.6305C262.917 47.4183 263.442 48.2062 263.836 48.9941C263.968 49.2567 264.23 49.5193 264.362 49.7819C265.806 52.1456 267.382 54.7718 268.695 57.0041C268.826 57.2667 268.957 57.5293 269.089 57.6606C270.665 60.4182 271.715 62.5192 271.715 63.1757C271.584 64.7514 269.614 65.9333 269.089 66.1959Z" fill="#F66957"/>
<path d="M262.129 46.3679C259.634 45.7113 257.008 45.1861 254.513 44.5295C251.624 43.8729 249.523 42.2972 247.816 39.8023C247.291 39.1457 246.897 38.3579 246.503 37.7013C245.715 36.3882 244.665 36.1256 243.351 35.6003C241.776 35.0751 240.331 34.5498 238.755 33.8933C238.23 33.6306 237.574 33.368 237.048 32.8428C236.917 32.7115 235.735 34.1559 235.604 34.2872C234.422 35.7316 233.24 37.3074 232.19 38.8831C231.927 39.277 231.402 38.8831 231.665 38.6205C232.058 38.0952 232.321 37.7013 232.715 37.1761C234.028 35.469 235.341 33.762 236.786 32.1862C236.917 32.0549 237.18 32.0549 237.18 32.1862C237.574 32.5802 237.968 32.9741 238.493 33.2367C239.937 34.1559 241.644 34.5498 243.351 35.2064C244.008 35.469 244.665 35.6003 245.19 35.9943C245.19 35.9943 245.321 35.9943 245.321 36.1256C246.634 36.7821 247.422 38.3579 248.341 39.8023C248.735 40.3275 248.998 40.8528 249.392 41.378C251.624 43.7416 254.25 44.2669 257.271 44.9234C258.584 45.1861 260.028 45.58 261.341 45.9739C261.735 45.7113 261.867 45.9739 262.129 46.3679Z" fill="black"/>
<path d="M264.099 49.5193C263.18 49.2567 262.392 48.9941 261.473 48.8628C258.321 47.9436 255.17 47.1557 252.149 46.1052C249.523 45.1861 247.422 43.8729 245.321 42.1659C244.008 41.1154 242.826 40.1962 241.513 39.1457C240.725 38.6205 240.462 38.0952 239.543 38.6205C238.887 39.0144 238.23 39.4083 237.705 39.8023C237.311 40.0649 237.048 39.4083 237.442 39.277C238.361 38.7518 239.281 38.0952 240.331 37.57C240.463 37.4387 240.594 37.57 240.725 37.57C243.089 39.4083 245.321 41.378 247.685 43.0851C250.048 44.7921 252.675 45.58 255.432 46.3679C258.19 47.1557 260.947 48.0749 263.836 48.7315H263.968C263.836 48.8628 263.968 49.2567 264.099 49.5193Z" fill="black"/>
<path d="M268.826 57.398C264.624 56.7415 260.422 55.8223 256.351 54.6405C254.644 54.1152 252.806 53.7213 251.361 52.6708C250.18 51.7516 249.26 50.5698 248.473 49.388C247.422 47.8123 246.766 46.2365 244.927 45.4487L239.412 42.8224C239.018 42.6911 239.412 42.0346 239.675 42.2972C241.382 43.0851 242.957 43.8729 244.533 44.6608C245.584 45.186 246.634 45.7113 247.291 46.6305C249.129 49.388 250.574 52.2769 253.988 53.3274C257.402 54.5092 260.947 55.4283 264.493 56.0849C265.675 56.3475 266.988 56.4788 268.17 56.7415C268.564 56.8728 268.695 57.1354 268.826 57.398Z" fill="black"/>
<path d="M231.271 41.378C229.038 40.3275 227.069 38.7518 225.624 36.6508C225.755 36.5195 226.018 36.3882 226.149 36.2569C227.594 38.2265 229.432 39.671 231.664 40.7215C231.927 41.1154 231.665 41.6406 231.271 41.378Z" fill="black"/>
<path d="M227.2 42.6911C226.018 43.0851 224.836 43.3477 223.654 43.6103C222.473 43.8729 221.553 43.8729 220.766 44.9234C219.715 46.2365 218.271 47.4183 216.957 48.3375C215.25 49.5193 213.543 50.4385 211.705 51.3577C211.574 51.2264 211.442 50.9637 211.442 50.8324C213.412 49.9133 215.382 48.8628 217.089 47.5496C218.008 46.8931 218.927 46.1052 219.715 45.3174C220.109 44.9234 220.503 44.0042 221.028 43.6103C221.816 43.2164 223.26 43.0851 224.18 42.9537C225.23 42.6911 226.149 42.4285 227.2 42.1659C227.331 41.9033 227.594 42.5598 227.2 42.6911Z" fill="black"/>
<path d="M222.21 52.6708C219.978 54.9031 217.483 57.0041 214.856 58.8424C214.2 59.2364 213.543 59.6303 213.018 60.1556C212.887 60.0242 212.624 59.8929 212.493 59.7616C212.755 59.499 213.018 59.3677 213.149 59.2364C214.069 58.5798 214.988 57.9233 215.907 57.2667C218.008 55.691 219.846 53.9839 221.685 52.1456C222.079 52.0142 222.473 52.4082 222.21 52.6708Z" fill="black"/>
<path d="M222.21 58.3172C220.109 59.6303 218.402 61.3374 217.22 63.4383C217.089 63.307 216.826 63.1757 216.695 63.0444C218.008 60.9434 219.846 59.1051 221.947 57.7919C222.21 57.5293 222.604 58.0546 222.21 58.3172Z" fill="black"/>
<path d="M269.745 75.6503C269.483 78.5392 256.089 84.7108 253.594 86.0239L246.24 81.9533L240.988 67.509L253.331 60.0242L269.22 66.1959C268.564 66.5898 270.008 72.7615 269.745 75.6503Z" fill="black"/>
<path d="M299.16 152.336C299.16 152.861 293.382 162.316 293.382 162.316C293.382 162.316 286.816 163.235 286.816 162.316C286.816 161.397 273.553 143.013 274.21 142.619C274.867 142.225 284.321 100.862 284.452 100.206C284.452 100.862 294.564 120.428 295.483 122.135C295.483 122.266 295.483 122.266 295.483 122.266L294.17 124.104L293.644 124.892L295.483 127.518C295.483 127.387 299.16 151.811 299.16 152.336Z" fill="#3885F2"/>
<path d="M280.644 125.943L289.442 141.306L285.766 140.649L283.008 139.468L280.119 139.205L280.644 125.943Z" fill="black"/>
<path d="M195.553 210.901C195.553 211.82 192.796 230.86 192.927 231.517C193.19 232.174 194.24 237.163 194.24 237.163L201.594 241.497L202.907 212.739L195.553 210.901Z" fill="#FFA895"/>
<path d="M203.301 237.689C200.675 237.557 198.967 236.77 198.836 233.881C198.836 232.436 198.836 230.992 198.836 229.679C198.836 227.315 197.786 226.002 196.735 223.901C196.341 223.113 195.159 223.77 195.553 224.558C196.473 226.265 197.523 227.709 197.523 229.679C197.523 231.78 197.523 233.881 197.654 236.113C197.786 238.608 201.462 239.133 203.301 239.133C204.22 239.002 204.22 237.689 203.301 237.689Z" fill="black"/>
<path d="M195.553 210.901L194.634 218.78L202.644 220.487L202.907 212.739L195.553 210.901Z" fill="#F9F8EF"/>
<path d="M195.422 212.346L202.907 213.659L202.513 217.073L195.422 212.346Z" fill="black"/>
<path d="M203.957 213.921L193.058 211.952L210.129 157.983L203.957 213.921Z" fill="#3885F2"/>
<path d="M206.715 168.488L200.543 188.053L204.351 211.689" fill="black"/>
<path d="M207.634 180.174C207.634 180.174 201.988 207.356 200.675 240.84C199.23 274.325 200.018 284.042 200.018 284.042L203.826 295.072V298.617L216.301 348.122L222.341 351.01L218.927 356.394L220.897 362.435C220.897 362.435 229.17 363.222 232.321 362.435C235.604 361.647 242.957 357.445 242.826 356.788C242.695 356.132 239.806 347.071 239.806 347.071C238.23 346.152 238.493 343.526 238.493 343.526L232.715 324.617C232.715 324.617 233.372 323.435 233.372 323.041C233.372 322.516 225.624 287.718 225.624 287.718C225.624 287.718 222.735 285.617 223.26 285.355C223.786 285.092 226.281 283.516 226.281 283.516L252.281 180.174H207.634Z" fill="#3885F2"/>
<path d="M219.715 180.174L223.129 210.901L227.988 217.335L241.776 308.072C241.776 308.072 241.25 351.93 241.382 352.455C241.513 352.849 238.099 358.101 238.099 358.101L240.331 360.202C240.331 360.202 238.23 368.606 239.412 368.738C247.685 369.657 255.695 374.384 255.695 374.778C255.695 375.172 263.442 311.092 263.442 311.092L266.2 180.306H219.715V180.174Z" fill="#3885F2"/>
<path d="M228.25 218.386C228.907 218.649 229.564 218.911 230.22 219.174C231.008 219.436 231.271 218.255 230.614 217.861C228.644 217.073 226.675 216.285 224.705 215.628C224.311 213.79 224.048 211.82 223.654 209.982C224.836 210.77 226.149 211.426 227.331 212.214C227.2 212.608 227.462 213.133 227.856 213.002C228.119 213.002 228.513 213.002 228.776 213.002C229.432 213.002 229.695 212.083 229.038 211.82C227.856 211.164 226.806 210.507 225.624 209.719C225.361 201.447 225.23 193.043 225.099 184.77C225.099 183.982 223.786 183.982 223.786 184.77C223.917 192.78 224.048 200.921 224.311 208.931C223.917 208.669 223.654 208.538 223.26 208.275C221.816 199.871 220.24 191.336 218.796 182.932L219.584 180.568L215.776 175.578L211.968 175.447L210.523 208.012L218.008 185.558C219.321 192.911 220.503 200.134 221.816 207.487C220.109 206.437 218.271 205.386 216.563 204.336C215.907 203.942 215.25 204.992 215.907 205.517C218.008 206.83 220.109 208.012 222.079 209.325C222.473 211.295 222.735 213.396 223.129 215.366C221.291 214.709 219.452 214.184 217.614 213.659C216.826 213.396 216.432 214.709 217.22 214.972C219.321 215.497 221.291 216.154 223.392 216.81C223.523 217.335 224.048 217.335 224.442 217.073C225.23 217.335 225.887 217.598 226.543 217.861C229.564 228.891 233.372 254.628 233.372 253.84C232.978 242.547 231.139 229.416 228.25 218.386Z" fill="black"/>
<path d="M229.17 224.164L227.2 214.709L215.907 214.447L229.17 224.164Z" fill="black"/>
<path d="M210.392 215.103L210.654 224.558L201.594 225.477L201.856 222.85L210.392 215.103Z" fill="black"/>
<path d="M231.139 189.497L232.19 225.345L265.018 235.062L265.281 216.679L231.139 189.497Z" fill="black"/>
<path d="M284.452 100.206L266.2 180.174H210.129L214.069 109.923L233.109 90.0946L226.149 70.0039L244.796 61.3374L250.836 79.4583L257.008 83.2664L261.735 86.1552L263.442 87.2057L284.452 100.206Z" fill="#F9F8EF"/>
<path d="M243.614 103.882C240.331 98.1046 237.18 92.3269 234.291 86.4178C233.897 85.63 232.846 86.2865 233.109 87.0744C233.24 87.337 233.372 87.4683 233.503 87.731C233.372 87.8623 232.846 89.8319 232.846 89.9633C228.513 94.1652 228.907 97.0541 225.755 100.993C225.23 101.65 225.887 103.226 226.412 102.569C229.564 98.6298 232.321 93.7713 234.291 89.1754C236.917 94.4278 239.806 99.549 242.695 104.67C243.22 105.327 244.008 104.539 243.614 103.882Z" fill="black"/>
<path d="M226.937 101.125L213.281 177.154H210.654L211.967 130.276L226.937 101.125Z" fill="black"/>
<path d="M210.129 175.578L235.341 176.366L236.392 185.952L210.129 184.376V175.578Z" fill="black"/>
<path d="M214.069 175.71L214.331 184.639L226.937 185.295L227.462 176.104L214.069 175.71Z" fill="#F66957"/>
<path d="M234.685 88.9128L238.23 96.6601L234.685 99.6803L227.069 173.609L219.715 180.7L214.331 173.609L232.19 100.206L230.089 97.448L232.978 89.9633L234.685 88.9128Z" fill="#F66957"/>
<path d="M232.978 89.9633L250.574 79.4583L244.533 61.3374L225.887 70.0039L232.978 89.9633Z" fill="#FFA895"/>
<path d="M284.452 100.206C284.19 101.65 275.654 148.397 275.654 174.003V184.508C275.654 205.911 275.654 222.85 275.654 222.85H234.028C234.028 222.85 231.796 202.629 230.745 180.174C229.957 161.791 229.957 141.831 232.715 130.145C239.018 104.014 256.483 83.0037 256.745 83.2664L261.473 86.1552L263.18 87.2057L284.452 100.206Z" fill="#3885F2"/>
<path d="M264.887 92.0642C262.786 92.9834 258.846 93.9026 259.766 96.6601C260.291 98.2359 260.816 101.256 261.867 102.7C261.867 102.7 261.867 102.7 261.998 102.7C262.392 102.832 262.392 103.226 262.26 103.62V103.751C262.129 104.145 261.473 104.145 261.21 103.882C260.291 102.963 260.159 101.387 259.634 100.206C258.978 98.3672 258.321 96.6601 257.796 94.8218C257.665 94.5592 257.796 94.2965 258.058 94.0339C259.897 92.9834 261.735 92.0642 263.574 91.1451C262.654 89.438 261.867 87.731 261.341 86.0239L263.048 87.0744C263.574 88.5188 264.23 89.8319 265.018 91.1451C265.281 91.539 265.281 91.9329 264.887 92.0642Z" fill="black"/>
<path d="M232.978 89.9633C232.19 90.7511 222.998 105.852 217.483 127.256C217.22 128.306 216.957 129.357 216.695 130.539C215.119 137.104 214.069 144.064 213.543 151.417C211.442 184.901 210.129 222.85 210.129 222.85H201.856L208.816 146.033L210.129 105.064L216.826 100.6L218.402 99.549L232.978 89.9633Z" fill="#3885F2"/>
<path d="M247.291 97.448L284.452 104.276L278.937 163.235L237.18 157.983L247.291 97.448Z" fill="black"/>
<path d="M247.291 97.448L252.149 98.3672L242.957 158.639L237.18 157.983L247.291 97.448Z" fill="#946870"/>
<path d="M239.543 143.801L250.705 150.892L250.968 144.72L239.543 143.801Z" fill="black"/>
<path d="M286.028 139.599L253.331 133.296L248.604 154.175L286.816 162.316L290.887 145.377L286.028 139.599Z" fill="#3885F2"/>
<path d="M254.907 58.9738C254.776 59.3677 254.513 61.7313 253.2 63.4384C251.887 65.2767 249.523 65.5393 249.523 65.5393C249.523 65.5393 248.341 71.0544 245.715 74.5998C243.089 78.1452 235.867 81.822 233.372 81.822C230.877 81.822 221.947 78.8018 221.947 78.8018L219.846 70.3979L221.685 65.6706C221.685 65.6706 221.685 65.5393 221.685 65.408C221.422 63.9636 220.24 56.3475 221.159 50.9638C221.291 50.3072 221.422 49.782 221.553 49.2567C221.685 48.7315 221.816 48.3375 222.079 47.8123C224.705 42.2972 228.382 36.3882 239.675 39.0144L244.533 52.1456L247.816 54.9031L250.18 56.8728V58.9738C250.18 58.9738 255.038 58.5798 254.907 58.9738Z" fill="#FFA895"/>
<path d="M224.574 50.4385C223.917 50.1759 223.129 50.1759 222.473 50.4385C222.079 50.5698 221.685 50.7011 221.291 51.0951C221.422 50.4385 221.553 49.9133 221.685 49.388C222.735 48.9941 224.048 48.9941 224.968 49.2567C225.624 49.5193 225.361 50.7011 224.574 50.4385Z" fill="#F66957"/>
<path d="M229.432 60.0243C228.382 60.2869 227.331 60.2869 226.281 59.8929C225.493 59.499 225.887 57.9233 225.887 57.2667C225.887 56.4788 224.705 56.4788 224.574 57.2667C224.442 58.4485 224.18 60.1556 225.361 60.9434C226.675 61.7313 228.25 61.8626 229.695 61.4687C230.614 61.0748 230.22 59.8929 229.432 60.0243Z" fill="black"/>
<path d="M251.361 56.6102C251.361 56.6102 251.23 57.0041 250.18 58.9738C250.048 59.1051 250.048 59.2364 249.917 59.3677C249.786 59.6303 249.786 59.7616 249.654 60.0243C249.129 62.2566 249.392 65.5393 249.392 65.5393C249.26 66.0646 248.473 69.4787 246.766 72.6302C246.372 73.2867 245.978 73.9433 245.584 74.5998C242.957 78.1452 235.735 81.822 233.24 81.822C230.745 81.822 221.816 78.8018 221.816 78.8018L219.715 70.3979L220.765 67.3777L221.422 65.408C221.422 65.408 222.21 63.701 223.917 63.8323C225.624 63.8323 226.937 63.701 226.937 63.701C226.937 63.701 230.22 61.7313 231.927 61.9939C233.634 62.2566 235.735 63.8323 235.735 63.8323C235.735 63.8323 236.392 63.8323 237.18 63.8323C237.574 63.8323 238.099 63.701 238.624 63.701C238.887 63.701 239.018 63.5697 239.281 63.5697C239.675 63.4384 240.2 63.307 240.725 63.1757C240.988 63.0444 241.119 63.0444 241.382 62.9131C242.038 62.6505 242.563 62.2566 243.089 61.8626C243.089 61.8626 243.22 61.8626 243.22 61.7313C243.351 61.6 243.483 61.4687 243.614 61.2061C244.664 60.1556 245.584 58.5798 246.372 57.0041C246.503 56.7415 246.634 56.6102 246.634 56.3475C246.897 55.691 247.159 55.1657 247.422 54.6405C247.947 53.59 248.21 52.9334 248.21 52.9334L250.311 54.2466L251.361 56.6102Z" fill="#F66957"/>
<path d="M222.604 67.509L223.129 73.812C223.129 73.812 227.069 73.812 230.22 73.5493C233.503 73.2867 237.442 71.4484 237.442 71.4484L235.473 64.8828L227.331 64.2262L222.604 67.509Z" fill="#FFA895"/>
<path d="M224.442 65.9333L224.968 68.0342C224.968 68.0342 226.543 68.6908 229.957 68.0342C233.372 67.3777 235.473 64.8828 235.473 64.8828L227.331 64.0949L224.442 65.9333Z" fill="white"/>
<path d="M237.048 48.4688C236.26 47.8123 235.341 47.287 234.159 47.1557C233.634 47.0244 232.978 47.0244 232.452 47.1557C232.058 47.287 231.665 47.287 231.402 47.4183C231.271 47.4183 230.22 47.9436 230.22 48.2062C230.089 48.6001 230.483 49.1254 230.877 48.9941C230.877 48.9941 230.877 48.9941 231.008 48.9941H231.139C231.796 48.8628 232.452 48.4688 233.109 48.3375C234.159 48.2062 235.341 48.6001 236.129 49.2567C236.786 49.9133 237.705 48.9941 237.048 48.4688Z" fill="#F66957"/>
<path d="M234.422 52.5395C234.947 53.59 234.685 54.7718 234.028 55.0344C233.372 55.297 232.452 54.7718 231.927 53.7213C231.402 52.6708 231.664 51.489 232.321 51.2264C232.978 50.9638 233.897 51.489 234.422 52.5395Z" fill="black"/>
<path d="M224.18 54.6405C224.574 55.5597 224.442 56.6101 223.786 56.8728C223.129 57.1354 222.341 56.6101 221.816 55.5597C221.422 54.6405 221.553 53.59 222.21 53.3274C222.998 53.0647 223.786 53.7213 224.18 54.6405Z" fill="black"/>
<path d="M237.574 63.8323C236.654 64.7515 235.473 65.5393 234.028 65.5393C231.139 65.5393 227.594 64.6201 227.331 64.2262C227.069 63.9636 226.937 66.3272 224.311 67.3777C222.867 68.0342 221.816 67.7716 221.159 67.3777L221.816 65.408C221.816 65.408 222.604 63.701 224.311 63.8323C226.018 63.8323 227.331 63.701 227.331 63.701C227.331 63.701 230.614 61.7313 232.321 61.9939C234.028 62.2565 236.129 63.8323 236.129 63.8323C236.129 63.8323 236.654 63.9636 237.574 63.8323Z" fill="black"/>
<path d="M249.523 65.6706C249.392 66.1959 249.261 69.0847 247.816 72.3675L246.897 72.8928C245.846 75.519 244.533 78.1452 243.22 79.4584C240.2 82.6098 230.351 82.8724 230.351 82.8724L225.23 81.6906L221.947 78.9331L224.836 78.0139L225.493 70.7918L231.008 70.1352L233.766 76.5695C233.766 76.5695 239.937 74.5998 242.564 72.4988C242.695 72.3675 242.826 72.2362 242.957 72.1049C241.513 69.3474 240.2 66.5898 238.755 63.701C239.018 63.701 239.149 63.5697 239.412 63.5697C240.725 66.1959 242.038 68.9534 243.483 71.5797C244.008 71.0544 244.533 70.5292 245.19 70.0039C244.402 69.0847 243.877 67.7716 243.351 66.8524C242.564 65.6706 241.776 64.3575 240.988 63.1757C241.25 63.0444 241.382 63.0444 241.644 62.9131C242.301 63.9636 242.957 65.0141 243.614 65.9333C244.008 66.5898 244.533 67.3777 245.058 68.0342C245.321 68.4282 245.584 68.9534 245.846 69.3474C246.634 68.5595 247.422 67.6403 248.079 66.9838C246.634 65.2767 244.796 63.4383 243.483 61.6C243.614 61.4687 243.745 61.3374 243.877 61.0747C245.19 63.0444 246.897 64.7515 248.473 66.4585C249.129 66.1959 249.523 65.6706 249.523 65.6706Z" fill="black"/>
<path d="M249.917 59.3677C249.786 59.6303 249.786 59.7616 249.654 60.0242C248.604 59.1051 247.553 58.0546 246.634 57.0041C246.766 56.7415 246.897 56.6101 246.897 56.3475C247.947 57.5293 248.998 58.5798 249.917 59.3677Z" fill="black"/>
<path d="M244.533 52.1456L250.18 58.9738H254.907L242.301 46.2366L244.533 52.1456Z" fill="black"/>
<path d="M217.483 127.387C217.22 128.438 216.957 129.488 216.695 130.67C214.988 120.69 214.331 110.579 216.826 100.731L218.402 99.6803C215.907 108.61 216.17 118.064 217.483 127.387Z" fill="black"/>
<path d="M293.513 150.367C292.331 148.659 291.018 146.952 289.836 145.245C289.048 144.195 288.129 143.013 287.473 141.831C288.129 142.094 288.786 142.225 289.442 142.488L290.755 142.882C290.887 142.882 291.675 143.013 292.069 143.144C292.069 143.276 292.2 143.407 292.331 143.538C292.331 143.538 292.331 143.538 292.463 143.538C292.856 143.67 293.119 143.538 293.382 143.276C293.382 143.276 293.382 143.276 293.513 143.144C293.644 143.013 293.644 142.619 293.513 142.488C292.988 141.831 291.937 141.7 291.149 141.437L287.21 140.256C287.079 140.256 286.947 140.256 286.947 140.256C286.816 139.993 286.816 139.73 286.685 139.336C286.685 139.074 286.291 138.811 286.028 138.811C280.119 138.549 258.321 133.69 252.937 133.033C252.149 132.902 252.149 134.215 252.937 134.347C261.079 135.266 268.695 138.023 276.705 139.336C278.543 139.599 284.846 139.074 285.634 140.781C287.21 143.932 289.574 146.952 291.806 149.841C291.675 150.104 291.806 150.235 291.937 150.498C292.2 150.76 292.463 150.892 292.594 151.154C293.119 151.548 294.038 151.023 293.513 150.367Z" fill="black"/>
<path d="M295.483 122.266L294.17 124.104C291.018 125.417 287.735 126.73 284.584 128.044C283.796 128.306 283.533 127.124 284.19 126.73C287.998 125.155 291.806 123.579 295.483 122.266C295.483 122.135 295.483 122.266 295.483 122.266Z" fill="black"/>
<path d="M242.957 123.185L242.432 126.337L247.159 126.074C247.159 126.074 248.473 115.832 250.968 115.044C253.463 114.256 253.331 117.67 252.937 118.852C252.675 120.034 251.624 124.761 252.018 126.73C252.281 128.7 253.2 133.165 253.2 133.165L250.311 146.165C250.311 146.165 245.19 145.114 241.644 144.326C238.099 143.538 235.867 141.963 235.867 141.569C235.867 141.306 235.735 135.003 235.867 133.033C235.998 131.064 236.786 127.912 236.786 126.599C236.917 125.286 237.574 124.63 238.23 124.236C238.887 123.842 242.957 123.185 242.957 123.185Z" fill="#FFA895"/>
<path d="M232.19 353.243C232.058 353.112 232.058 352.98 231.927 352.849C231.796 352.586 231.402 352.455 231.139 352.586C228.119 351.142 225.099 349.697 222.079 348.384C221.685 347.202 221.422 345.889 221.159 344.839C220.503 342.344 219.846 339.849 219.058 337.354L214.988 322.385C212.099 312.011 209.341 301.637 206.452 291.264C205.139 286.405 204.483 281.809 204.483 276.688C204.483 271.567 204.483 266.577 204.614 261.456C204.877 250.82 205.533 240.315 206.452 229.679C206.584 228.891 205.27 228.891 205.139 229.679C204.089 241.103 203.563 252.527 203.301 263.951C203.169 269.335 203.169 274.85 203.301 280.234C203.432 285.355 205.008 290.213 206.321 295.203C209.341 306.365 212.493 317.526 215.513 328.819C216.957 334.203 218.402 339.586 219.978 344.97C220.24 345.758 220.372 346.677 220.634 347.596C219.715 347.202 218.796 346.809 218.008 346.546C217.22 346.283 216.957 347.465 217.614 347.859C218.796 348.384 219.978 348.778 221.291 349.303C221.816 350.485 222.604 351.536 223.786 352.061L223.654 352.192C223.523 352.061 223.392 352.061 223.129 351.93C222.341 351.667 222.079 352.849 222.735 353.243C222.21 354.031 221.685 354.819 221.685 355.344C221.685 357.051 223.392 359.677 224.048 361.384C224.311 362.172 225.624 361.778 225.361 360.99C224.705 359.414 224.18 357.839 223.523 356.263C223.129 355.475 223.523 354.556 224.048 353.637C226.149 354.556 228.382 355.475 230.483 356.263C231.271 356.526 231.533 355.344 230.877 354.95C228.907 354.162 226.806 353.243 224.836 352.455C224.968 352.192 225.23 351.93 225.361 351.667C225.624 351.273 225.361 350.748 224.968 350.748C224.311 350.617 223.654 350.223 223.26 349.829C226.018 351.011 228.644 352.324 231.402 353.637C231.796 354.425 232.584 353.899 232.19 353.243Z" fill="black"/>
<path d="M257.402 308.334C252.675 304.789 247.947 301.375 243.22 297.961C242.038 291.132 242.038 283.91 241.776 276.951C241.382 266.183 241.119 255.547 241.119 244.78C241.119 243.992 239.806 243.992 239.806 244.78C239.806 256.335 240.069 267.89 240.594 279.446C240.856 284.83 241.119 290.213 241.513 295.728C241.513 296.122 241.644 296.516 241.644 296.91C241.382 296.779 241.25 296.648 240.988 296.516C240.331 295.991 239.675 297.173 240.331 297.698C240.856 298.092 241.382 298.486 241.776 298.749C242.038 300.062 242.301 301.375 242.564 302.688C243.351 305.708 245.058 308.203 245.321 311.354C245.846 316.738 245.321 322.516 245.321 327.9C245.321 333.94 245.321 339.98 245.321 346.021C245.321 348.647 245.321 351.142 245.321 353.768C245.321 354.95 244.927 355.738 244.402 356.263C243.22 355.869 242.038 355.475 240.856 355.212C241.25 354.819 241.513 354.425 241.907 353.899C242.432 353.243 241.25 352.586 240.725 353.243C239.937 354.425 239.018 355.475 237.836 356.263C237.574 356.526 237.442 356.788 237.574 357.182C238.361 358.495 238.755 359.94 238.887 361.515C239.018 362.303 240.2 362.303 240.2 361.515C240.2 360.99 240.069 360.334 239.937 359.808C240.462 360.071 240.856 360.334 241.382 360.596C241.382 361.121 241.513 361.647 241.776 362.041C242.826 363.485 242.17 364.929 242.17 366.637C242.17 367.424 243.483 367.424 243.483 366.637C243.614 365.323 243.745 364.01 244.008 362.697C244.008 362.435 244.008 362.041 243.745 361.909V361.778C244.533 362.172 245.321 362.697 246.24 363.091C247.816 363.879 249.917 365.717 251.624 365.98C252.018 365.98 252.281 365.849 252.412 365.586V365.455C252.543 365.192 252.412 364.798 252.149 364.667C252.149 364.667 252.149 364.667 252.018 364.667C251.887 364.536 251.624 364.536 251.493 364.667C250.705 364.404 249.917 363.748 249.26 363.485L245.846 361.647C245.058 361.253 244.402 360.859 243.614 360.465C243.614 359.808 243.614 359.283 243.614 358.627C244.008 358.364 244.402 358.101 244.665 357.839C247.553 358.758 250.311 359.546 253.2 360.465C253.856 360.728 254.25 359.808 253.856 359.414C253.725 359.283 253.725 359.152 253.594 359.152C253.331 358.889 253.069 358.889 252.806 359.02C250.442 358.233 248.079 357.576 245.715 356.788C245.846 356.657 245.978 356.394 246.109 356C246.766 354.687 246.372 352.586 246.372 351.273C246.372 346.152 246.372 340.899 246.372 335.778C246.372 330.657 246.372 325.405 246.372 320.284C246.372 315.688 246.897 311.092 245.19 306.759C244.271 304.526 243.614 302.425 243.089 300.062C247.553 303.213 251.887 306.365 256.22 309.647C257.533 310.041 258.058 308.86 257.402 308.334ZM241.907 359.02C241.382 358.889 240.856 358.495 240.331 358.233C240.069 358.101 239.937 358.101 239.806 358.233C239.675 357.839 239.412 357.313 239.281 356.92C239.543 356.657 239.937 356.394 240.2 356.132L240.331 356.263C241.382 356.526 242.432 356.92 243.483 357.182C242.826 357.576 242.301 358.101 241.907 359.02Z" fill="black"/>
<path d="M275.654 179.649C269.351 178.861 263.048 178.205 256.745 177.811C256.745 179.124 256.745 180.437 257.008 181.619C257.271 182.8 259.634 182.407 260.422 182.407C262.523 182.407 264.624 182.538 266.594 182.669C269.614 182.8 272.634 183.063 275.654 183.326V184.639C269.351 184.114 263.048 183.72 256.614 183.72C256.351 183.72 256.089 183.588 255.957 183.194C255.564 181.093 255.301 179.124 255.301 176.891C255.301 176.235 256.089 176.104 256.483 176.498C262.917 176.891 269.22 177.548 275.654 178.336V179.649Z" fill="black"/>
<path d="M244.008 158.771L275.654 174.134L276.048 162.71L244.008 158.771Z" fill="black"/>
<path d="M392.496 108.609C392.496 108.609 380.021 104.933 381.597 92.8521C383.172 80.7715 389.475 67.7716 388.031 62.5192C386.718 57.1354 382.91 54.6405 382.91 54.6405L383.435 45.58C383.435 45.58 388.556 38.4892 397.748 42.0346C406.94 45.58 410.091 57.1354 410.354 67.1151C411.273 87.0744 392.496 108.609 392.496 108.609Z" fill="black"/>
<path d="M404.182 84.4482C394.991 76.7008 402.738 61.9939 400.112 51.8829C398.273 44.6608 389.081 42.4285 383.96 47.5496C383.435 48.0749 384.223 48.9941 384.879 48.4688C388.95 44.5295 394.728 45.58 397.879 50.0446C400.637 53.9839 399.455 60.4182 399.193 64.8828C398.667 71.9736 397.354 80.2462 403.395 85.4987C403.92 85.7613 404.839 84.9734 404.182 84.4482Z" fill="#6D6E71"/>
<path d="M400.374 83.9229C397.748 79.8523 396.304 75.7816 396.041 70.9231C395.91 67.1151 396.172 63.307 395.384 59.6303C394.334 54.1152 389.081 49.2567 383.304 51.489C382.516 51.7516 382.91 52.9334 383.698 52.6708C387.506 51.095 390.788 53.0647 392.889 56.3475C394.859 59.6303 394.859 63.8323 394.859 67.509C394.859 73.9433 395.778 79.0644 399.324 84.4482C399.718 85.236 400.768 84.5795 400.374 83.9229Z" fill="#6D6E71"/>
<path d="M352.708 123.185L348.637 136.973L348.243 138.286L347.849 139.862L347.455 141.043L343.647 153.781C343.647 153.781 332.617 149.973 333.011 142.75C333.142 141.175 333.798 137.892 334.718 133.69C334.849 133.296 334.849 132.902 334.98 132.508C335.243 131.458 335.506 130.407 335.768 129.225C335.899 128.831 336.031 128.306 336.162 127.912C337.344 123.448 338.657 118.589 339.97 113.862C340.102 113.468 340.233 113.074 340.364 112.549C340.627 111.498 341.021 110.317 341.283 109.266C341.415 108.872 341.546 108.347 341.677 107.953C344.435 98.3672 346.667 90.6198 346.667 90.6198L352.708 123.185Z" fill="#3885F2"/>
<path d="M348.768 137.104L348.374 138.417C344.172 135.528 340.102 132.377 336.031 129.357C336.162 128.963 336.293 128.438 336.425 128.044C340.364 131.064 344.566 134.084 348.768 137.104Z" fill="black"/>
<path d="M347.849 139.862L347.455 141.043C345.485 139.993 343.778 138.417 341.809 137.235C339.576 135.922 337.213 134.74 334.849 133.69C334.98 133.296 334.98 132.902 335.112 132.508C336.95 133.296 338.788 134.215 340.627 135.134C343.122 136.448 345.354 138.548 347.849 139.862Z" fill="black"/>
<path d="M417.839 195.932C422.829 212.214 420.334 226.658 417.839 241.234C415.344 255.81 411.93 279.314 411.93 279.314C411.93 279.314 391.576 285.749 381.071 286.143C370.566 286.537 364.788 284.436 364.788 284.436C364.788 284.436 350.607 228.497 352.051 204.598C352.708 193.174 354.021 184.245 355.334 176.891C355.465 175.841 355.728 174.79 355.859 173.74C356.384 170.851 356.91 168.225 357.304 165.73C357.829 162.447 358.223 159.558 358.354 156.669C359.011 145.508 354.021 138.548 349.293 120.165C344.566 101.781 346.798 90.4885 346.798 90.4885C346.798 90.4885 351.394 88.1249 355.203 86.1552C355.728 85.8926 356.253 85.63 356.778 85.3673C357.304 85.1047 357.829 84.8421 358.354 84.5795C360.192 83.6603 362.293 82.0846 364.001 80.2462C365.576 78.5391 366.889 76.7008 367.415 74.8624C367.546 74.5998 367.546 74.3372 367.677 73.9432C367.677 73.5493 367.809 73.2867 367.809 72.8928C367.94 68.9534 365.97 63.307 365.445 61.9939L381.728 52.9334C381.728 52.9334 382.384 65.9332 383.566 71.4483C383.698 72.2362 384.485 72.8928 385.799 73.6806C387.374 74.5998 389.869 75.519 392.627 76.3069C394.071 76.7008 395.647 77.0947 397.223 77.4887C399.061 77.8826 400.9 78.2765 402.738 78.6705C411.799 80.5088 420.728 81.6906 420.728 81.6906C420.728 81.6906 408.384 127.65 408.647 146.296C408.778 153.649 409.435 160.477 410.485 166.78C410.617 167.437 410.748 168.225 410.879 168.881C411.142 170.457 411.536 172.164 411.93 173.74C413.506 181.356 415.607 188.447 417.839 195.932Z" fill="black"/>
<path d="M411.93 174.134C409.698 172.952 406.415 171.245 400.374 167.174C391.314 161.003 390.395 152.336 390.395 152.336L410.485 167.174L411.93 174.134Z" fill="black"/>
<path d="M367.152 164.679C363.738 169.932 358.223 174.659 355.334 176.891C355.465 175.841 355.728 174.79 355.859 173.74C356.384 170.851 356.91 168.225 357.304 165.73L371.748 148.791C371.748 148.791 371.879 157.326 367.152 164.679Z" fill="black"/>
<path d="M397.223 77.62L387.768 95.6096L367.283 99.8116L356.253 90.6198L355.203 86.2865C355.728 86.0239 356.253 85.7613 356.778 85.4987C357.304 85.236 357.829 84.9734 358.354 84.7108C360.192 83.7916 362.293 82.2159 364.001 80.3775C365.576 78.6705 366.889 76.8321 367.415 74.9937C367.546 74.7311 367.546 74.4685 367.677 74.0746C367.677 73.6806 367.809 73.418 367.809 73.0241C367.94 69.0847 365.97 63.4383 365.445 62.1252L381.728 53.0647C381.728 53.0647 382.384 66.0646 383.566 71.5796C383.698 72.3675 384.485 73.0241 385.799 73.8119C387.374 74.7311 389.869 75.6503 392.627 76.4382C394.071 76.8321 395.647 77.226 397.223 77.62Z" fill="#F76D6D"/>
<path d="M379.627 57.7919L367.677 73.418L366.627 65.1454L379.627 57.7919Z" fill="black"/>
<path d="M429.395 144.326L410.485 128.044C410.485 128.044 416.263 87.8622 420.728 81.9532C420.728 81.9532 422.96 91.0137 425.455 101.256C425.587 101.65 425.586 102.044 425.718 102.438C425.98 103.751 426.374 105.195 426.637 106.64C426.768 107.034 426.768 107.428 426.9 107.822C427.819 111.892 428.738 115.832 429.395 119.246C429.526 119.64 429.526 119.902 429.657 120.296C430.445 124.104 430.97 127.124 431.102 128.963C432.021 137.761 429.395 144.326 429.395 144.326Z" fill="#3885F2"/>
<path d="M425.718 102.438C423.354 103.357 421.253 104.408 419.021 105.721C418.364 106.115 417.708 105.064 418.364 104.67C420.597 103.357 422.96 102.307 425.324 101.256C425.586 101.65 425.586 102.044 425.718 102.438Z" fill="black"/>
<path d="M427.031 107.69C424.273 107.953 421.516 108.216 418.758 108.478C417.97 108.609 417.97 107.296 418.758 107.296C421.384 107.034 424.142 106.771 426.768 106.509C426.768 106.902 426.9 107.296 427.031 107.69Z" fill="black"/>
<path d="M429.789 120.296C425.193 121.609 417.314 123.448 416.263 123.842C415.475 124.104 415.213 122.922 416.001 122.66C419.415 121.347 422.829 120.69 426.374 119.902C427.425 119.64 428.475 119.508 429.657 119.246C429.657 119.64 429.657 119.902 429.789 120.296Z" fill="black"/>
<path d="M402.738 78.8018L395.516 153.124H367.809L356.778 85.3674C357.304 85.1047 357.829 84.8421 358.354 84.5795C360.192 83.6603 362.293 82.0846 364.001 80.2462C363.869 84.3169 364.526 91.6703 369.91 93.7713C377.263 96.5288 383.698 90.6198 388.031 85.7613C390.132 83.3977 391.576 79.721 392.627 76.4382C395.647 77.3574 399.193 78.1452 402.738 78.8018Z" fill="#F9F8EF"/>
<path d="M371.485 151.154C370.041 161.003 359.798 170.326 355.859 173.74C357.041 167.174 358.091 161.659 358.354 156.669C359.011 145.508 354.021 138.548 349.293 120.165C344.566 101.781 346.798 90.4885 346.798 90.4885C346.798 90.4885 351.92 87.8623 355.859 85.7613C356.253 85.63 356.516 85.4987 356.778 85.236C356.91 85.1047 357.172 85.1047 357.304 84.9734C357.697 84.8421 358.091 84.5795 358.354 84.4482C360.192 83.529 362.293 81.9532 364.001 80.1149C365.576 78.4078 366.889 76.5695 367.415 74.7311C366.364 81.428 363.344 103.094 364.788 112.155C365.445 116.226 366.758 120.953 368.071 125.943C368.203 126.468 368.334 126.993 368.465 127.518C370.697 135.66 372.536 144.064 371.485 151.154Z" fill="#3885F2"/>
<path d="M408.647 146.559C408.778 154.831 409.566 162.185 410.879 169.275C392.102 164.548 388.425 153.255 385.93 128.438C385.799 126.993 385.667 125.549 385.536 124.104C385.536 123.579 385.405 123.054 385.405 122.66C384.091 103.094 385.142 81.6906 385.667 73.9433C387.243 74.8624 389.738 75.7816 392.496 76.5695C393.152 76.7008 393.809 76.9634 394.334 77.0947C394.728 77.226 395.253 77.3574 395.647 77.4887C397.879 78.0139 400.243 78.5392 402.475 79.0644C411.536 80.9028 420.465 82.0846 420.465 82.0846C420.465 82.0846 408.384 127.781 408.647 146.559Z" fill="#3885F2"/>
<path d="M385.536 124.104C385.536 123.579 385.405 123.054 385.405 122.66C395.647 115.569 397.748 99.9429 396.172 86.4178C393.809 86.2865 391.445 86.0239 388.95 85.8926C388.162 85.8926 388.162 84.5795 388.95 84.7108C391.314 84.8421 393.677 84.9734 395.91 85.1047C395.516 82.2159 394.99 79.5896 394.334 77.0947C394.728 77.226 395.253 77.3573 395.647 77.4887C399.849 92.9834 399.061 115.306 385.536 124.104Z" fill="black"/>
<path d="M372.142 141.043C372.142 141.043 361.506 153.518 348.243 158.639C346.667 159.296 344.96 159.821 343.253 160.215C327.758 163.629 333.273 141.7 333.273 141.7C333.273 141.7 337.869 141.437 343.253 140.781C344.698 140.649 346.273 140.387 347.849 140.256C354.809 139.336 370.304 134.74 370.304 134.74L372.142 141.043Z" fill="#3885F2"/>
<path d="M393.94 80.3775L423.485 86.9431L414.95 146.033L385.93 142.094L393.94 80.3775Z" fill="#FFCB59"/>
<path d="M393.94 80.3775L385.93 142.094L390.788 142.75L399.193 81.5593L393.94 80.3775Z" fill="#FFCB59"/>
<path d="M427.95 149.973C426.243 151.68 422.304 148.791 417.839 144.458C410.092 136.841 401.031 124.761 401.031 124.761L406.283 114.256C406.283 114.256 411.405 122.66 416.92 126.074C418.627 127.124 420.597 128.306 422.566 129.357C427.031 131.852 431.364 134.084 431.364 134.084C431.364 134.084 432.546 145.377 427.95 149.973Z" fill="#3885F2"/>
<path d="M428.344 132.902C428.344 132.902 428.213 132.771 427.95 132.639C427.688 132.377 427.425 132.246 427.162 131.983C426.637 131.589 423.617 130.276 422.566 129.488C421.91 128.963 421.122 129.094 421.647 129.488C423.092 130.539 424.536 131.72 426.112 132.771C426.768 133.296 428.869 132.639 428.344 132.902Z" fill="black"/>
<path d="M372.142 141.043C372.142 141.043 361.506 153.518 348.243 158.639C345.354 157.851 342.203 155.619 340.758 150.498C339.314 145.377 341.021 142.488 343.253 140.912C344.698 140.781 346.273 140.518 347.849 140.387C354.809 139.468 370.304 134.872 370.304 134.872L372.142 141.043Z" fill="#F76D6D"/>
<path d="M423.486 135.791C422.96 140.256 419.809 143.013 417.839 144.458C410.092 136.841 401.031 124.761 401.031 124.761L406.283 114.256C406.283 114.256 411.405 122.66 416.92 126.074C418.627 127.124 420.597 128.306 422.566 129.357C423.354 131.064 423.879 133.165 423.486 135.791Z" fill="#F76D6D"/>
<path d="M397.879 140.256C397.879 141.569 396.566 141.963 395.91 141.963C395.778 141.963 395.647 141.963 395.647 141.963C395.647 141.963 395.647 142.225 395.516 142.488C395.384 143.144 395.253 144.064 395.122 144.326C395.122 144.326 395.122 144.457 394.99 144.457C394.597 144.589 393.021 144.589 393.021 144.589C393.021 144.589 393.021 144.72 393.021 144.851C392.889 145.245 392.758 146.165 392.496 146.558C392.102 147.084 386.324 147.346 383.435 147.215C380.546 147.084 370.96 142.357 370.96 142.357L370.172 134.872C370.172 134.872 379.233 130.539 380.546 130.013C381.859 129.488 387.374 129.619 390.657 131.589C393.94 133.559 395.122 134.478 395.253 134.872C395.384 135.134 395.253 136.316 395.253 136.973C395.253 137.235 395.253 137.367 395.253 137.367C395.253 137.367 395.778 137.629 396.304 138.023C397.092 138.417 397.879 139.336 397.879 140.256Z" fill="#F76D6D"/>
<path d="M406.415 114.387L401.162 124.892C401.162 124.892 393.809 125.943 392.627 125.549C391.445 125.023 387.637 121.478 387.768 120.559C387.9 119.902 388.556 119.114 389.081 118.589C389.344 118.327 389.475 118.195 389.475 118.195C389.475 118.195 389.344 118.064 389.213 117.801C388.95 117.276 388.425 116.094 388.425 115.438C388.425 115.044 388.556 114.65 388.556 114.387C388.687 114.125 388.687 113.993 388.687 113.993C388.687 113.993 388.556 113.731 388.294 113.337C388.162 112.943 388.031 112.418 388.031 112.024C388.162 111.367 388.556 110.579 388.687 110.317C388.819 110.185 388.819 110.185 388.819 110.185C388.819 110.185 388.425 109.66 387.9 109.266C387.768 109.135 387.637 108.872 387.637 108.741C387.637 108.216 388.031 107.559 388.425 107.165C388.819 106.771 390.132 106.771 391.051 106.902C391.576 106.902 391.97 107.034 391.97 107.034C391.97 107.034 391.97 106.902 392.102 106.64C392.233 106.377 392.364 105.852 392.496 105.589C392.758 105.064 398.011 104.933 398.799 105.064C399.586 105.195 403.263 107.953 404.051 109.266C404.97 110.579 406.415 114.387 406.415 114.387Z" fill="#F76D6D"/>
<path d="M386.849 45.58C386.849 45.7113 387.768 47.287 386.455 50.4385C385.142 53.7213 384.091 57.7919 380.546 56.2162C380.546 56.2162 379.102 59.3677 375.95 62.5191C372.799 65.6706 361.637 70.3978 356.253 63.5696C353.233 59.6303 352.445 50.0446 352.708 42.6911C352.708 42.0346 352.708 41.378 352.839 40.7214C353.102 37.7013 353.495 35.2064 354.021 34.0246C354.415 33.2367 354.809 32.4488 355.465 31.3983C358.091 27.5903 363.475 22.9944 371.879 23.651C382.384 24.4388 385.667 29.0347 386.849 34.4185C388.031 39.9336 386.849 45.58 386.849 45.58Z" fill="#F76D6D"/>
<path d="M386.849 45.58C382.647 42.0346 380.415 49.388 380.415 49.388C380.415 49.388 380.021 47.287 378.314 44.3982C376.607 41.6406 373.586 40.4588 373.586 40.4588C373.586 40.4588 373.718 39.9336 373.849 39.1457C373.849 38.7518 373.98 38.3578 373.98 37.9639C374.112 36.9134 373.98 35.6003 373.586 34.5498C373.455 34.0246 373.192 33.6306 373.061 33.1054C372.799 32.5801 372.536 32.0549 372.142 31.6609C371.223 30.7418 369.647 29.9539 366.495 29.6913C364.92 29.56 363.738 29.56 362.687 29.6913C360.061 30.0852 359.142 31.3983 359.142 31.3983C359.142 31.3983 359.011 31.1357 358.354 31.1357C357.829 31.0044 356.91 31.1357 355.465 31.3983C356.384 30.0852 357.697 28.5095 359.405 27.1964C360.586 26.2772 361.9 25.4893 363.344 24.9641C365.708 23.9136 368.596 23.3883 371.879 23.6509C373.586 23.7823 375.162 24.0449 376.475 24.3075C377.526 24.5701 378.445 24.8327 379.364 25.2267C380.152 25.4893 380.809 25.8832 381.465 26.2772C381.99 26.5398 382.516 26.9337 382.91 27.3277C384.617 28.7721 385.667 30.4791 386.324 32.3175C386.455 32.7114 386.586 33.1054 386.718 33.4993C386.849 33.7619 386.849 34.1559 386.98 34.4185C387.243 35.6003 387.374 36.9134 387.506 37.9639C387.506 38.3578 387.506 38.7518 387.506 39.1457C387.374 42.8224 386.849 45.58 386.849 45.58Z" fill="black"/>
<path d="M386.586 33.6306C381.99 34.0245 377.526 33.8932 372.93 33.1054C372.667 32.5801 372.405 32.0549 372.011 31.6609C376.738 32.5801 381.465 32.8427 386.192 32.3175C386.324 32.8427 386.455 33.2367 386.586 33.6306Z" fill="#6D6E71"/>
<path d="M387.374 39.4083C382.778 40.1962 378.182 40.4588 373.718 39.1457C373.718 38.7518 373.849 38.3578 373.849 37.9639C378.182 39.277 382.778 38.8831 387.243 38.2265C387.374 38.6205 387.374 39.0144 387.374 39.4083Z" fill="#6D6E71"/>
<path d="M382.778 27.459C382.647 27.459 382.647 27.5903 382.516 27.5903C378.182 27.9842 373.98 27.8529 369.647 28.3782C367.809 28.6408 364.92 28.9034 362.556 29.8226C359.93 30.2165 359.011 31.5296 359.011 31.5296C359.011 31.5296 358.879 31.267 358.223 31.267C360.192 29.0347 363.869 28.1155 366.496 27.5903C371.354 26.6711 376.344 26.9337 381.334 26.5398C381.859 26.6711 382.384 27.0651 382.778 27.459Z" fill="black"/>
<path d="M379.233 25.358C375.687 25.8832 372.142 25.4893 368.465 25.7519C365.708 25.8832 362.293 26.2772 359.273 27.3277C360.455 26.4085 361.768 25.6206 363.213 25.0954C367.546 24.5701 372.142 24.8328 376.344 24.5701C377.394 24.7014 378.445 24.9641 379.233 25.358Z" fill="#6D6E71"/>
<path d="M368.596 55.1657C367.546 57.0041 365.708 58.3172 363.475 58.4485C362.687 58.4485 362.687 59.7616 363.475 59.6303C366.102 59.499 368.334 58.0546 369.647 55.8223C370.041 55.0344 368.99 54.5092 368.596 55.1657Z" fill="black"/>
<path d="M364.395 46.4992C364.657 47.9436 364.263 49.1254 363.475 49.2567C362.819 49.388 362.031 48.3375 361.9 46.8931C361.637 45.4487 362.031 44.2669 362.819 44.1355C363.475 44.0042 364.132 45.0547 364.395 46.4992Z" fill="black"/>
<path d="M355.334 47.1557C355.597 48.4688 355.203 49.6506 354.677 49.7819C354.152 49.9132 353.627 48.8628 353.364 47.5496C353.102 46.2365 353.496 45.0547 354.021 44.9234C354.546 44.7921 355.071 45.7113 355.334 47.1557Z" fill="black"/>
<path d="M360.718 53.7213C359.142 54.6405 356.647 53.59 357.435 51.6203C357.698 50.8324 356.516 50.5698 356.253 51.2264C355.859 52.4082 356.253 53.8526 357.304 54.6405C358.485 55.6909 360.192 55.5596 361.374 54.7718C362.031 54.3778 361.374 53.3273 360.718 53.7213Z" fill="black"/>
<path d="M367.94 39.277C365.445 38.2265 362.687 38.4891 360.324 39.8023C359.273 40.4588 360.192 42.0346 361.243 41.378C363.081 40.3275 365.182 40.1962 367.152 40.8528C367.283 40.8528 367.283 40.9841 367.415 40.9841C367.415 40.9841 367.415 40.9841 367.546 40.9841H367.677C368.859 41.2467 368.859 39.6709 367.94 39.277Z" fill="black"/>
<path d="M354.94 42.6911C354.152 42.4285 353.364 42.2972 352.576 42.5598C352.576 41.9032 352.576 41.2467 352.708 40.5901C353.627 40.4588 354.546 40.4588 355.465 40.8527C356.516 41.378 355.99 43.085 354.94 42.6911Z" fill="black"/>
<path d="M394.728 191.073C390.526 194.619 386.455 198.164 382.253 201.578C381.596 202.103 382.516 203.022 383.172 202.497C386.849 199.346 390.657 196.194 394.334 193.043C394.465 193.043 394.597 193.043 394.728 192.911C394.991 192.649 395.384 192.255 395.647 191.992C396.172 191.467 395.253 190.548 394.728 191.073Z" fill="black"/>
<path d="M400.9 220.749C395.516 230.204 390.263 239.658 384.879 249.244C384.485 249.901 385.536 250.557 385.93 249.901C391.314 240.446 396.566 230.992 401.95 221.406C402.344 220.618 401.294 219.962 400.9 220.749Z" fill="black"/>
<path d="M400.637 234.537C400.374 234.8 400.112 235.062 399.98 235.325C399.849 235.456 399.849 235.588 399.849 235.719C394.728 242.022 389.869 248.456 385.273 255.022C384.879 255.678 385.93 256.335 386.324 255.678C391.182 248.719 396.172 242.022 401.556 235.588C402.081 234.8 401.162 234.012 400.637 234.537Z" fill="black"/>
<path d="M377.263 119.902C377.263 119.771 377.132 119.64 377.132 119.508C377.001 119.246 376.738 119.114 376.475 119.246C374.506 117.67 372.536 115.963 370.697 114.387C370.041 113.862 369.253 114.781 369.778 115.306L376.344 120.821C376.738 121.084 377.526 120.559 377.263 119.902Z" fill="black"/>
<path d="M379.758 118.589C378.182 117.013 376.475 115.438 374.9 113.862C374.374 113.337 373.455 114.125 373.98 114.781L378.839 119.508C379.495 120.034 380.415 119.114 379.758 118.589Z" fill="black"/>
<path d="M351.263 127.387C351 126.73 347.586 118.983 347.192 118.589C346.142 117.933 343.778 116.488 342.859 115.7C341.94 115.044 341.152 114.387 340.364 113.731C340.495 113.337 340.627 112.943 340.758 112.418C341.546 112.943 342.203 113.599 342.99 114.125C343.778 114.781 344.566 115.306 345.354 115.832C345.617 115.963 346.667 116.751 346.93 117.013C347.061 117.013 347.061 117.013 347.192 117.013C347.061 115.963 346.798 114.912 346.667 113.862C346.667 113.862 346.536 113.862 346.536 113.731C344.829 112.155 343.253 110.71 341.546 109.135C341.677 108.741 341.809 108.216 341.94 107.822C343.384 109.266 344.96 110.579 346.405 112.024C346.142 109.135 347.718 102.569 347.586 103.357C346.93 111.63 348.112 119.771 351.263 127.387Z" fill="black"/>
<path d="M343.253 140.781L336.556 140.256C336.556 140.256 338.394 137.629 338.657 137.761C338.92 138.023 343.253 140.781 343.253 140.781Z" fill="black"/>
<path d="M396.304 137.892H396.172C393.283 136.579 390.394 135.528 387.506 134.478C387.112 134.347 387.243 133.821 387.637 133.821C390.263 134.609 392.889 135.66 395.384 136.71C395.384 136.973 395.384 137.104 395.384 137.104C395.384 137.104 395.778 137.498 396.304 137.892Z" fill="black"/>
<path d="M395.91 141.963C395.778 141.963 395.647 141.963 395.647 141.963C395.647 141.963 395.647 142.225 395.516 142.488C392.496 141.306 389.475 140.387 386.455 139.468C386.061 139.336 386.193 138.811 386.586 138.811C389.869 139.73 392.89 140.781 395.91 141.963Z" fill="black"/>
<path d="M395.122 144.326C394.728 144.458 393.152 144.458 393.152 144.458C393.152 144.458 393.152 144.589 393.152 144.72C392.364 144.589 391.576 144.458 390.788 144.195C389.081 143.932 387.374 143.67 385.667 143.407C385.273 143.407 385.273 142.75 385.667 142.75C386.98 142.882 388.425 143.144 389.738 143.276C391.445 143.538 393.152 144.064 394.859 144.064C394.991 144.195 394.991 144.326 395.122 144.326Z" fill="black"/>
<path d="M395.122 113.731C394.728 113.074 393.152 112.811 392.496 112.418C391.445 111.892 390.526 111.498 389.607 110.842C389.344 110.71 389.081 110.448 388.819 110.317C388.95 110.185 388.95 110.185 388.95 110.185C388.95 110.185 388.556 109.66 388.031 109.266C387.9 109.135 387.768 108.872 387.768 108.741C388.687 110.185 390.92 111.236 392.233 111.892C393.283 112.418 394.99 112.549 395.647 113.599C395.91 113.862 395.253 114.125 395.122 113.731Z" fill="black"/>
<path d="M399.718 109.135C396.698 108.741 393.94 107.428 391.051 106.771C391.576 106.771 391.97 106.902 391.97 106.902C391.97 106.902 391.97 106.771 392.102 106.509C394.728 107.296 397.223 108.216 399.849 108.609C400.243 108.609 400.112 109.266 399.718 109.135Z" fill="black"/>
<path d="M393.415 117.67C392.102 117.276 390.92 116.226 389.738 115.438C389.344 115.175 388.819 114.781 388.425 114.387C388.556 114.125 388.556 113.993 388.556 113.993C388.556 113.993 388.425 113.731 388.162 113.337C388.819 113.993 389.738 114.65 390.394 115.175C391.314 115.832 392.364 116.751 393.415 117.013C393.94 117.276 393.809 117.801 393.415 117.67Z" fill="black"/>
<path d="M393.152 121.872C391.576 120.953 390.263 119.771 389.081 118.458C389.344 118.195 389.475 118.064 389.475 118.064C389.475 118.064 389.344 117.933 389.213 117.67C390.395 118.983 391.708 120.165 393.283 121.084C393.415 121.084 393.546 121.084 393.546 121.215C393.546 121.215 393.546 121.347 393.677 121.347C393.677 121.741 393.415 122.003 393.152 121.872Z" fill="black"/>
<path d="M388.95 118.458L388.819 120.296L391.708 120.559L388.95 118.458Z" fill="black"/>
<path d="M368.596 127.912C353.758 120.953 352.314 100.862 355.859 85.8926C356.253 85.7613 356.516 85.63 356.778 85.3673C356.91 85.236 357.172 85.236 357.304 85.1047C356.778 87.0744 356.384 89.0441 356.122 91.145C357.829 90.2259 359.536 89.3067 361.243 88.3875C361.9 87.9936 362.556 89.0441 361.9 89.438C359.93 90.4885 357.96 91.539 355.99 92.5895C354.415 105.458 356.91 120.165 368.203 126.205C368.334 126.73 368.465 127.256 368.596 127.912Z" fill="black"/>
</g>
<defs>
<clipPath id="clip0">
<rect width="473" height="246" fill="white"/>
</clipPath>
</defs>
</svg>
