<svg width="36" height="28" viewBox="0 0 36 28" fill="none" xmlns="http://www.w3.org/2000/svg">
<path fill-rule="evenodd" clip-rule="evenodd" d="M0.336816 6.91205L0.336367 6.91725C0.113379 9.57006 0 11.9112 0 13.9346C0 15.9827 0.116144 18.3562 0.344569 21.0491C0.631221 24.4284 3.34529 27.0907 6.72965 27.3121C10.8214 27.5797 14.5789 27.7142 18 27.7142C21.4215 27.7142 25.1803 27.5797 29.2743 27.3119C32.6599 27.0905 35.3746 24.4267 35.6598 21.0459C35.8854 18.372 36 15.9998 36 13.9346C36 11.8944 35.8882 9.55458 35.668 6.92043C35.3818 3.49721 32.6068 0.814024 29.1759 0.643055C24.4124 0.405739 20.6824 0.285645 18 0.285645C15.3178 0.285645 11.5892 0.405652 6.82803 0.64297C3.40014 0.813856 0.626831 3.49271 0.336816 6.91205ZM14.1329 8.86985C14.8876 7.7475 16.4092 7.44935 17.5316 8.204L23.1863 12.0063C23.4552 12.187 23.6853 12.4193 23.8632 12.6885C24.6088 13.8166 24.2991 15.3361 23.1706 16.082L17.5158 19.8193C17.115 20.0843 16.6451 20.2255 16.1651 20.2255C14.8126 20.2255 13.7162 19.129 13.7162 17.7765V10.2363C13.7162 9.74934 13.8618 9.27332 14.1329 8.86985Z" fill="white" fill-opacity="0.8"/>
</svg>
