<svg width="47" height="42" viewBox="0 0 47 42" fill="none" xmlns="http://www.w3.org/2000/svg">
<path fill-rule="evenodd" clip-rule="evenodd" d="M23.1 0C24.2598 0 25.2 0.940202 25.2 2.1V6.3H37.8C38.5377 6.3 39.2212 6.68703 39.6007 7.31956L45.9007 17.8196C46.0966 18.1459 46.2 18.5194 46.2 18.9C46.2 23.5392 42.4392 27.3 37.8 27.3C33.1608 27.3 29.4 23.5392 29.4 18.9C29.4 18.5194 29.5034 18.1459 29.6993 17.8196L34.091 10.5H25.2V37.8H37.8C38.9598 37.8 39.9 38.7402 39.9 39.9C39.9 41.0598 38.9598 42 37.8 42H8.4C7.2402 42 6.3 41.0598 6.3 39.9C6.3 38.7402 7.2402 37.8 8.4 37.8H21V10.5H12.109L16.5007 17.8196C16.6966 18.1459 16.8 18.5194 16.8 18.9C16.8 23.5392 13.0392 27.3 8.4 27.3C3.7608 27.3 0 23.5392 0 18.9C0 18.5194 0.103441 18.1459 0.299265 17.8196L6.59927 7.31956C6.97878 6.68703 7.66235 6.3 8.4 6.3H21V2.1C21 0.940202 21.9402 0 23.1 0ZM8.4 12.4817L10.991 16.8H5.809L8.4 12.4817ZM4.76189 21H12.0381C11.3119 22.2554 9.95459 23.1 8.4 23.1C6.84541 23.1 5.48809 22.2554 4.76189 21ZM37.8 12.4817L35.209 16.8H40.391L37.8 12.4817ZM41.4381 21H34.1619C34.8881 22.2554 36.2454 23.1 37.8 23.1C39.3546 23.1 40.7119 22.2554 41.4381 21Z" fill="#00C595"/>
</svg>
