<svg width="48" height="35" viewBox="0 0 48 35" fill="none" xmlns="http://www.w3.org/2000/svg">
<path d="M22.9354 0.146976C23.4258 -0.0489918 23.9728 -0.0489918 24.4633 0.146976L46.1038 8.79403C46.984 9.14576 47.4155 9.9534 47.3981 10.7521L47.3986 10.8192V20.3137C47.3986 21.4507 46.4769 22.3725 45.3398 22.3725C44.284 22.3725 43.4138 21.5777 43.2948 20.5538L43.281 20.3137L43.2806 13.7447L37.5612 16.03L37.5621 28.0687C37.5621 28.6204 37.3406 29.1491 36.9473 29.5361C36.2143 30.2574 34.9411 31.2755 33.206 32.2846C30.2962 33.977 27.0986 35 23.6993 35C20.3001 35 17.1025 33.977 14.1926 32.2846C12.4575 31.2755 11.1843 30.2574 10.4513 29.5361C10.1236 29.2136 9.91514 28.7927 9.85477 28.3421L9.83654 28.0687L9.835 16.03L1.29489 12.6177C-0.349415 11.9607 -0.427716 9.71269 1.05999 8.90414L1.29489 8.79403L22.9354 0.146976ZM33.4435 17.675L24.4633 21.2648C23.9728 21.4608 23.4258 21.4608 22.9354 21.2648L13.9526 17.675V27.1332L14.0619 27.222C14.5405 27.6048 15.0756 27.9893 15.661 28.3599L16.2628 28.7252C18.589 30.0782 21.1027 30.8824 23.6993 30.8824C26.2959 30.8824 28.8096 30.0782 31.1359 28.7252C31.754 28.3657 32.3239 27.987 32.8395 27.6048L33.3368 27.222L33.4435 27.1332V17.675ZM23.6991 4.27412L7.60735 10.7059L23.6991 17.1356L39.7909 10.7059L23.6991 4.27412Z" fill="#0652DD"/>
</svg>
