<svg width="42" height="35" viewBox="0 0 42 35" fill="none" xmlns="http://www.w3.org/2000/svg">
<path fill-rule="evenodd" clip-rule="evenodd" d="M8.98629 0.55916C9.73184 1.30471 9.73184 2.51348 8.98629 3.25902L6.51804 5.72727H40.0909C41.1453 5.72727 42 6.582 42 7.63636C42 8.69073 41.1453 9.54545 40.0909 9.54545H6.51804L8.98629 12.0137C9.73184 12.7593 9.73184 13.968 8.98629 14.7136C8.24075 15.4591 7.03198 15.4591 6.28643 14.7136L0.55916 8.98629C-0.186387 8.24075 -0.186387 7.03198 0.55916 6.28643L6.28643 0.55916C7.03198 -0.186387 8.24075 -0.186387 8.98629 0.55916ZM33.0137 19.6501C33.7593 18.9045 34.968 18.9045 35.7136 19.6501L41.4408 25.3773C42.1864 26.1229 42.1864 27.3317 41.4408 28.0772L35.7136 33.8045C34.968 34.55 33.7593 34.55 33.0137 33.8045C32.2682 33.0589 32.2682 31.8502 33.0137 31.1046L35.482 28.6364H1.90909C0.854729 28.6364 5.68953e-08 27.7816 5.68953e-08 26.7273C5.68953e-08 25.6729 0.854729 24.8182 1.90909 24.8182H35.482L33.0137 22.3499C32.2682 21.6044 32.2682 20.3956 33.0137 19.6501Z" fill="#0652DD"/>
</svg>
