<svg width="35" height="42" viewBox="0 0 35 42" fill="none" xmlns="http://www.w3.org/2000/svg">
<path fill-rule="evenodd" clip-rule="evenodd" d="M0 3.81818C0 1.70946 1.70946 0 3.81818 0H30.5455C32.6542 0 34.3636 1.70948 34.3636 3.81818V38.1818C34.3636 40.2906 32.6542 42 30.5455 42H3.81818C1.70948 42 0 40.2906 0 38.1818V3.81818ZM30.5455 3.81818H3.81818V24.8182H30.5455V3.81818ZM30.5455 28.6364H3.81818V38.1818H30.5455V28.6364ZM13.3636 33.4091C13.3636 32.3547 14.2184 31.5 15.2727 31.5H19.0909C20.1453 31.5 21 32.3547 21 33.4091C21 34.4635 20.1453 35.3182 19.0909 35.3182H15.2727C14.2184 35.3182 13.3636 34.4635 13.3636 33.4091Z" fill="#0652DD"/>
</svg>
