<svg width="25" height="29" viewBox="0 0 25 29" fill="none" xmlns="http://www.w3.org/2000/svg">
<path fill-rule="evenodd" clip-rule="evenodd" d="M0.314718 27.1998L5.16294 22.4091H12.7247C13.3615 22.4091 13.9723 22.1592 14.4226 21.7142L20.3894 15.8182H23.9306C24.8814 15.8182 25.3576 16.9541 24.6853 17.6185L13.4796 28.6912C13.2794 28.889 13.008 29.0001 12.725 29.0001H1.06935C0.118566 29.0001 -0.357586 27.8642 0.314718 27.1998Z" fill="white" fill-opacity="0.3"/>
<path fill-rule="evenodd" clip-rule="evenodd" d="M20.3894 7.90906H23.9307C24.8814 7.90906 25.3576 9.04495 24.6853 9.70928L13.4796 20.782C13.2794 20.9798 13.008 21.0909 12.725 21.0909H1.06935C0.118566 21.0909 -0.357586 19.955 0.314718 19.2907L5.16294 14.5H12.7247C13.3615 14.5 13.9723 14.25 14.4226 13.805L20.3894 7.90906Z" fill="white" fill-opacity="0.3"/>
<path d="M11.5204 0.308869C11.7206 0.111104 11.992 0 12.275 0H23.9307C24.8814 0 25.3576 1.1359 24.6853 1.80022L13.4796 12.8729C13.2794 13.0707 13.008 13.1818 12.725 13.1818H1.06935C0.118566 13.1818 -0.357586 12.0459 0.314718 11.3816L11.5204 0.308869Z" fill="white"/>
</svg>
