<svg width="42" height="42" viewBox="0 0 42 42" fill="none" xmlns="http://www.w3.org/2000/svg">
<path fill-rule="evenodd" clip-rule="evenodd" d="M13 0C14.1046 0 15 0.89543 15 2V3H27V2C27 0.89543 27.8954 0 29 0C30.1046 0 31 0.89543 31 2V3H38C40.2092 3 42 4.79088 42 7V38C42 40.2092 40.2092 42 38 42H4C1.79088 42 0 40.2092 0 38V7C0 4.79086 1.79086 3 4 3H11V2C11 0.89543 11.8954 0 13 0ZM11 7H4V14H38V7H31V10C31 11.1046 30.1046 12 29 12C27.8954 12 27 11.1046 27 10V7H15V10C15 11.1046 14.1046 12 13 12C11.8954 12 11 11.1046 11 10V7ZM38 18H4V38H38V18ZM32.4142 20.5858C33.1953 21.3668 33.1953 22.6332 32.4142 23.4142L20.4142 35.4142C19.6332 36.1953 18.3668 36.1953 17.5858 35.4142L11.5858 29.4142C10.8047 28.6332 10.8047 27.3668 11.5858 26.5858C12.3668 25.8047 13.6332 25.8047 14.4142 26.5858L19 31.1716L29.5858 20.5858C30.3668 19.8047 31.6332 19.8047 32.4142 20.5858Z" fill="#0652DD"/>
</svg>
