<svg width="39" height="42" viewBox="0 0 39 42" fill="none" xmlns="http://www.w3.org/2000/svg">
<path fill-rule="evenodd" clip-rule="evenodd" d="M19.0909 3.81818C15.9278 3.81818 13.3636 6.38237 13.3636 9.54545C13.3636 12.7085 15.9278 15.2727 19.0909 15.2727C22.254 15.2727 24.8182 12.7085 24.8182 9.54545C24.8182 6.38237 22.254 3.81818 19.0909 3.81818ZM9.54545 9.54545C9.54545 4.27365 13.8191 0 19.0909 0C24.3627 0 28.6364 4.27364 28.6364 9.54545C28.6364 14.8173 24.3627 19.0909 19.0909 19.0909C13.8191 19.0909 9.54545 14.8173 9.54545 9.54545ZM0 40.0909C0 29.5473 8.54731 21 19.0909 21C29.6345 21 38.1818 29.5473 38.1818 40.0909C38.1818 41.1453 37.3271 42 36.2727 42C35.2184 42 34.3636 41.1453 34.3636 40.0909C34.3636 32.5618 28.9155 26.3052 21.7465 25.0482L24.7338 34.7567C24.9196 35.3607 24.7946 36.0174 24.3998 36.5108L20.5817 41.2835C20.2194 41.7364 19.6709 42 19.0909 42C18.511 42 17.9625 41.7364 17.6002 41.2835L13.782 36.5108C13.3873 36.0174 13.2622 35.3607 13.4481 34.7567L16.4353 25.0482C9.26631 26.3052 3.81818 32.5618 3.81818 40.0909C3.81818 41.1453 2.96345 42 1.90909 42C0.854729 42 0 41.1453 0 40.0909ZM19.0909 29.4007L17.3944 34.9143L19.0909 37.0349L20.7874 34.9143L19.0909 29.4007Z" fill="#0652DD"/>
</svg>
