<svg width="25" height="29" viewBox="0 0 25 29" fill="none" xmlns="http://www.w3.org/2000/svg">
<path d="M11.5203 3.30887C11.7205 3.1111 11.9919 3 12.2749 3H23.9304C24.8812 3 25.3574 4.13589 24.6851 4.80021L13.4795 15.8728C13.2793 16.0706 13.0079 16.1817 12.7248 16.1817H1.06934C0.118565 16.1817 -0.357583 15.0458 0.314715 14.3815L11.5203 3.30887Z" fill="#3F87F5"/>
<path d="M13.4796 25.1001L24.6852 14.0275C25.3575 13.3632 24.8813 12.2273 23.9305 12.2273H19.0554L14.4227 16.805C13.9724 17.25 13.3617 17.5 12.7248 17.5H6.49699L0.314818 23.6088C-0.357481 24.2731 0.118668 25.409 1.06944 25.409H12.7249C13.008 25.409 13.2794 25.2979 13.4796 25.1001Z" fill="#D6DEF8"/>
</svg>
